<?xml version="1.0" encoding="UTF-8"?><svg id="Camada_2" xmlns="http://www.w3.org/2000/svg" viewBox="0 0 203.77 140.33"><defs><style>.cls-1{fill:#efebe0;}</style></defs><g id="Layer_1"><g><g><path class="cls-1" d="m156.35,21.33c7.28.4,13.18,2.89,17.43,5.39l-17.24-17.24C150.42,3.37,142.28,0,133.61,0c-8.67,0-16.81,3.37-22.93,9.48l-60.68,60.68,28.35,28.35,20.16-20.16-8.19-8.19,40.52-40.52c.08-.08.17-.14.25-.21.03-.03.05-.06.08-.09,8.51-8.94,22.36-8.17,25.17-8.01Z"/><path class="cls-1" d="m194.29,47.24l-20.51-20.51c-4.24-2.51-10.15-4.99-17.43-5.39-2.81-.16-16.66-.92-25.17,8.01-.03.03-.05.06-.08.09.7-.59,1.58-.93,2.51-.93,1.05,0,2.03.4,2.76,1.14l37.75,37.75c.26.26.45.54.62.84,8.59,8.53,7.85,22.07,7.69,24.85-.39,7.01-2.71,12.76-5.12,16.97l16.96-16.96c12.64-12.64,12.64-33.21,0-45.86Z"/><path class="cls-1" d="m174.75,68.24c.84,1.49.65,3.42-.62,4.68l-37.75,37.75c-.74.74-1.72,1.14-2.76,1.14s-2.03-.41-2.76-1.14l-5.42-5.42-20.16,20.16,5.42,5.42c6.12,6.12,14.26,9.48,22.93,9.48,8.67,0,16.81-3.37,22.93-9.48l20.79-20.79c2.41-4.21,4.73-9.96,5.12-16.97.15-2.77.9-16.31-7.69-24.85Z"/></g><g><path class="cls-1" d="m47.42,119c-7.28-.4-13.18-2.89-17.43-5.39l17.24,17.24c6.12,6.12,14.26,9.48,22.93,9.48,8.67,0,16.81-3.37,22.93-9.48l60.68-60.68-28.35-28.35-20.16,20.16,8.19,8.19-40.52,40.52c-.08.08-.17.14-.25.21-.03.03-.05.06-.08.09-8.51,8.94-22.36,8.17-25.17,8.01Z"/><path class="cls-1" d="m9.48,93.09l20.51,20.51c4.24,2.51,10.15,4.99,17.43,5.39,2.81.16,16.66.92,25.17-8.01.03-.03.05-.06.08-.09-.7.59-1.58.93-2.51.93-1.05,0-2.03-.4-2.76-1.14l-37.75-37.75c-.26-.26-.45-.54-.62-.84-8.59-8.53-7.85-22.07-7.69-24.85.39-7.01,2.71-12.76,5.12-16.97l-16.96,16.96c-12.64,12.64-12.64,33.21,0,45.86Z"/><path class="cls-1" d="m29.02,72.08c-.84-1.49-.65-3.42.62-4.68l37.75-37.75c.74-.74,1.72-1.14,2.76-1.14s2.03.41,2.76,1.14l5.42,5.42,20.16-20.16-5.42-5.42C86.98,3.37,78.83,0,70.16,0c-8.67,0-16.81,3.37-22.93,9.48l-20.79,20.79c-2.41,4.21-4.73,9.96-5.12,16.97-.15,2.77-.9,16.31,7.69,24.85Z"/></g></g></g></svg>