<?xml version="1.0" encoding="UTF-8"?>
<svg id="Camada_2" data-name="Camada 2" xmlns="http://www.w3.org/2000/svg" viewBox="0 0 233.7 311.15">
  <defs>
    <style>
      .cls-1 {
        fill: #fff;
      }

      .cls-2 {
        fill: #282828;
      }

      .cls-3 {
        fill: #ec9b3c;
      }
    </style>
  </defs>
  <g id="Modo_de_isolamento" data-name="Modo de isolamento">
    <g id="_9" data-name="9">
      <g>
        <path class="cls-2" d="m15.48,276.25l-4.18,2.41c-.43.25-1.18.22-1.67-.07l-3.94-2.27c-.49-.29-.55-.72-.12-.96l4.18-2.41c.43-.25,1.18-.22,1.67.07l3.94,2.27c.49.29.55.72.12.96Z"/>
        <path class="cls-2" d="m14.52,297.58l-4.18,2.41c-.43.25-1.18.22-1.67-.07l-3.94-2.27c-.49-.29-.55-.72-.12-.96l4.18-2.41c.43-.25,1.18-.22,1.67.07l3.94,2.27c.49.29.55.72.12.96Z"/>
        <path class="cls-2" d="m33.47,286.64l-4.17,2.41c-.43.25-1.18.22-1.67-.07l-3.94-2.27c-.49-.29-.55-.72-.12-.96l4.17-2.41c.43-.25,1.18-.22,1.67.07l3.94,2.27c.49.29.55.72.12.96Z"/>
        <path class="cls-2" d="m33.56,308.57l-4.18,2.41c-.43.25-1.18.22-1.67-.07l-3.94-2.27c-.49-.29-.55-.72-.12-.96l4.17-2.41c.43-.25,1.18-.22,1.67.07l3.94,2.27c.49.29.55.72.12.96Z"/>
        <path class="cls-2" d="m52.51,297.63l-4.18,2.41c-.43.25-1.18.22-1.67-.07l-3.94-2.27c-.49-.29-.55-.72-.12-.96l4.18-2.41c.43-.25,1.18-.22,1.67.07l3.94,2.27c.49.29.55.72.12.96Z"/>
        <path class="cls-2" d="m71.47,286.69l-4.17,2.41c-.43.25-1.18.22-1.67-.07l-3.93-2.27c-.49-.29-.55-.72-.12-.96l4.17-2.41c.43-.25,1.18-.22,1.67.07l3.94,2.27c.49.29.55.72.12.96Z"/>
        <path class="cls-2" d="m90.42,275.74l-4.17,2.41c-.43.25-1.18.22-1.67-.07l-3.94-2.27c-.49-.29-.55-.72-.12-.96l4.17-2.41c.43-.25,1.18-.22,1.67.07l3.94,2.27c.49.29.55.72.12.96Z"/>
        <path class="cls-2" d="m109.38,264.8l-4.18,2.41c-.43.25-1.18.22-1.67-.07l-3.94-2.27c-.49-.29-.55-.72-.12-.96l4.18-2.41c.43-.25,1.18-.22,1.67.07l3.94,2.27c.49.29.55.72.12.96Z"/>
        <path class="cls-2" d="m128.33,253.85l-4.18,2.41c-.43.25-1.18.22-1.67-.07l-3.94-2.27c-.49-.29-.55-.72-.12-.96l4.18-2.41c.43-.25,1.18-.22,1.67.07l3.94,2.27c.49.29.55.72.12.96Z"/>
        <path class="cls-2" d="m147.29,242.91l-4.17,2.41c-.43.25-1.18.22-1.67-.07l-3.94-2.27c-.49-.29-.55-.72-.12-.97l4.17-2.41c.43-.25,1.18-.22,1.67.07l3.94,2.27c.49.29.55.72.12.96Z"/>
        <path class="cls-2" d="m70.5,308.02l-4.17,2.41c-.43.25-1.18.22-1.67-.07l-3.94-2.27c-.49-.29-.55-.72-.12-.97l4.17-2.41c.43-.25,1.18-.22,1.67.07l3.94,2.27c.49.29.55.72.12.96Z"/>
        <path class="cls-2" d="m89.46,297.07l-4.18,2.41c-.43.25-1.18.22-1.67-.07l-3.94-2.27c-.49-.29-.55-.72-.12-.96l4.17-2.41c.43-.25,1.18-.22,1.67.07l3.94,2.27c.49.29.55.72.12.96Z"/>
        <path class="cls-2" d="m108.41,286.13l-4.18,2.41c-.43.25-1.18.22-1.67-.07l-3.94-2.27c-.49-.29-.55-.72-.12-.97l4.18-2.41c.43-.25,1.18-.22,1.67.07l3.94,2.27c.49.28.55.72.12.96Z"/>
        <path class="cls-2" d="m127.37,275.18l-4.17,2.41c-.43.25-1.18.22-1.67-.07l-3.94-2.27c-.49-.29-.55-.72-.12-.96l4.17-2.41c.43-.25,1.18-.22,1.67.07l3.94,2.27c.49.29.55.72.12.96Z"/>
        <path class="cls-2" d="m146.32,264.24l-4.17,2.41c-.43.25-1.18.22-1.67-.07l-3.94-2.27c-.49-.29-.55-.72-.12-.97l4.17-2.41c.43-.25,1.18-.22,1.67.07l3.93,2.27c.49.28.55.72.12.96Z"/>
      </g>
      <g>
        <g>
          <g>
            <path class="cls-3" d="m228.73,29.99s-9.46-22.76-46.72-27.44l-.02.02c-2.8-.82-6.14-.34-9.73,1.74L20.42,91.97c-9.87,5.7-17.87,20.99-17.87,34.15v116.51c0,3.62,1.03,6.3,2.67,7.89h0s12.68,17.33,42.16,25.49c14.84,4.11,48.81-42.73,78.9-90.28l52.93-30.56c6.03-3.48,10.91-12.81,10.91-20.85v-53.85l27.9-36.41,10.7-14.07Z"/>
            <path class="cls-2" d="m49.76,278.23c-1.24,0-2.16-.25-2.87-.45-29.76-8.23-42.63-25.44-43.16-26.17-1.91-1.83-3.02-5.01-3.02-8.98v-116.51c0-13.72,8.43-29.76,18.79-35.74L171.34,2.71c3.78-2.19,7.54-2.87,10.88-1.99h.02c37.88,4.76,47.78,27.59,48.18,28.56l.41.98-38.86,50.83v53.23c0,8.75-5.2,18.61-11.83,22.44l-52.53,30.33c-52.09,82.24-70.53,91.13-77.84,91.13ZM179.29,4.03c-1.9,0-3.97.63-6.12,1.87L21.34,93.56c-9.35,5.4-16.95,20-16.95,32.55v116.51c0,2.91.75,5.25,2.11,6.58.32.4,12.92,17.16,41.37,25.03,6.42,1.75,24.95-7.48,76.86-89.49l.63-.61,52.93-30.56c5.41-3.13,9.99-11.94,9.99-19.25v-54.47l38.28-50.07c-2.24-4.16-13.21-21.21-44.09-25.31l-.14.1-.87-.23c-.69-.2-1.42-.3-2.18-.3Z"/>
          </g>
          <g>
            <path class="cls-1" d="m54.09,129.75c21.99,4.55,102.46-34.33,102.46-34.33l33.57-13.27v-2.03l27.9-36.41,10.7-14.07s-7.94-22.55-45.2-27.23l-1.54-.19c-2.8-.82-6.14-.34-9.73,1.74L20.42,91.62c-5.37,3.1-10.13,9.07-13.4,15.96.3.32,25.25,17.66,47.07,22.18Z"/>
            <path class="cls-2" d="m58.15,131.95c-1.65,0-3.13-.13-4.43-.4-22.07-4.57-47.24-21.86-48.04-22.71l-.86-.91.54-1.14c3.64-7.64,8.66-13.59,14.15-16.76L171.34,2.37c3.89-2.25,7.74-2.91,11.16-1.91l1.25.13c37.95,4.76,46.37,27.48,46.71,28.44l.33.93-38.82,50.78v2.66l-34.74,13.73c-3,1.45-72.36,34.82-99.08,34.82Zm-48.79-24.95c4.81,3.22,26.09,17.02,45.1,20.95h0c21.14,4.41,100.49-33.8,101.29-34.18l32.53-12.86v-1.4l38.32-50.12c-1.95-4.08-11.9-21.2-43.31-25.15l-1.54-.19c-2.71-.77-5.58-.23-8.58,1.5L21.34,93.21c-4.45,2.57-8.77,7.55-11.98,13.78Z"/>
          </g>
          <g>
            <path class="cls-2" d="m213.98,28.13L62.15,115.79c-9.87,5.7-17.87,20.99-17.87,34.15v116.51c0,8.03,4.88,11.73,10.91,8.25l165.76-95.7c6.03-3.48,10.91-12.81,10.91-20.85V41.64c0-13.16-8-19.21-17.87-13.51Z"/>
            <path class="cls-2" d="m50.85,277.84c-1.33,0-2.58-.33-3.72-.98-2.98-1.72-4.69-5.52-4.69-10.42v-116.51c0-13.73,8.43-29.76,18.79-35.74L213.06,26.54c4.89-2.82,9.69-3.17,13.53-.94,4.51,2.6,7.1,8.45,7.1,16.05v116.51c0,8.75-5.2,18.61-11.83,22.44l-165.76,95.7c-1.79,1.04-3.58,1.56-5.26,1.56ZM221.08,27.84c-1.9,0-4.01.63-6.18,1.89L63.07,117.39c-9.35,5.4-16.95,20-16.95,32.55v116.51c0,3.55,1.04,6.18,2.85,7.23,1.78,1.02,3.86.26,5.3-.58l165.76-95.7c5.42-3.13,9.99-11.94,9.99-19.25V41.64c0-6.24-1.92-10.93-5.26-12.86-1.09-.63-2.33-.94-3.67-.94Z"/>
          </g>
          <path class="cls-3" d="m52.59,195.95c-1.02,0-2.01-.16-2.95-.49-2.64-.91-4.68-2.99-5.91-6.04l3.41-1.38c.82,2.03,2.1,3.39,3.69,3.94,1.79.63,3.96.23,6.3-1.12l160.04-92.4c5.15-2.97,9.79-9.81,11.83-17.42l3.56.95c-2.28,8.5-7.59,16.22-13.54,19.65L58.97,194.05c-2.19,1.26-4.35,1.9-6.38,1.9Z"/>
          <g>
            <path class="cls-2" d="m150.14,165.75l-19.53,11.27c-2.21,1.28-4-.08-4-3.03v-42.94c0-2.95,1.79-6.37,4-7.65l19.53-11.27c2.21-1.28,4,.08,4,3.03v42.94c0,2.95-1.79,6.37-4,7.65Z"/>
            <path class="cls-3" d="m129.01,179.34c-.69,0-1.35-.17-1.94-.51-1.46-.85-2.3-2.61-2.3-4.83v-42.94c0-3.59,2.16-7.65,4.92-9.24l19.53-11.27c1.53-.88,3.16-.96,4.46-.21,1.46.85,2.3,2.61,2.3,4.83v42.94c0,3.59-2.16,7.65-4.92,9.24l-19.53,11.27c-.83.48-1.7.72-2.52.72Zm22.71-65.85c-.13,0-.36.06-.67.23l-19.53,11.27c-1.64.95-3.08,3.78-3.08,6.06v42.94c0,1,.29,1.54.46,1.65.07.04.35.03.78-.21l19.53-11.27c1.64-.95,3.08-3.78,3.08-6.06v-42.94c0-1-.29-1.54-.46-1.64-.02-.01-.06-.02-.11-.02Z"/>
          </g>
          <path class="cls-3" d="m139.36,142.88c-.51,0-1.01-.13-1.47-.39-1.06-.61-1.66-1.82-1.66-3.33v-3.27c0-2.24,1.32-4.68,3.07-5.69,1.42-.82,2.61-.85,3.57-.3,1.05.61,1.66,1.82,1.66,3.33v3.27c0,2.24-1.32,4.68-3.06,5.69l-.32.18c-.58.34-1.19.51-1.78.51Zm1.48-9.17c-.57.6-.93,1.45-.93,2.18v2.88c.47-.49.93-1.44.93-2.27v-2.79Z"/>
          <rect class="cls-3" x="50.04" y="87.92" width="178.51" height="3.68" transform="translate(-26.23 81.89) rotate(-30.07)"/>
          <g>
            <g>
              <path class="cls-3" d="m182.88,25.7l-16.86,9.73-10.22-9.68c-2.77-2.62-6.93-3.12-10.24-1.22l-39.55,22.75c-4.45,2.56-7.93,6.53-9.88,11.28l-9.45,22.99-14.39,8.05c-2.05,1.15-4.56,1.08-6.55-.18l-12.95-8.2c-1.11-.71-1.07-2.35.08-2.99l15.16-8.48,9.45-22.99c1.95-4.75,5.43-8.72,9.88-11.28l40.6-23.36c2.78-1.6,6.21-1.52,8.92.19l14.24,9.02,12.25-6.97c2.06-1.17,4.59-1.11,6.59.16l12.96,8.21c1.11.7,1.07,2.33-.06,2.98Z"/>
              <path class="cls-2" d="m69.18,92.26c-1.53,0-3.06-.43-4.41-1.28l-12.95-8.2c-1.07-.68-1.7-1.85-1.66-3.12.04-1.27.72-2.41,1.83-3.03l14.6-8.17,9.2-22.39c2.09-5.1,5.88-9.42,10.66-12.17l40.6-23.36c3.39-1.94,7.53-1.85,10.82.23l13.31,8.42,11.29-6.42c2.65-1.51,5.9-1.43,8.48.2l12.96,8.21c1.07.68,1.69,1.84,1.66,3.1-.03,1.27-.7,2.39-1.79,3.03l-18.04,10.42-11.22-10.63c-2.16-2.05-5.48-2.44-8.05-.96l-39.55,22.75c-4.08,2.35-7.31,6.03-9.09,10.38l-9.69,23.58-14.95,8.36c-1.25.7-2.64,1.05-4.02,1.05ZM132.28,12.81c-1.16,0-2.33.3-3.39.91l-40.6,23.36c-4.08,2.35-7.31,6.03-9.09,10.38l-9.69,23.58-15.72,8.79,12.96,8.03c1.41.9,3.2.95,4.66.13l13.83-7.74,9.2-22.39c2.09-5.1,5.88-9.42,10.66-12.17l39.55-22.76c1.13-.65,2.36-1.07,3.61-1.26l-12.34-7.81c-1.11-.7-2.37-1.06-3.63-1.06Zm21.11,9.36c1.35.48,2.61,1.23,3.68,2.25l9.23,8.74,15.57-8.99-12.87-8.09c-1.43-.91-3.23-.94-4.69-.11l-10.91,6.21Z"/>
            </g>
            <rect class="cls-2" x="75.53" y="64.62" width="3.68" height="22.07" transform="translate(-27.93 100.56) rotate(-57.66)"/>
            <rect class="cls-2" x="88.38" y="34.02" width="3.68" height="22.07" transform="translate(3.89 97.18) rotate(-57.66)"/>
          </g>
        </g>
        <path class="cls-2" d="m42.52,258.06c-.86-.32-21.36-8.11-42.37-28.57l2.57-2.64c20.46,19.92,40.89,27.68,41.09,27.75l-1.28,3.45Z"/>
        <path class="cls-2" d="m42.82,147.69c-1.04-.33-25.7-8.16-42.82-23.31l2.44-2.76c16.54,14.63,41.23,22.47,41.48,22.55l-1.1,3.51Z"/>
      </g>
    </g>
  </g>
</svg>