<?xml version="1.0" encoding="UTF-8"?> <svg xmlns="http://www.w3.org/2000/svg" xmlns:xlink="http://www.w3.org/1999/xlink" id="Layer_1" data-name="Layer 1" viewBox="0 0 143 28"><defs><linearGradient id="New_Gradient_Swatch" data-name="New Gradient Swatch" x1="20.55" y1="14.12" x2="38.7" y2="14.12" gradientUnits="userSpaceOnUse"><stop offset="0" stop-color="#a68130"></stop><stop offset="0.5" stop-color="#fdf39a"></stop><stop offset="1" stop-color="#a68130"></stop></linearGradient><linearGradient id="New_Gradient_Swatch-2" x1="16.83" y1="14.12" x2="42.45" y2="14.12" xlink:href="#New_Gradient_Swatch"></linearGradient><linearGradient id="New_Gradient_Swatch-3" x1="71.41" y1="6.04" x2="71.41" y2="22.26" xlink:href="#New_Gradient_Swatch"></linearGradient><linearGradient id="New_Gradient_Swatch-4" x1="84.7" y1="6.04" x2="84.7" y2="22.42" xlink:href="#New_Gradient_Swatch"></linearGradient><linearGradient id="New_Gradient_Swatch-5" x1="98.03" y1="6.01" x2="98.03" y2="22.26" xlink:href="#New_Gradient_Swatch"></linearGradient><linearGradient id="New_Gradient_Swatch-6" x1="110.32" y1="6.04" x2="110.32" y2="22.26" xlink:href="#New_Gradient_Swatch"></linearGradient><linearGradient id="New_Gradient_Swatch-7" x1="123.92" y1="5.8" x2="123.92" y2="22.26" xlink:href="#New_Gradient_Swatch"></linearGradient><linearGradient id="New_Gradient_Swatch-8" x1="137" y1="6.04" x2="137" y2="22.42" xlink:href="#New_Gradient_Swatch"></linearGradient></defs><g><g><path d="M38.7,14.12a9.08,9.08,0,1,1-9.07-9.07A9.07,9.07,0,0,1,38.7,14.12Z" style="fill: url(#New_Gradient_Swatch)"></path><path d="M29.64,1.31A12.81,12.81,0,1,0,42.45,14.12,12.81,12.81,0,0,0,29.64,1.31Zm0,24.84a12,12,0,1,1,12-12A12,12,0,0,1,29.64,26.15Z" style="fill: url(#New_Gradient_Swatch-2)"></path></g><g><path d="M30.83,2.54l-.16,1.75.17.18-.66-.06.21-.14.12-1.33a.57.57,0,0,1-.18,0,.26.26,0,0,1-.2-.13h0a.37.37,0,0,0,.19.09.31.31,0,0,0,.19,0V2.8a.43.43,0,0,1-.25.05.21.21,0,0,1-.12,0,.11.11,0,0,1-.05-.09c0-.05,0-.08.08-.08a.07.07,0,0,1,.06.07,0,0,0,0,1,0,0h0s0,0,0,0a.39.39,0,0,0,.2-.06.58.58,0,0,0,.17-.18Zm.07,0,0,0-.16,1.7.22.31-.77-.07,0,0,.72.07-.18-.25Z" style="fill: #fff"></path><path d="M33.41,3a.72.72,0,0,1,.4.37,1.14,1.14,0,0,1,0,.87,1.16,1.16,0,0,1-.42.6.66.66,0,0,1-.61.07.68.68,0,0,1-.44-.45,1.18,1.18,0,0,1,0-.78,1.07,1.07,0,0,1,.43-.6A.66.66,0,0,1,33.41,3Zm.37.2a.69.69,0,0,1,.22.45,1.27,1.27,0,0,1-.08.62,1.22,1.22,0,0,1-.55.74.78.78,0,0,1-.6,0A.89.89,0,0,1,32.53,5a1.25,1.25,0,0,1-.18-.24h0a.77.77,0,0,0,.4.34A.73.73,0,0,0,33.42,5a1.24,1.24,0,0,0,.46-.66,1.37,1.37,0,0,0,.09-.6.86.86,0,0,0-.19-.46Zm-.42-.07a.37.37,0,0,0-.4.09,1.48,1.48,0,0,0-.32.59c-.19.55-.13.88.18,1s.51-.12.7-.67a1.66,1.66,0,0,0,.12-.68A.4.4,0,0,0,33.36,3.17Zm.23.36a.36.36,0,0,0-.24-.24.27.27,0,0,0-.31.09,1.47,1.47,0,0,0-.28.54,1.43,1.43,0,0,0-.11.54.39.39,0,0,0,.14.32h0a.34.34,0,0,1-.16-.19,1.21,1.21,0,0,1,.1-.72A1.43,1.43,0,0,1,33,3.33a.33.33,0,0,1,.35-.08.36.36,0,0,1,.24.28Z" style="fill: #fff"></path><path d="M36.11,4.48l0,0L35.2,6l0,.37L34.6,5.9V5.85l.61.39,0-.3Zm0-.07-1,1.48.07.23-.55-.36.25,0,.73-1.12a.48.48,0,0,1-.18-.06.25.25,0,0,1-.11-.21h0a.25.25,0,0,0,.12.17.32.32,0,0,0,.18.06l.05-.08a.37.37,0,0,1-.24-.07.22.22,0,0,1-.09-.1.12.12,0,0,1,0-.1.06.06,0,0,1,.1,0,0,0,0,0,1,0,.08v0h0s0,0,0,.05a.36.36,0,0,0,.21,0,.5.5,0,0,0,.23-.09Z" style="fill: #fff"></path><path d="M38.35,6.39a.81.81,0,0,1,0,.51,1.41,1.41,0,0,1-.36.51,1.21,1.21,0,0,1-.83.4.78.78,0,0,1-.55-.25.75.75,0,0,1-.15-.23A.79.79,0,0,1,36.4,7h0a.8.8,0,0,0,.2.48.72.72,0,0,0,.62.24,1.2,1.2,0,0,0,.71-.37,1.54,1.54,0,0,0,.36-.49.85.85,0,0,0,0-.5Zm-.24-.34a.68.68,0,0,1,.18.52,1.14,1.14,0,0,1-.41.76,1.18,1.18,0,0,1-.65.34.72.72,0,0,1-.75-.83,1.12,1.12,0,0,1,.39-.67,1.17,1.17,0,0,1,.66-.34A.67.67,0,0,1,38.11,6.05ZM38,6.14A.38.38,0,0,0,37.61,6a1.56,1.56,0,0,0-.56.38c-.42.4-.52.72-.29,1s.51.13.93-.27a1.64,1.64,0,0,0,.42-.54A.41.41,0,0,0,38,6.14Zm0,.43a.34.34,0,0,0-.1-.32.27.27,0,0,0-.32-.07,1.45,1.45,0,0,0-.49.35,1.49,1.49,0,0,0-.35.43.38.38,0,0,0,0,.34h0a.31.31,0,0,1,0-.24,1.19,1.19,0,0,1,.42-.59,1.59,1.59,0,0,1,.51-.35.33.33,0,0,1,.35.09.38.38,0,0,1,.09.35Z" style="fill: #fff"></path><path d="M39.84,8.57v0l-1.49.85-.12.35-.39-.68,0-.05.36.63.1-.28Zm0-.08-1.54.87,0,.23L37.93,9l.23.09,1.16-.66a.53.53,0,0,1-.13-.13.28.28,0,0,1,0-.25h0a.36.36,0,0,0,0,.21.29.29,0,0,0,.14.13l.08,0a.37.37,0,0,1-.18-.17.17.17,0,0,1,0-.13A.11.11,0,0,1,39.28,8a.07.07,0,0,1,.1,0s0,.07,0,.09h0s0,0,0,.05a.3.3,0,0,0,.16.13.52.52,0,0,0,.25,0Z" style="fill: #fff"></path><path d="M40.94,11.31a.79.79,0,0,1-.25.44,1.37,1.37,0,0,1-.55.29,1.23,1.23,0,0,1-.92,0,.73.73,0,0,1-.37-.47.69.69,0,0,1,0-.28,1,1,0,0,1,.09-.28h0a.78.78,0,0,0,0,.52.72.72,0,0,0,.43.5,1.21,1.21,0,0,0,.8,0,1.41,1.41,0,0,0,.55-.27.77.77,0,0,0,.26-.42Zm-.06-.42a.64.64,0,0,1-.07.54,1.13,1.13,0,0,1-.72.49,1.09,1.09,0,0,1-.74,0,.63.63,0,0,1-.39-.46.66.66,0,0,1,.11-.62,1.21,1.21,0,0,1,.66-.41,1.19,1.19,0,0,1,.75,0A.66.66,0,0,1,40.88,10.89Zm-.13,0a.39.39,0,0,0-.3-.28,1.62,1.62,0,0,0-.67.08c-.56.16-.79.39-.7.71s.39.35,1,.19a1.48,1.48,0,0,0,.62-.29A.4.4,0,0,0,40.75,10.92Zm-.17.4a.36.36,0,0,0,.07-.33.28.28,0,0,0-.25-.21,1.44,1.44,0,0,0-.6.08,1.61,1.61,0,0,0-.52.22.36.36,0,0,0-.17.29h0a.33.33,0,0,1,.08-.24,1.22,1.22,0,0,1,.64-.33,1.5,1.5,0,0,1,.62-.07.32.32,0,0,1,.26.24.35.35,0,0,1-.09.36Z" style="fill: #fff"></path><path d="M41.25,13.93l0,0L39.52,14l-.28.25,0-.78,0,0,0,.72.22-.2Zm0-.08-1.76.06-.15.19,0-.65.16.18,1.34,0a.41.41,0,0,1-.05-.18.25.25,0,0,1,.11-.22v0a.26.26,0,0,0-.07.2.28.28,0,0,0,.06.18H41a.41.41,0,0,1-.08-.24.18.18,0,0,1,0-.13.08.08,0,0,1,.08-.05.06.06,0,0,1,.08.06s0,.07-.05.07h0s0,0,0,0a.28.28,0,0,0,.09.19.41.41,0,0,0,.2.14Z" style="fill: #fff"></path><path d="M41,16.86a.78.78,0,0,1-.43.28,1.61,1.61,0,0,1-.62,0,1.22,1.22,0,0,1-.8-.46.71.71,0,0,1-.11-.59.67.67,0,0,1,.1-.26,1,1,0,0,1,.21-.21v0a.76.76,0,0,0-.28.43.74.74,0,0,0,.15.65,1.24,1.24,0,0,0,.71.37,1.6,1.6,0,0,0,.61,0,.84.84,0,0,0,.43-.26Zm.14-.4a.7.7,0,0,1-.32.45,1.15,1.15,0,0,1-.86.1,1.11,1.11,0,0,1-.65-.35.65.65,0,0,1-.14-.59.71.71,0,0,1,.39-.5,1.39,1.39,0,0,1,1.43.3A.64.64,0,0,1,41.1,16.46Zm-.14,0a.35.35,0,0,0-.13-.38,1.59,1.59,0,0,0-.63-.25c-.57-.12-.88,0-1,.31s.19.49.76.6a1.51,1.51,0,0,0,.68,0A.38.38,0,0,0,41,16.43Zm-.32.27a.37.37,0,0,0,.21-.26.29.29,0,0,0-.13-.3,1.62,1.62,0,0,0-.57-.21,1.66,1.66,0,0,0-.56,0,.39.39,0,0,0-.29.18h0a.39.39,0,0,1,.18-.18,1.22,1.22,0,0,1,.72,0,1.42,1.42,0,0,1,.58.22.34.34,0,0,1,.13.34.36.36,0,0,1-.24.27Z" style="fill: #fff"></path><path d="M40,19.33l0,0-1.54-.74-.36.1.34-.7,0,0-.32.66.3-.08Zm0-.06-1.58-.77-.22.1.28-.59.06.25,1.2.58a.34.34,0,0,1,0-.18.26.26,0,0,1,.2-.15h0a.36.36,0,0,0-.15.15.41.41,0,0,0,0,.19l.09,0a.36.36,0,0,1,0-.25.21.21,0,0,1,.08-.1.12.12,0,0,1,.1,0c.05,0,.06.05,0,.1s0,.05-.08,0h0s0,0,0,0a.3.3,0,0,0,0,.21.65.65,0,0,0,.11.22Z" style="fill: #fff"></path><path d="M38.39,21.79a.71.71,0,0,1-.5.05,1.28,1.28,0,0,1-.55-.29,1.2,1.2,0,0,1-.5-.77A.76.76,0,0,1,37,20.2a.7.7,0,0,1,.21-.18.84.84,0,0,1,.28-.09v0a.73.73,0,0,0-.45.26.73.73,0,0,0-.17.64,1.35,1.35,0,0,0,.46.66,1.48,1.48,0,0,0,.53.29.78.78,0,0,0,.5,0Zm.31-.28a.67.67,0,0,1-.49.25,1.15,1.15,0,0,1-.8-.32,1.13,1.13,0,0,1-.42-.61.63.63,0,0,1,.15-.58.66.66,0,0,1,.58-.26,1.2,1.2,0,0,1,.71.31,1.1,1.1,0,0,1,.42.61A.66.66,0,0,1,38.7,21.51Zm-.1-.1a.37.37,0,0,0,.06-.4,1.54,1.54,0,0,0-.44-.5q-.67-.56-1-.18c-.19.23-.06.53.39.89a1.53,1.53,0,0,0,.59.35A.38.38,0,0,0,38.6,21.41Zm-.42.1a.37.37,0,0,0,.31-.14.28.28,0,0,0,0-.33,2.3,2.3,0,0,0-.88-.74.46.46,0,0,0-.35,0h0a.32.32,0,0,1,.24-.08,1.2,1.2,0,0,1,.64.34,1.59,1.59,0,0,1,.41.47.32.32,0,0,1,0,.35.34.34,0,0,1-.34.13Z" style="fill: #fff"></path><path d="M36.42,23.54h0l-1-1.38L35,22.09l.62-.46h0l-.57.43.29.07Zm.08,0-1-1.42h-.24l.52-.39-.06.24.8,1.07a.4.4,0,0,1,.11-.14.24.24,0,0,1,.24,0h0a.26.26,0,0,0-.21.06.27.27,0,0,0-.11.15l0,.07a.43.43,0,0,1,.15-.2.21.21,0,0,1,.12-.05.13.13,0,0,1,.1,0,.07.07,0,0,1,0,.1s-.07,0-.09,0v0h0s0,0,0,0a.34.34,0,0,0-.12.18.43.43,0,0,0,0,.25Z" style="fill: #fff"></path><path d="M33.85,25a.67.67,0,0,1-.47-.19,1.23,1.23,0,0,1-.36-.51,1.2,1.2,0,0,1-.08-.91.71.71,0,0,1,.42-.43.74.74,0,0,1,.27-.06.66.66,0,0,1,.29.05h0a.8.8,0,0,0-.51,0,.73.73,0,0,0-.45.49,1.3,1.3,0,0,0,.1.8,1.56,1.56,0,0,0,.34.51.78.78,0,0,0,.45.21Zm.4-.1a.7.7,0,0,1-.55,0,1.13,1.13,0,0,1-.57-.65,1.22,1.22,0,0,1-.09-.73.72.72,0,0,1,.41-.46.7.7,0,0,1,.63,0,1.2,1.2,0,0,1,.49.6,1.25,1.25,0,0,1,.09.74A.69.69,0,0,1,34.25,24.87Zm0-.13a.38.38,0,0,0,.24-.33,1.58,1.58,0,0,0-.16-.66c-.22-.53-.49-.73-.79-.61s-.29.44-.07,1a1.56,1.56,0,0,0,.36.58A.39.39,0,0,0,34.2,24.74Zm-.41-.12a.35.35,0,0,0,.33,0,.27.27,0,0,0,.18-.28,1.69,1.69,0,0,0-.15-.58,1.61,1.61,0,0,0-.29-.49.41.41,0,0,0-.31-.14h0a.34.34,0,0,1,.25.05c.13.06.26.26.4.59a1.43,1.43,0,0,1,.15.6.33.33,0,0,1-.21.3.36.36,0,0,1-.36,0Z" style="fill: #fff"></path><path d="M31.28,25.61h0L31,23.91l-.29-.24.77-.13,0,0-.71.11.23.2Zm.08,0-.28-1.74-.2-.13.64-.1-.16.18.21,1.32a.56.56,0,0,1,.16-.07.27.27,0,0,1,.24.08h0a.32.32,0,0,0-.21,0,.38.38,0,0,0-.17.08l0,.09a.36.36,0,0,1,.22-.11.32.32,0,0,1,.14,0,.16.16,0,0,1,.06.08.07.07,0,0,1-.06.09s-.06,0-.07-.05v0h0a.06.06,0,0,0-.05,0,.35.35,0,0,0-.18.11.51.51,0,0,0-.11.22Z" style="fill: #fff"></path><path d="M28.33,25.68A.69.69,0,0,1,28,25.3a1.36,1.36,0,0,1-.07-.62,1.2,1.2,0,0,1,.34-.85.76.76,0,0,1,.58-.18.71.71,0,0,1,.27.07.69.69,0,0,1,.23.18h0a.78.78,0,0,0-1.09,0,1.28,1.28,0,0,0-.28.76,1.39,1.39,0,0,0,.06.6.81.81,0,0,0,.3.4Zm.41.1a.68.68,0,0,1-.48-.26,1.12,1.12,0,0,1-.21-.85,1.14,1.14,0,0,1,.26-.68.67.67,0,0,1,.57-.22.69.69,0,0,1,.55.33,1.28,1.28,0,0,1,.15.76,1.11,1.11,0,0,1-.27.69A.65.65,0,0,1,28.74,25.78Zm0-.14a.37.37,0,0,0,.36-.18,1.49,1.49,0,0,0,.16-.65c0-.58-.09-.89-.42-.91s-.46.25-.51.82a1.64,1.64,0,0,0,.06.69A.39.39,0,0,0,28.76,25.64Zm-.32-.29a.36.36,0,0,0,.29.17.29.29,0,0,0,.29-.16,1.67,1.67,0,0,0,.13-.59,1.57,1.57,0,0,0,0-.56.4.4,0,0,0-.22-.27h0a.34.34,0,0,1,.19.15,1.15,1.15,0,0,1,.09.72,1.61,1.61,0,0,1-.15.6.3.3,0,0,1-.32.16.35.35,0,0,1-.3-.2Z" style="fill: #fff"></path><path d="M25.77,25.06l0,0,.55-1.62-.14-.35.73.25,0,.05-.68-.23.11.28Zm.06.05.56-1.66-.12-.21.62.2-.24.09-.42,1.27a.37.37,0,0,1,.18,0,.26.26,0,0,1,.17.18h0a.32.32,0,0,0-.17-.14.41.41,0,0,0-.19,0l0,.09a.46.46,0,0,1,.26,0,.18.18,0,0,1,.1.07.1.1,0,0,1,0,.1.07.07,0,0,1-.1.05.05.05,0,0,1,0-.07v0h0s0,0,0,0a.31.31,0,0,0-.21,0,.56.56,0,0,0-.2.14Z" style="fill: #fff"></path><path d="M23.12,23.76a.73.73,0,0,1-.11-.49,1.31,1.31,0,0,1,.22-.58,1.22,1.22,0,0,1,.7-.6.76.76,0,0,1,.6.11.72.72,0,0,1,.2.18,1,1,0,0,1,.13.28h0a.79.79,0,0,0-.31-.42.75.75,0,0,0-.66-.08,1.22,1.22,0,0,0-.59.53,1.45,1.45,0,0,0-.23.57.77.77,0,0,0,.08.49Zm.32.27a.66.66,0,0,1-.3-.45,1.09,1.09,0,0,1,.21-.84,1.13,1.13,0,0,1,.54-.49.67.67,0,0,1,.61.08.66.66,0,0,1,.33.54,1.17,1.17,0,0,1-.22.74,1.12,1.12,0,0,1-.56.49A.64.64,0,0,1,23.44,24Zm.08-.11a.36.36,0,0,0,.41,0,1.62,1.62,0,0,0,.44-.5c.31-.49.33-.83.05-1s-.52,0-.83.49a1.53,1.53,0,0,0-.27.63A.39.39,0,0,0,23.52,23.92Zm-.14-.4a.39.39,0,0,0,.17.29.29.29,0,0,0,.33,0,1.49,1.49,0,0,0,.39-.46,1.62,1.62,0,0,0,.24-.51.41.41,0,0,0-.07-.33v0a.38.38,0,0,1,.1.23,1.23,1.23,0,0,1-.26.68,1.48,1.48,0,0,1-.41.46.33.33,0,0,1-.36,0,.36.36,0,0,1-.17-.32Z" style="fill: #fff"></path><path d="M21.14,22v0l1.23-1.19,0-.37.53.56V21l-.5-.52,0,.3Zm0,.08,1.27-1.22v-.25l.45.48-.25,0-1,.92a.54.54,0,0,1,.16.1.24.24,0,0,1,.06.23h0a.26.26,0,0,0-.08-.19.39.39,0,0,0-.16-.1l-.07.07a.35.35,0,0,1,.22.12.17.17,0,0,1,.06.12.09.09,0,0,1,0,.09s-.08,0-.11,0a.06.06,0,0,1,0-.09h0s0,0,0,0a.33.33,0,0,0-.19-.08.5.5,0,0,0-.24,0Z" style="fill: #fff"></path><path d="M19.39,19.64a.82.82,0,0,1,.13-.49,1.48,1.48,0,0,1,.47-.41,1.17,1.17,0,0,1,.89-.2.74.74,0,0,1,.48.37.56.56,0,0,1,.1.26,1,1,0,0,1,0,.29h0a.74.74,0,0,0-.09-.51.7.7,0,0,0-.54-.38,1.17,1.17,0,0,0-.78.2,1.41,1.41,0,0,0-.46.39.81.81,0,0,0-.15.48Zm.16.39a.64.64,0,0,1-.06-.54,1.35,1.35,0,0,1,1.29-.83.66.66,0,0,1,.5.35.67.67,0,0,1,0,.63,1.2,1.2,0,0,1-.54.56,1.12,1.12,0,0,1-.72.18A.65.65,0,0,1,19.55,20Zm.12-.06a.36.36,0,0,0,.36.19,1.39,1.39,0,0,0,.63-.24c.5-.29.67-.57.51-.86s-.47-.23-1,.05a1.53,1.53,0,0,0-.54.44A.42.42,0,0,0,19.67,20Zm.06-.43a.4.4,0,0,0,0,.34.29.29,0,0,0,.3.14,1.46,1.46,0,0,0,.56-.23,1.42,1.42,0,0,0,.44-.34.39.39,0,0,0,.1-.33h0a.31.31,0,0,1,0,.25,1.18,1.18,0,0,1-.54.48,1.58,1.58,0,0,1-.58.23.33.33,0,0,1-.32-.18.38.38,0,0,1,0-.36Z" style="fill: #fff"></path><path d="M18.44,17.26l1.69-.49.1-.22.18.63L20.2,17l-1.28.37a.29.29,0,0,1,.09.16.23.23,0,0,1-.05.24h0a.34.34,0,0,0,0-.22.34.34,0,0,0-.1-.16l-.09,0a.46.46,0,0,1,.14.21.28.28,0,0,1,0,.13.11.11,0,0,1-.07.08.08.08,0,0,1-.1-.05s0-.07,0-.08h0s0,0,0,0a.41.41,0,0,0-.13-.17.63.63,0,0,0-.23-.08Zm0-.08v0l1.64-.48.21-.31.21.74,0,.05-.2-.7-.16.26Z" style="fill: #fff"></path><path d="M18,14.69a.65.65,0,0,1,.2-.51,1.11,1.11,0,0,1,.81-.31,1.09,1.09,0,0,1,.71.17.67.67,0,0,1,.29.54.69.69,0,0,1-.26.58,1.18,1.18,0,0,1-.73.24,1.12,1.12,0,0,1-.73-.17A.67.67,0,0,1,18,14.69Zm0-.42a.72.72,0,0,1,.34-.37,1.28,1.28,0,0,1,.61-.16,1.25,1.25,0,0,1,.88.24.78.78,0,0,1,.26.55.79.79,0,0,1,0,.28,1.17,1.17,0,0,1-.15.25h0a.78.78,0,0,0,.16-.49.71.71,0,0,0-.3-.59,1.22,1.22,0,0,0-.78-.19,1.43,1.43,0,0,0-.6.14.79.79,0,0,0-.35.35Zm.1.42a.35.35,0,0,0,.22.33,1.38,1.38,0,0,0,.67.08c.58,0,.87-.2.85-.52s-.31-.43-.88-.41a1.56,1.56,0,0,0-.67.14A.37.37,0,0,0,18.1,14.69Zm.25-.35a.36.36,0,0,0-.14.3.29.29,0,0,0,.2.27A1.59,1.59,0,0,0,19,15a1.74,1.74,0,0,0,.55-.1.39.39,0,0,0,.24-.25h0a.39.39,0,0,1-.13.22A1.25,1.25,0,0,1,19,15a1.45,1.45,0,0,1-.62-.07.31.31,0,0,1-.2-.3.35.35,0,0,1,.16-.32Z" style="fill: #fff"></path><path d="M18.25,11.72l1.73.34.19-.15-.13.64-.11-.22-1.31-.26a.55.55,0,0,1,0,.18.24.24,0,0,1-.16.19h0a.3.3,0,0,0,.1-.37l-.09,0a.52.52,0,0,1,0,.25.23.23,0,0,1-.06.12.1.1,0,0,1-.1,0c-.05,0-.07,0-.06-.08a.05.05,0,0,1,.07,0h0s0,0,0,0a.34.34,0,0,0,0-.21.55.55,0,0,0-.16-.18Zm.05-.07,0,0L20,12l.33-.19-.16.76,0,0,.14-.71L20,12Z" style="fill: #fff"></path><path d="M19,9.21a.66.66,0,0,1,.42-.36,1.13,1.13,0,0,1,.86.1,1.15,1.15,0,0,1,.55.48.72.72,0,0,1-.49,1,1.16,1.16,0,0,1-.77-.13A1.14,1.14,0,0,1,19,9.82.69.69,0,0,1,19,9.21Zm.13.06a.35.35,0,0,0,0,.4,1.44,1.44,0,0,0,.55.39c.53.24.86.22,1-.08s-.07-.52-.59-.77A1.55,1.55,0,0,0,19.49,9,.36.36,0,0,0,19.15,9.27Zm.38-.19a.37.37,0,0,0-.26.21.26.26,0,0,0,.05.32,1.71,1.71,0,0,0,.51.33,1.39,1.39,0,0,0,.53.17.38.38,0,0,0,.33-.11h0a.32.32,0,0,1-.21.13,1.17,1.17,0,0,1-.7-.17,1.48,1.48,0,0,1-.52-.35.32.32,0,0,1,0-.36.37.37,0,0,1,.3-.21Zm-.27-.22a.73.73,0,0,1,.47-.18,1.47,1.47,0,0,1,.61.15,1.18,1.18,0,0,1,.67.62.73.73,0,0,1,0,.61.63.63,0,0,1-.16.22.83.83,0,0,1-.25.16v0a.76.76,0,0,0,.37-.36.7.7,0,0,0,0-.66,1.19,1.19,0,0,0-.61-.52,1.27,1.27,0,0,0-.58-.16.8.8,0,0,0-.48.14Z" style="fill: #fff"></path><path d="M20.67,6.71,22,7.82l.24-.05-.41.51V8l-1-.84a.44.44,0,0,1-.07.17.29.29,0,0,1-.23.1h0a.33.33,0,0,0,.18-.11.3.3,0,0,0,.08-.18l-.08-.06a.36.36,0,0,1-.09.24.28.28,0,0,1-.11.08.12.12,0,0,1-.1,0s0-.06,0-.1a0,0,0,0,1,.08,0l0,0h0s0,0,.05,0a.32.32,0,0,0,.06-.2.53.53,0,0,0-.06-.24Zm.07,0,0,0,1.33,1.08h.37l-.49.6h0l.45-.56h-.3Z" style="fill: #fff"></path><path d="M22.51,4.85A.66.66,0,0,1,23,4.72a1.14,1.14,0,0,1,.72.49,1.08,1.08,0,0,1,.26.68.64.64,0,0,1-.28.54.63.63,0,0,1-.62.12,1.15,1.15,0,0,1-.62-.46,1.14,1.14,0,0,1-.27-.69A.67.67,0,0,1,22.51,4.85Zm.08.11a.36.36,0,0,0-.15.38,1.46,1.46,0,0,0,.31.59c.36.47.66.6.92.4s.18-.5-.17-1A1.48,1.48,0,0,0,23,4.9.39.39,0,0,0,22.59,5ZM23,5a.36.36,0,0,0-.32.06.29.29,0,0,0-.11.31,1.47,1.47,0,0,0,.3.53,1.86,1.86,0,0,0,.39.4.39.39,0,0,0,.34.05v0a.35.35,0,0,1-.25,0q-.21,0-.54-.48a1.31,1.31,0,0,1-.29-.54A.31.31,0,0,1,22.67,5,.34.34,0,0,1,23,5Zm-.14-.33a.84.84,0,0,1,.51.07,1.36,1.36,0,0,1,.47.41,1.21,1.21,0,0,1,.31.87.77.77,0,0,1-.31.52.68.68,0,0,1-.24.12.71.71,0,0,1-.3,0h0a.76.76,0,0,0,.5-.15.73.73,0,0,0,.31-.59,1.24,1.24,0,0,0-.3-.74,1.31,1.31,0,0,0-.45-.41.82.82,0,0,0-.49-.09Z" style="fill: #fff"></path><path d="M25.11,3.4,25.81,5l.24.07-.6.26.11-.22L25,3.89a.39.39,0,0,1-.14.12.28.28,0,0,1-.25,0h0a.28.28,0,0,0,.22,0A.24.24,0,0,0,25,3.85l0-.08a.34.34,0,0,1-.19.16.2.2,0,0,1-.13,0,.12.12,0,0,1-.08-.06c0-.05,0-.08,0-.1s.06,0,.08,0v0h0s0,0,0,0a.36.36,0,0,0,.15-.15A.53.53,0,0,0,25,3.47Zm.09,0h0L25.92,5l.34.17-.71.31-.05,0,.66-.29L25.89,5Z" style="fill: #fff"></path><path d="M27.62,2.6a.64.64,0,0,1,.53.13,1.13,1.13,0,0,1,.41.77,1.09,1.09,0,0,1-.09.73.63.63,0,0,1-.49.34.68.68,0,0,1-.61-.18,1.19,1.19,0,0,1-.34-.7A1.12,1.12,0,0,1,27.12,3,.64.64,0,0,1,27.62,2.6Zm0,.14a.35.35,0,0,0-.31.26,1.47,1.47,0,0,0,0,.67q.15.87.63.78c.29,0,.39-.36.29-.93A1.42,1.42,0,0,0,28,2.87.37.37,0,0,0,27.64,2.74Zm.37.2a.35.35,0,0,0-.32-.1.28.28,0,0,0-.23.23,1.51,1.51,0,0,0,0,.6,1.63,1.63,0,0,0,.17.54.39.39,0,0,0,.27.21h0a.36.36,0,0,1-.23-.1,1.23,1.23,0,0,1-.25-.67,1.43,1.43,0,0,1,0-.62.31.31,0,0,1,.27-.24.37.37,0,0,1,.34.12Zm0-.35a.73.73,0,0,1,.41.29,1.33,1.33,0,0,1,.23.58,1.24,1.24,0,0,1-.13.91.74.74,0,0,1-.52.32.61.61,0,0,1-.27,0,1,1,0,0,1-.27-.12h0a.85.85,0,0,0,.51.1.73.73,0,0,0,.54-.38,1.21,1.21,0,0,0,.09-.8,1.41,1.41,0,0,0-.21-.57A.85.85,0,0,0,28,2.6Z" style="fill: #fff"></path></g><g><path d="M29.22,21a.53.53,0,0,0,.48.31.51.51,0,1,0,0-1,.51.51,0,0,0-.45.28,6.49,6.49,0,0,1-6.09-6.4,7,7,0,0,1,0-.79h.94a5.57,5.57,0,0,0,1.25,4.31.53.53,0,0,0,.11.56.52.52,0,0,0,.73,0,.51.51,0,0,0,0-.72.53.53,0,0,0-.52-.13A5.17,5.17,0,0,1,24.63,13H23.26a6.47,6.47,0,0,1,12.82.64.51.51,0,0,0-.27.46.5.5,0,0,0,.51.5.51.51,0,0,0,.51-.51.49.49,0,0,0-.32-.47,6.82,6.82,0,0,0-.33-1.64h1.39a8.16,8.16,0,0,0-1.79-3.27.51.51,0,0,0-.11-.56.52.52,0,0,0-.73,0,.51.51,0,0,0,0,.72.53.53,0,0,0,.53.13A7.72,7.72,0,0,1,37,11.5H36a6.91,6.91,0,1,0-6.8,9.5Z" style="fill: #010101"></path><path d="M34.17,16.53a4.6,4.6,0,0,1-.59.87.53.53,0,0,0-.52.13.51.51,0,0,0,0,.72.52.52,0,0,0,.73,0,.53.53,0,0,0,.11-.56,5.74,5.74,0,0,0,.75-1.16Z" style="fill: #010101"></path><path d="M37.67,12.35h-.44A7.81,7.81,0,1,1,23.79,9a.51.51,0,1,0-.2-.85.5.5,0,0,0-.11.55,8.24,8.24,0,1,0,14.19,3.7Z" style="fill: #010101"></path><path d="M28.15,13.81a1.55,1.55,0,0,0,3,.8.5.5,0,0,0,.38-.49.52.52,0,0,0-1,0,.54.54,0,0,0,.22.42,1.12,1.12,0,0,1-2.17-.42,1.06,1.06,0,0,1,.05-.31Z" style="fill: #010101"></path><path d="M34.83,16.1A5.57,5.57,0,1,0,24.3,12.52h.45a5.08,5.08,0,0,1,1.26-2,5.14,5.14,0,0,1,8.52,5.2h-1a4.11,4.11,0,0,0,.28-1.11.52.52,0,0,0,.33-.48.51.51,0,1,0-1,0,.52.52,0,0,0,.27.45,3.8,3.8,0,1,1-4.22-4.22.49.49,0,0,0,.44.27.52.52,0,1,0-.47-.7,4.23,4.23,0,1,0,4.19,6.22h1.48Z" style="fill: #010101"></path><path d="M29.68,17.28a.52.52,0,0,0,.49-.34,2.89,2.89,0,1,0-3.33-3.33.51.51,0,0,0-.34.48.51.51,0,1,0,1,0,.51.51,0,0,0-.26-.44,2.68,2.68,0,0,1,.07-.27h1.49a1.28,1.28,0,0,1,.43-.3.51.51,0,0,0,.42.21.51.51,0,0,0,.51-.51.51.51,0,0,0-1-.13,1.68,1.68,0,0,0-.52.3H27.51a2.46,2.46,0,1,1,2.62,3.56.53.53,0,0,0-.45-.25.51.51,0,0,0,0,1Z" style="fill: #010101"></path></g></g><g><path d="M2.32,8.36A7.82,7.82,0,0,1,7.94,5.94a7.59,7.59,0,0,1,7.56,6H13.18A5.28,5.28,0,0,0,7.94,8.26,5.54,5.54,0,0,0,4,10a6,6,0,0,0-1.68,4.18A5.89,5.89,0,0,0,4,18.31a5.5,5.5,0,0,0,4,1.74,5.52,5.52,0,0,0,5.38-3.87h2.3a7.84,7.84,0,0,1-7.68,6.2A7.74,7.74,0,0,1,2.32,20a8.41,8.41,0,0,1,0-11.6Z" style="fill: #fff"></path><path d="M50.82,8.36h-3V19.92h3v2.34H42.44V19.92h3V8.36h-3V6h8.38Z" style="fill: #fff"></path><path d="M52.08,22.26V6l1.81,0,7.92,11.44V6h2.32V22.26H62.27L54.43,10.91V22.26Z" style="fill: #fff"></path><path d="M72.14,6a4.06,4.06,0,0,1,4,2.66,3.71,3.71,0,0,1-1.18,4.62,4.22,4.22,0,0,1,2.53,4,4.66,4.66,0,0,1-4.72,4.9H65.39V6Zm-4.43,6.45H72.1c2.55,0,2.6-4.23,0-4.23H67.71Zm0,7.49h5a2.41,2.41,0,0,0,2.37-2.59,2.4,2.4,0,0,0-2.37-2.58h-5Z" style="fill: url(#New_Gradient_Swatch-3)"></path><path d="M78.7,17.39V6h2.37V17.41c0,1.79,1.92,2.67,3.64,2.67s3.62-.91,3.62-2.69V6H90.7V17.41c0,3.29-3.2,5-6,5S78.7,20.7,78.7,17.39Z" style="fill: url(#New_Gradient_Swatch-4)"></path><path d="M95.14,14h2.74a2.82,2.82,0,1,0,0-5.64h-3.6V22.26H92V6h5.92a5,5,0,0,1,5.29,5.18,4.89,4.89,0,0,1-4.2,5l5.13,6.1h-3l-5.92-7.13Z" style="fill: url(#New_Gradient_Swatch-5)"></path><path d="M107.73,19.92h7.54v2.34h-9.91V6h9.89V8.38h-7.52V13h7.36v2.37h-7.36Z" style="fill: url(#New_Gradient_Swatch-6)"></path><path d="M126.84,17.48H121c-.63,1.48-1.44,3.43-2,4.78h-2.53L123.06,5.8h1.72l6.52,16.46h-2.51Zm-4.94-2.21h4l-2-5.73Z" style="fill: url(#New_Gradient_Swatch-7)"></path><path d="M131,17.39V6h2.37V17.41c0,1.79,1.92,2.67,3.64,2.67s3.62-.91,3.62-2.69V6H143V17.41c0,3.29-3.2,5-6,5S131,20.7,131,17.39Z" style="fill: url(#New_Gradient_Swatch-8)"></path><rect x="67.71" y="3.5" width="2.03" height="2.54" style="fill: #a68130"></rect><rect x="70.48" y="3.52" width="2.03" height="2.54" style="fill: #a68130"></rect><rect x="68.08" y="22.05" width="2.03" height="2.54" style="fill: #a68130"></rect><rect x="70.86" y="22.08" width="2.03" height="2.54" style="fill: #a68130"></rect></g></svg> 