<?xml version="1.0" encoding="UTF-8"?><svg id="Camada_2" xmlns="http://www.w3.org/2000/svg" xmlns:xlink="http://www.w3.org/1999/xlink" viewBox="0 0 153.77 140.33"><defs><style>.cls-1{fill:url(#Gradiente_sem_nome_18-2);}.cls-2{fill:url(#Gradiente_sem_nome_18);}.cls-3{fill:url(#Gradiente_sem_nome_18-3);}</style><linearGradient id="Gradiente_sem_nome_18" x1="125.48" y1="-55.65" x2="-4.36" y2="33.46" gradientTransform="translate(19.36 117.89)" gradientUnits="userSpaceOnUse"><stop offset="0" stop-color="#efebe0"/><stop offset=".64" stop-color="#3b444b"/></linearGradient><linearGradient id="Gradiente_sem_nome_18-2" x1="34.23" y1="34.15" x2="-2.43" y2="-91.61" xlink:href="#Gradiente_sem_nome_18"/><linearGradient id="Gradiente_sem_nome_18-3" x1="-41.09" y1="-64.41" x2="106.57" y2="-101.58" xlink:href="#Gradiente_sem_nome_18"/></defs><g id="Layer_1"><g><path class="cls-2" d="m47.42,119c-7.28-.4-13.18-2.89-17.43-5.39l17.24,17.24c6.12,6.12,14.26,9.48,22.93,9.48,8.67,0,16.81-3.37,22.93-9.48l60.68-60.68-28.35-28.35-20.16,20.16,8.19,8.19-40.52,40.52c-.08.08-.17.14-.25.21-.03.03-.05.06-.08.09-8.51,8.94-22.36,8.17-25.17,8.01Z"/><path class="cls-1" d="m9.48,93.09l20.51,20.51c4.24,2.51,10.15,4.99,17.43,5.39,2.81.16,16.66.92,25.17-8.01.03-.03.05-.06.08-.09-.7.59-1.58.93-2.51.93-1.05,0-2.03-.4-2.76-1.14l-37.75-37.75c-.26-.26-.45-.54-.62-.84-8.59-8.53-7.85-22.07-7.69-24.85.39-7.01,2.71-12.76,5.12-16.97l-16.96,16.96c-12.64,12.64-12.64,33.21,0,45.86Z"/><path class="cls-3" d="m29.02,72.08c-.84-1.49-.65-3.42.62-4.68l37.75-37.75c.74-.74,1.72-1.14,2.76-1.14s2.03.41,2.76,1.14l5.42,5.42,20.16-20.16-5.42-5.42C86.98,3.37,78.83,0,70.16,0c-8.67,0-16.81,3.37-22.93,9.48l-20.79,20.79c-2.41,4.21-4.73,9.96-5.12,16.97-.15,2.77-.9,16.31,7.69,24.85Z"/></g></g></svg>