<?xml version="1.0" encoding="UTF-8"?>
<svg id="Camada_2" data-name="Camada 2" xmlns="http://www.w3.org/2000/svg" viewBox="0 0 204.71 319.15">
  <defs>
    <style>
      .cls-1 {
        fill: #fff;
      }

      .cls-2 {
        fill: #282828;
      }

      .cls-3 {
        fill: #ec9b3c;
      }
    </style>
  </defs>
  <g id="Modo_de_isolamento" data-name="Modo de isolamento">
    <g id="_4" data-name="4">
      <g>
        <path class="cls-2" d="m7.78,272.63l-2.91,1.68c-.3.17-.82.15-1.16-.05l-2.75-1.58c-.34-.2-.38-.5-.08-.67l2.91-1.68c.3-.17.82-.15,1.16.05l2.75,1.59c.34.2.38.5.08.67Z"/>
        <path class="cls-2" d="m7.11,287.52l-2.91,1.68c-.3.17-.82.15-1.16-.05l-2.75-1.58c-.34-.2-.38-.5-.08-.67l2.91-1.68c.3-.17.82-.15,1.16.05l2.75,1.59c.34.2.38.5.08.67Z"/>
        <path class="cls-2" d="m20.33,279.88l-2.91,1.68c-.3.17-.82.15-1.17-.05l-2.75-1.59c-.34-.2-.38-.5-.08-.67l2.91-1.68c.3-.17.82-.15,1.17.05l2.75,1.59c.35.2.38.5.08.67Z"/>
        <path class="cls-2" d="m20.39,295.18l-2.91,1.68c-.3.17-.82.15-1.16-.05l-2.75-1.59c-.35-.2-.38-.5-.08-.67l2.91-1.68c.3-.17.82-.15,1.17.05l2.75,1.58c.34.2.38.5.08.67Z"/>
        <path class="cls-2" d="m33.62,287.55l-2.91,1.68c-.3.17-.82.15-1.16-.05l-2.75-1.58c-.34-.2-.38-.5-.08-.67l2.91-1.68c.3-.17.82-.15,1.16.05l2.75,1.59c.34.2.38.5.08.67Z"/>
        <path class="cls-2" d="m32.94,302.43l-2.91,1.68c-.3.17-.82.15-1.16-.05l-2.75-1.58c-.34-.2-.38-.5-.08-.67l2.91-1.68c.3-.17.82-.15,1.16.05l2.75,1.59c.35.2.38.5.08.67Z"/>
        <path class="cls-2" d="m46.17,294.8l-2.91,1.68c-.3.17-.82.15-1.17-.05l-2.75-1.59c-.34-.2-.38-.5-.08-.67l2.91-1.68c.3-.17.82-.15,1.17.05l2.75,1.59c.35.2.38.5.08.67Z"/>
        <path class="cls-2" d="m151.66,231.78l-2.91,1.68c-.3.17-.82.15-1.17-.05l-2.75-1.59c-.34-.2-.38-.5-.08-.67l2.91-1.68c.3-.17.82-.15,1.17.05l2.75,1.58c.35.2.38.5.08.67Z"/>
        <path class="cls-2" d="m164.89,224.14l-2.91,1.68c-.3.17-.82.15-1.16-.05l-2.75-1.58c-.35-.2-.38-.5-.08-.67l2.91-1.68c.3-.17.82-.15,1.17.05l2.75,1.59c.34.2.38.5.08.67Z"/>
        <path class="cls-2" d="m178.11,216.51l-2.91,1.68c-.3.17-.82.15-1.16-.05l-2.75-1.59c-.34-.2-.38-.5-.08-.67l2.91-1.68c.3-.17.82-.15,1.16.05l2.75,1.58c.34.2.38.5.08.67Z"/>
        <path class="cls-2" d="m45.5,309.68l-2.91,1.68c-.3.17-.82.15-1.17-.05l-2.75-1.58c-.35-.2-.38-.5-.08-.67l2.91-1.68c.3-.17.82-.15,1.17.05l2.75,1.59c.34.2.38.5.08.67Z"/>
        <path class="cls-2" d="m58.72,302.04l-2.91,1.68c-.3.17-.82.15-1.16-.05l-2.75-1.59c-.35-.2-.38-.5-.08-.67l2.91-1.68c.3-.17.82-.15,1.16.05l2.75,1.58c.34.2.38.5.08.67Z"/>
        <path class="cls-2" d="m150.99,246.66l-2.91,1.68c-.3.17-.82.15-1.17-.05l-2.75-1.59c-.35-.2-.38-.5-.08-.67l2.91-1.68c.3-.17.82-.15,1.17.05l2.75,1.58c.34.2.38.5.08.67Z"/>
        <path class="cls-2" d="m164.21,239.03l-2.91,1.68c-.3.17-.82.15-1.16-.05l-2.75-1.58c-.35-.2-.38-.5-.08-.67l2.91-1.68c.3-.17.82-.15,1.16.05l2.75,1.59c.34.2.38.5.08.67Z"/>
        <path class="cls-2" d="m177.44,231.39l-2.91,1.68c-.3.17-.82.15-1.16-.05l-2.75-1.59c-.34-.2-.38-.5-.08-.67l2.91-1.68c.3-.17.82-.15,1.16.05l2.75,1.58c.35.2.38.5.08.67Z"/>
        <path class="cls-2" d="m190.66,223.76l-2.91,1.68c-.3.17-.82.15-1.17-.05l-2.75-1.58c-.34-.2-.38-.5-.08-.67l2.91-1.68c.3-.17.82-.15,1.17.05l2.75,1.59c.35.2.38.5.08.67Z"/>
        <path class="cls-2" d="m58.78,317.35l-2.91,1.68c-.3.17-.82.15-1.17-.05l-2.75-1.59c-.34-.2-.38-.5-.08-.67l2.91-1.68c.3-.17.82-.15,1.16.05l2.75,1.58c.35.2.38.5.08.67Z"/>
        <path class="cls-2" d="m72.01,309.71l-2.91,1.68c-.3.17-.82.15-1.17-.05l-2.75-1.58c-.35-.2-.38-.5-.08-.67l2.91-1.68c.3-.17.82-.15,1.17.05l2.75,1.59c.35.2.38.5.08.67Z"/>
        <path class="cls-2" d="m85.23,302.08l-2.91,1.68c-.3.17-.82.15-1.16-.05l-2.75-1.59c-.35-.2-.38-.5-.08-.67l2.91-1.68c.3-.17.82-.15,1.17.05l2.75,1.58c.34.2.38.5.08.67Z"/>
        <path class="cls-2" d="m98.46,294.44l-2.91,1.68c-.3.17-.82.15-1.16-.05l-2.75-1.58c-.34-.2-.38-.5-.08-.67l2.91-1.68c.3-.17.82-.15,1.16.05l2.75,1.59c.34.2.38.5.08.67Z"/>
        <path class="cls-2" d="m111.68,286.81l-2.91,1.68c-.3.17-.82.15-1.17-.05l-2.75-1.59c-.34-.2-.38-.5-.08-.67l2.91-1.68c.3-.17.82-.15,1.17.05l2.75,1.58c.35.2.38.5.08.67Z"/>
        <path class="cls-2" d="m124.91,279.17l-2.91,1.68c-.3.17-.82.15-1.17-.05l-2.75-1.58c-.35-.2-.38-.5-.08-.67l2.91-1.68c.3-.17.82-.15,1.17.05l2.75,1.59c.34.2.38.5.08.67Z"/>
        <path class="cls-2" d="m138.13,271.53l-2.91,1.68c-.3.17-.82.15-1.16-.05l-2.75-1.59c-.35-.2-.38-.5-.08-.67l2.91-1.68c.3-.17.82-.15,1.16.05l2.75,1.58c.34.2.38.5.08.67Z"/>
        <path class="cls-2" d="m84.56,316.96l-2.91,1.68c-.3.17-.82.15-1.16-.05l-2.75-1.59c-.35-.2-.38-.5-.08-.67l2.91-1.68c.3-.17.82-.15,1.16.05l2.75,1.58c.34.2.38.5.08.67Z"/>
        <path class="cls-2" d="m97.78,309.32l-2.91,1.68c-.3.17-.82.15-1.17-.05l-2.75-1.58c-.34-.2-.38-.5-.08-.67l2.91-1.68c.3-.17.82-.15,1.16.05l2.75,1.59c.35.2.38.5.08.67Z"/>
        <path class="cls-2" d="m111.01,301.69l-2.91,1.68c-.3.17-.82.15-1.17-.05l-2.75-1.59c-.35-.2-.38-.5-.08-.67l2.91-1.68c.3-.17.82-.15,1.17.05l2.75,1.58c.35.2.38.5.08.67Z"/>
        <path class="cls-2" d="m124.23,294.05l-2.91,1.68c-.3.17-.82.15-1.16-.05l-2.75-1.58c-.35-.2-.38-.5-.08-.67l2.91-1.68c.3-.17.82-.15,1.17.05l2.75,1.59c.34.2.38.5.08.67Z"/>
        <path class="cls-2" d="m137.46,286.42l-2.91,1.68c-.3.17-.82.15-1.16-.05l-2.75-1.59c-.34-.2-.38-.5-.08-.67l2.91-1.68c.3-.17.82-.15,1.16.05l2.75,1.58c.34.2.38.5.08.67Z"/>
        <path class="cls-2" d="m204.5,201.27l-2.91,1.68c-.3.17-.82.15-1.17-.05l-2.75-1.58c-.34-.2-.38-.5-.08-.67l2.91-1.68c.3-.17.82-.15,1.16.05l2.75,1.59c.35.2.38.5.08.67Z"/>
        <path class="cls-2" d="m191.28,208.91l-2.91,1.68c-.3.17-.82.15-1.16-.05l-2.75-1.59c-.34-.2-.38-.5-.08-.67l2.91-1.68c.3-.17.82-.15,1.16.05l2.75,1.58c.34.2.38.5.08.67Z"/>
        <path class="cls-2" d="m203.83,216.15l-2.91,1.68c-.3.17-.82.15-1.17-.05l-2.75-1.59c-.34-.2-.38-.5-.08-.67l2.91-1.68c.3-.17.82-.15,1.17.05l2.75,1.58c.35.2.38.5.08.67Z"/>
      </g>
      <g>
        <g>
          <g>
            <g>
              <polygon class="cls-1" points="129.31 227.03 198.31 187.2 115.52 139.4 46.52 179.23 129.31 227.03"/>
              <path class="cls-2" d="m129.31,228.51l-.64-.37-84.71-48.91,71.56-41.31.64.37,84.72,48.91-71.56,41.31Zm-80.22-49.28l80.22,46.32,66.43-38.35-80.22-46.32-66.42,38.35Z"/>
            </g>
            <g>
              <polygon class="cls-1" points="129.31 213.27 198.31 173.44 115.52 125.64 46.52 165.47 129.31 213.27"/>
              <path class="cls-2" d="m129.31,214.75l-.64-.37-84.71-48.91,71.56-41.31.64.37,84.72,48.91-71.56,41.31Zm-80.22-49.28l80.22,46.32,66.43-38.35-80.22-46.32-66.42,38.35Z"/>
            </g>
            <g>
              <polygon class="cls-1" points="129.31 199.51 198.31 159.68 115.52 111.88 46.52 151.71 129.31 199.51"/>
              <path class="cls-2" d="m129.31,200.99l-.64-.37-84.71-48.91,71.56-41.31.64.37,84.72,48.91-71.56,41.31Zm-80.22-49.28l80.22,46.32,66.43-38.35-80.22-46.32-66.42,38.35Z"/>
            </g>
            <g>
              <polygon class="cls-1" points="129.31 185.75 198.31 145.92 115.52 98.12 46.52 137.95 129.31 185.75"/>
              <path class="cls-2" d="m129.31,187.23l-.64-.37-84.71-48.91,71.56-41.31.64.37,84.72,48.91-71.56,41.31Zm-80.22-49.28l80.22,46.32,66.43-38.35-80.22-46.32-66.42,38.35Z"/>
            </g>
            <g>
              <polygon class="cls-1" points="129.31 171.99 198.31 132.16 115.52 84.36 46.52 124.19 129.31 171.99"/>
              <path class="cls-2" d="m129.31,173.47l-.64-.37-84.71-48.91,71.56-41.31.64.37,84.72,48.91-71.56,41.31Zm-80.22-49.28l80.22,46.32,66.43-38.35-80.22-46.32-66.42,38.35Z"/>
            </g>
            <g>
              <polygon class="cls-1" points="129.31 171.99 198.31 132.16 115.52 84.36 46.52 124.19 129.31 171.99"/>
              <path class="cls-2" d="m129.31,173.47l-.64-.37-84.71-48.91,71.56-41.31.64.37,84.72,48.91-71.56,41.31Zm-80.22-49.28l80.22,46.32,66.43-38.35-80.22-46.32-66.42,38.35Z"/>
            </g>
            <g>
              <polygon class="cls-1" points="129.31 158.23 198.31 118.4 115.52 70.6 46.52 110.43 129.31 158.23"/>
              <path class="cls-2" d="m129.31,159.71l-.64-.37-84.71-48.91,71.56-41.31.64.37,84.72,48.91-71.56,41.31Zm-80.22-49.28l80.22,46.32,66.43-38.35-80.22-46.32-66.42,38.35Z"/>
            </g>
            <g>
              <polygon class="cls-1" points="129.31 144.47 198.31 104.64 115.52 56.84 46.52 96.67 129.31 144.47"/>
              <path class="cls-2" d="m129.31,145.95l-.64-.37-84.71-48.91,71.56-41.31.64.37,84.72,48.91-71.56,41.31Zm-80.22-49.28l80.22,46.32,66.43-38.35-80.22-46.32-66.42,38.35Z"/>
            </g>
            <g>
              <polygon class="cls-1" points="129.31 130.71 198.31 90.88 115.52 43.08 46.52 82.91 129.31 130.71"/>
              <path class="cls-2" d="m129.31,132.19l-.64-.37-84.71-48.91,71.56-41.31.64.37,84.72,48.91-71.56,41.31Zm-80.22-49.28l80.22,46.32,66.43-38.35-80.22-46.32-66.42,38.35Z"/>
            </g>
            <g>
              <polygon class="cls-3" points="129.31 116.95 198.31 77.12 115.52 29.32 46.52 69.15 129.31 116.95"/>
              <path class="cls-2" d="m129.31,118.43l-.64-.37-84.71-48.91L115.52,27.83l.64.37,84.72,48.91-71.56,41.31Zm-80.22-49.28l80.22,46.32,66.43-38.35L115.52,30.8l-66.42,38.35Z"/>
            </g>
          </g>
          <g>
            <polygon class="cls-1" points="166.44 45.98 135.57 63.77 104.86 46.44 135.44 28.41 166.44 45.98"/>
            <path class="cls-2" d="m135.57,65.24l-33.29-18.78,33.14-19.53,33.61,19.04-33.46,19.27Zm-28.15-18.83l28.14,15.88,28.3-16.3-28.41-16.1-28.02,16.52Z"/>
          </g>
          <g>
            <polygon class="cls-1" points="139.73 89.54 166.7 74.34 127.41 51.65 100.45 66.86 139.73 89.54"/>
            <path class="cls-2" d="m139.73,91.02l-41.87-24.17,29.56-16.67,41.88,24.17-29.56,16.67Zm-36.69-24.15l36.7,21.19,24.37-13.74-36.71-21.19-24.36,13.74Z"/>
          </g>
          <g>
            <g>
              <path class="cls-1" d="m120.57,12.06c.99,0,1.76.85,1.66,1.83l-4.93,49.58c0,2.97-2.9,5.94-8.71,7.38-3.2.79-6.59.79-9.8,0-5.81-1.43-8.71-4.4-8.71-7.38l-4.93-49.58c-.1-.98.67-1.83,1.66-1.83h33.74Z"/>
              <path class="cls-2" d="m103.7,72.73c-1.75,0-3.5-.21-5.21-.63-5.97-1.48-9.68-4.78-9.68-8.62l-4.92-49.45c-.08-.83.19-1.66.75-2.27.56-.61,1.36-.97,2.19-.97h33.74c.83,0,1.63.35,2.19.97.56.62.83,1.44.75,2.27l-4.92,49.58c0,3.71-3.7,7.02-9.68,8.49-1.7.42-3.45.63-5.21.63Zm-17.25-58.96l4.93,49.58c0,2.69,3.04,5.09,7.74,6.25,3,.74,6.18.74,9.18,0,4.77-1.18,7.73-3.53,7.73-6.13l4.93-49.71-.38-.42h-33.74l-1.66.55,1.28-.13Z"/>
            </g>
            <g>
              <path class="cls-3" d="m90.47,4.42c-7.31,4.22-7.31,11.06,0,15.28,7.31,4.22,19.16,4.22,26.46,0,7.31-4.22,7.31-11.06,0-15.28-7.31-4.22-19.16-4.22-26.46,0Z"/>
              <path class="cls-2" d="m103.7,24.12c-5.02,0-10.05-1.1-13.87-3.31-3.95-2.28-6.12-5.39-6.12-8.75s2.18-6.47,6.12-8.75c7.65-4.41,20.1-4.41,27.75,0,3.95,2.28,6.12,5.39,6.12,8.75s-2.18,6.47-6.12,8.75c-3.82,2.21-8.85,3.31-13.87,3.31Zm0-21.6c-4.56,0-9.12,1-12.59,3.01-3.12,1.8-4.84,4.12-4.84,6.53s1.72,4.73,4.84,6.53c6.94,4.01,18.24,4.01,25.18,0,3.12-1.8,4.84-4.12,4.84-6.53s-1.72-4.73-4.84-6.53c-3.47-2.01-8.03-3.01-12.59-3.01Z"/>
            </g>
          </g>
        </g>
        <g>
          <g>
            <g>
              <path class="cls-3" d="m136.56,253.75c0-.09.02-56.06.02-58.28,0-.23-.15-.42-.38-.48l-60.82,5.45s-.08-.03-.12-.05l-5.57-33.55c-.16-.09-.36-.09-.52,0l-55.99,32.13c-.12.07-.26.09-.4.05l-10.7-2.98c-.33-.09-.66.14-.66.49,0,2.74.02,57.43.05,57.74v.09c.2,1.79,1.14,3.52,2.92,4.56l56.41,32.72c4.8,2.79,10.73,2.8,15.54.02l57.23-32.84c1.92-1.11,2.89-3.02,2.97-4.95v-.1Z"/>
              <path class="cls-2" d="m68.59,295c-2.92,0-5.83-.76-8.43-2.27L3.74,260.01c-2.01-1.17-3.3-3.18-3.54-5.53-.03-.29-.04-4.64-.05-43.54v-14.42c-.02-.56.24-1.08.69-1.42.46-.34,1.05-.44,1.59-.3l10.38,2.89,55.72-31.97c.55-.32,1.25-.32,1.8,0l.52.3,5.49,33.03,59.97-5.38.23.07c.78.22,1.31.91,1.31,1.71,0,.58-.01,58.2-.02,58.33l-.03.22c-.09,2.4-1.44,4.65-3.6,5.89l-57.24,32.84c-2.59,1.49-5.49,2.24-8.39,2.24ZM2.71,197.54v13.4c.02,15.91.03,42.55.05,43.26.1.9.52,2.56,2.28,3.59l56.41,32.72c4.4,2.55,9.86,2.56,14.26.02l57.24-32.84c1.41-.82,2.26-2.24,2.32-3.89l1.3-.05h-1.28c0-.52.02-49.86.02-57.39l-60.05,5.38-1.16-.58-5.41-32.56-54.86,31.48c-.41.24-.91.31-1.38.18l-9.73-2.71Z"/>
            </g>
            <g>
              <path class="cls-2" d="m136.2,195.01l-60.82,5.45s-.08-.03-.12-.05l-7.12,20.72-.02,72.58c2.83.08,5.68-.58,8.22-2.05l57.23-32.84c1.92-1.11,2.89-3.02,2.97-4.96v-.1c.01-.09.03-56.06.03-58.28,0-.23-.15-.42-.38-.48Z"/>
              <path class="cls-2" d="m68.6,295.01c-.17,0-.34,0-.51,0l-1.25-.04.09-74.25,7.65-22.27,1.09.7,60.65-5.44.22.06c.79.21,1.33.91,1.33,1.72,0,.58-.01,58.2-.02,58.33-.11,2.62-1.46,4.87-3.62,6.11l-57.24,32.84c-2.53,1.46-5.42,2.23-8.38,2.23Zm.83-73.66l-.02,71.07c2.23-.12,4.38-.76,6.29-1.86l57.24-32.84c1.41-.81,2.26-2.23,2.32-3.89.02-.56.03-49.91.03-57.44l-59.11,5.29-6.76,19.67Z"/>
            </g>
            <g>
              <path class="cls-2" d="m10.09,203.7s.84-2.27,1.88-5.18l-9.9-2.76c-.33-.09-.66.14-.66.49,0,2.74.02,57.43.05,57.74v.09c.2,1.79,1.14,3.52,2.92,4.56l5.69,3.31.02-44.49v-13.75Z"/>
              <path class="cls-2" d="m11.36,264.16l-7.62-4.43c-2-1.16-3.29-3.18-3.54-5.53-.03-.29-.04-4.63-.05-43.54v-14.42c-.02-.55.24-1.07.68-1.42.44-.34,1.04-.46,1.58-.31l11.23,3.13-.46,1.3c-.86,2.39-1.57,4.35-1.81,4.98l-.02,60.23ZM2.71,197.26v13.4c.02,15.92.03,42.55.05,43.27.1.9.52,2.56,2.28,3.58l3.76,2.19.1-56.45s.6-1.62,1.41-3.87l-7.59-2.12Z"/>
            </g>
            <g>
              <path class="cls-1" d="m61.08,233.54L4.41,200.67c-3.99-2.32-3.98-8.08.01-10.39l57.49-32.99c4.65-2.69,10.38-2.68,15.03.02l56.67,32.87c3.99,2.32,3.98,8.08-.01,10.39l-57.49,32.99c-4.65,2.69-10.38,2.68-15.03-.02Z"/>
              <path class="cls-2" d="m68.61,236.84c-2.83,0-5.66-.73-8.18-2.2L3.76,201.78c-2.27-1.32-3.63-3.68-3.62-6.31,0-2.63,1.36-4.99,3.64-6.3l57.49-32.99c5.03-2.91,11.28-2.9,16.31.02l56.67,32.87c2.27,1.32,3.63,3.68,3.62,6.31,0,2.63-1.36,4.99-3.64,6.3l-57.5,32.99c-2.51,1.45-5.32,2.17-8.13,2.17Zm.79-80.28c-2.37,0-4.74.61-6.85,1.83L5.06,191.39c-1.47.85-2.35,2.38-2.35,4.09,0,1.7.88,3.23,2.35,4.08l56.67,32.87c4.24,2.46,9.5,2.47,13.74.02l57.49-32.99c1.47-.85,2.35-2.38,2.35-4.08,0-1.7-.87-3.23-2.35-4.09l-56.67-32.87c-2.12-1.23-4.5-1.85-6.89-1.85Z"/>
            </g>
          </g>
          <g>
            <polygon class="cls-1" points="98.98 201.12 72.02 185.91 111.3 163.23 138.27 178.44 98.98 201.12"/>
            <path class="cls-2" d="m98.99,202.6l-29.56-16.67,41.88-24.17,29.56,16.67-41.87,24.17Zm-24.38-16.7l24.37,13.74,36.7-21.19-24.36-13.74-36.71,21.19Z"/>
          </g>
          <g>
            <g>
              <path class="cls-3" d="m34.52,157.74c-.99,0-1.76.85-1.66,1.83l4.93,24.78c0,2.97,2.9,5.94,8.71,7.38,3.2.79,6.59.79,9.8,0,5.81-1.43,8.71-4.4,8.71-7.38l4.93-24.78c.1-.98-.67-1.83-1.66-1.83h-33.74Z"/>
              <path class="cls-2" d="m51.39,193.61c-1.75,0-3.5-.21-5.21-.63-5.97-1.47-9.68-4.78-9.68-8.62l-4.9-24.53c-.1-.95.17-1.78.73-2.4.56-.62,1.35-.97,2.19-.97h33.74c.83,0,1.63.35,2.19.97.56.61.83,1.44.75,2.27l-4.94,24.9c.02,3.59-3.69,6.9-9.66,8.37-1.71.42-3.45.63-5.21.63Zm-16.87-34.58c-.14,0-.23.07-.28.12l4.81,24.95c.02,2.85,2.99,5.21,7.76,6.38,3,.74,6.18.74,9.18,0,4.77-1.17,7.73-3.52,7.73-6.13l4.95-25.03-.4-.3h-33.74Z"/>
            </g>
            <g>
              <path class="cls-3" d="m64.62,150.1c7.31,4.22,7.31,11.06,0,15.28-7.31,4.22-19.16,4.22-26.46,0-7.31-4.22-7.31-11.06,0-15.28,7.31-4.22,19.16-4.22,26.46,0Z"/>
              <path class="cls-2" d="m51.39,169.81c-5.02,0-10.05-1.1-13.87-3.31-3.95-2.28-6.12-5.39-6.12-8.75,0-3.36,2.18-6.47,6.12-8.75,7.65-4.42,20.1-4.42,27.75,0h0c3.95,2.28,6.12,5.39,6.12,8.76,0,3.36-2.18,6.47-6.12,8.75-3.82,2.21-8.85,3.31-13.87,3.31Zm0-21.6c-4.56,0-9.12,1-12.59,3.01-3.12,1.8-4.84,4.12-4.84,6.53,0,2.41,1.72,4.73,4.84,6.53,6.94,4.01,18.24,4.01,25.18,0,3.12-1.8,4.84-4.12,4.84-6.53,0-2.41-1.72-4.73-4.84-6.53-3.47-2-8.03-3.01-12.59-3.01Z"/>
            </g>
          </g>
        </g>
      </g>
    </g>
  </g>
</svg>