<?xml version="1.0" encoding="UTF-8"?>
<svg id="Camada_2" data-name="Camada 2" xmlns="http://www.w3.org/2000/svg" viewBox="0 0 598.37 555.81">
  <defs>
    <style>
      .cls-1 {
        fill: #fff;
      }

      .cls-2 {
        fill: #282828;
      }

      .cls-3 {
        fill: #ec9b3c;
      }
    </style>
  </defs>
  <g id="Modo_de_isolamento" data-name="Modo de isolamento">
    <g id="_11" data-name="11">
      <g>
        <g>
          <path class="cls-2" d="m462.06,447.64l-2.01,1.16c-.21.12-.57.1-.81-.03l-1.9-1.1c-.24-.14-.26-.35-.06-.46l2.01-1.16c.21-.12.57-.1.81.03l1.9,1.1c.24.14.26.35.06.47Z"/>
          <path class="cls-2" d="m461.59,457.92l-2.01,1.16c-.21.12-.57.1-.8-.03l-1.9-1.1c-.24-.14-.26-.35-.06-.46l2.01-1.16c.21-.12.57-.1.81.03l1.9,1.1c.24.14.26.35.06.46Z"/>
          <path class="cls-2" d="m470.73,452.65l-2.01,1.16c-.21.12-.57.1-.8-.03l-1.9-1.1c-.24-.14-.26-.35-.06-.46l2.01-1.16c.21-.12.57-.1.8.03l1.9,1.1c.24.14.26.35.06.46Z"/>
          <path class="cls-2" d="m470.27,462.93l-2.01,1.16c-.21.12-.57.1-.8-.03l-1.9-1.1c-.24-.14-.26-.35-.06-.46l2.01-1.16c.21-.12.57-.1.8.03l1.9,1.1c.24.14.26.35.06.46Z"/>
          <path class="cls-2" d="m479.41,457.66l-2.01,1.16c-.21.12-.57.1-.81-.03l-1.9-1.1c-.24-.14-.26-.35-.06-.46l2.01-1.16c.21-.12.57-.1.81.03l1.9,1.1c.24.14.26.35.06.46Z"/>
          <path class="cls-2" d="m479.45,468.23l-2.01,1.16c-.21.12-.57.1-.8-.03l-1.9-1.1c-.24-.14-.26-.35-.06-.46l2.01-1.16c.21-.12.57-.1.81.03l1.9,1.1c.24.14.26.35.06.46Z"/>
          <path class="cls-2" d="m488.59,462.96l-2.01,1.16c-.21.12-.57.1-.8-.03l-1.9-1.1c-.24-.14-.26-.35-.06-.46l2.01-1.16c.21-.12.57-.1.8.03l1.9,1.1c.24.14.26.35.06.46Z"/>
          <path class="cls-2" d="m497.73,457.68l-2.01,1.16c-.21.12-.57.1-.81-.03l-1.9-1.1c-.24-.14-.26-.35-.06-.46l2.01-1.16c.21-.12.57-.1.81.03l1.9,1.1c.24.14.26.35.06.46Z"/>
          <path class="cls-2" d="m506.87,452.4l-2.01,1.16c-.21.12-.57.1-.81-.03l-1.9-1.1c-.24-.14-.26-.35-.06-.46l2.01-1.16c.21-.12.57-.1.81.03l1.9,1.1c.24.14.26.35.06.46Z"/>
          <path class="cls-2" d="m516.01,447.13l-2.01,1.16c-.21.12-.57.1-.8-.03l-1.9-1.1c-.24-.14-.26-.35-.06-.46l2.01-1.16c.21-.12.57-.1.8.03l1.9,1.1c.24.14.26.35.06.46Z"/>
          <path class="cls-2" d="m525.15,441.85l-2.01,1.16c-.21.12-.57.1-.81-.03l-1.9-1.1c-.24-.14-.26-.35-.06-.47l2.01-1.16c.21-.12.57-.1.8.03l1.9,1.1c.24.14.26.35.06.46Z"/>
          <path class="cls-2" d="m534.29,436.57l-2.01,1.16c-.21.12-.57.1-.81-.03l-1.9-1.1c-.24-.14-.26-.35-.06-.46l2.01-1.16c.21-.12.57-.1.81.03l1.9,1.1c.24.14.26.35.06.46Z"/>
          <path class="cls-2" d="m543.43,431.3l-2.01,1.16c-.21.12-.57.1-.8-.03l-1.9-1.1c-.24-.14-.26-.35-.06-.47l2.01-1.16c.21-.12.57-.1.81.03l1.9,1.1c.24.14.26.35.06.46Z"/>
          <path class="cls-2" d="m552.57,426.02l-2.01,1.16c-.21.12-.57.1-.8-.03l-1.9-1.1c-.24-.14-.26-.35-.06-.46l2.01-1.16c.21-.12.57-.1.8.03l1.9,1.1c.24.14.26.35.06.46Z"/>
          <path class="cls-2" d="m561.71,420.74l-2.01,1.16c-.21.12-.57.1-.81-.03l-1.9-1.1c-.24-.14-.26-.35-.06-.46l2.01-1.16c.21-.12.57-.1.81.03l1.9,1.1c.24.14.26.35.06.46Z"/>
          <path class="cls-2" d="m570.85,415.47l-2.01,1.16c-.21.12-.57.1-.81-.03l-1.9-1.1c-.24-.14-.26-.35-.06-.46l2.01-1.16c.21-.12.57-.1.81.03l1.9,1.1c.24.14.26.35.06.46Z"/>
          <path class="cls-2" d="m579.99,410.19l-2.01,1.16c-.21.12-.57.1-.8-.03l-1.9-1.1c-.24-.14-.26-.35-.06-.46l2.01-1.16c.21-.12.57-.1.8.03l1.9,1.1c.24.14.26.35.06.47Z"/>
          <path class="cls-2" d="m497.26,467.97l-2.01,1.16c-.21.12-.57.1-.81-.03l-1.9-1.1c-.24-.14-.26-.35-.06-.46l2.01-1.16c.21-.12.57-.1.81.03l1.9,1.1c.24.14.26.35.06.46Z"/>
          <path class="cls-2" d="m506.4,462.69l-2.01,1.16c-.21.12-.57.1-.8-.03l-1.9-1.1c-.24-.14-.26-.35-.06-.47l2.01-1.16c.21-.12.57-.1.81.03l1.9,1.1c.24.14.26.35.06.46Z"/>
          <path class="cls-2" d="m515.54,457.41l-2.01,1.16c-.21.12-.57.1-.8-.03l-1.9-1.1c-.24-.14-.26-.35-.06-.46l2.01-1.16c.21-.12.57-.1.8.03l1.9,1.1c.24.14.26.35.06.46Z"/>
          <path class="cls-2" d="m524.68,452.14l-2.01,1.16c-.21.12-.57.1-.81-.03l-1.9-1.1c-.24-.14-.26-.35-.06-.46l2.01-1.16c.21-.12.57-.1.81.03l1.9,1.1c.24.14.26.35.06.46Z"/>
          <path class="cls-2" d="m533.82,446.86l-2.01,1.16c-.21.12-.57.1-.81-.03l-1.9-1.1c-.24-.14-.26-.35-.06-.46l2.01-1.16c.21-.12.57-.1.81.03l1.9,1.1c.24.14.26.35.06.46Z"/>
          <path class="cls-2" d="m542.96,441.58l-2.01,1.16c-.21.12-.57.1-.8-.03l-1.9-1.1c-.24-.14-.26-.35-.06-.46l2.01-1.16c.21-.12.57-.1.8.03l1.9,1.1c.24.14.26.35.06.47Z"/>
          <path class="cls-2" d="m552.1,436.3l-2.01,1.16c-.21.12-.57.1-.81-.03l-1.9-1.1c-.24-.14-.26-.35-.06-.46l2.01-1.16c.21-.12.57-.1.8.03l1.9,1.1c.24.14.26.35.06.46Z"/>
          <path class="cls-2" d="m561.24,431.03l-2.01,1.16c-.21.12-.57.1-.81-.03l-1.9-1.1c-.24-.14-.26-.35-.06-.46l2.01-1.16c.21-.12.57-.1.81.03l1.9,1.1c.24.14.26.35.06.47Z"/>
          <path class="cls-2" d="m570.38,425.75l-2.01,1.16c-.21.12-.57.1-.8-.03l-1.9-1.1c-.24-.14-.26-.35-.06-.46l2.01-1.16c.21-.12.57-.1.81.03l1.9,1.1c.24.14.26.35.06.46Z"/>
          <path class="cls-2" d="m579.52,420.47l-2.01,1.16c-.21.12-.57.1-.8-.03l-1.9-1.1c-.24-.14-.26-.35-.06-.46l2.01-1.16c.21-.12.57-.1.8.03l1.9,1.1c.24.14.26.35.06.46Z"/>
          <path class="cls-2" d="m588.66,415.2l-2.01,1.16c-.21.12-.57.1-.81-.03l-1.9-1.1c-.24-.14-.26-.35-.06-.46l2.01-1.16c.21-.12.57-.1.81.03l1.9,1.1c.24.14.26.35.06.46Z"/>
          <path class="cls-2" d="m598.23,399.66l-2.01,1.16c-.21.12-.57.1-.8-.03l-1.9-1.1c-.24-.14-.26-.35-.06-.46l2.01-1.16c.21-.12.57-.1.8.03l1.9,1.1c.24.14.26.35.06.46Z"/>
          <path class="cls-2" d="m589.09,404.93l-2.01,1.16c-.21.12-.57.1-.8-.03l-1.9-1.1c-.24-.14-.26-.35-.06-.46l2.01-1.16c.21-.12.57-.1.81.03l1.9,1.1c.24.14.26.35.06.47Z"/>
          <path class="cls-2" d="m597.76,409.94l-2.01,1.16c-.21.12-.57.1-.81-.03l-1.9-1.1c-.24-.14-.26-.35-.06-.46l2.01-1.16c.21-.12.57-.1.8.03l1.9,1.1c.24.14.26.35.06.46Z"/>
        </g>
        <g>
          <path class="cls-2" d="m343.34,381.23l-2.01,1.16c-.21.12-.57.1-.81-.03l-1.9-1.1c-.24-.14-.26-.35-.06-.46l2.01-1.16c.21-.12.57-.1.81.03l1.9,1.1c.24.14.26.35.06.46Z"/>
          <path class="cls-2" d="m342.88,391.51l-2.01,1.16c-.21.12-.57.1-.81-.03l-1.9-1.1c-.24-.14-.26-.35-.06-.46l2.01-1.16c.21-.12.57-.1.81.03l1.9,1.1c.24.14.26.35.06.46Z"/>
          <path class="cls-2" d="m352.02,386.23l-2.01,1.16c-.21.12-.57.1-.8-.03l-1.9-1.1c-.24-.14-.26-.35-.06-.46l2.01-1.16c.21-.12.57-.1.8.03l1.9,1.1c.24.14.26.35.06.47Z"/>
          <path class="cls-2" d="m351.56,396.52l-2.01,1.16c-.21.12-.57.1-.8-.03l-1.9-1.1c-.24-.14-.26-.35-.06-.46l2.01-1.16c.21-.12.57-.1.8.03l1.9,1.1c.24.14.26.35.06.47Z"/>
          <path class="cls-2" d="m360.69,391.24l-2.01,1.16c-.21.12-.57.1-.81-.03l-1.9-1.1c-.24-.14-.26-.35-.06-.46l2.01-1.16c.21-.12.57-.1.81.03l1.9,1.1c.24.14.26.35.06.46Z"/>
          <path class="cls-2" d="m360.74,401.82l-2.01,1.16c-.21.12-.57.1-.81-.03l-1.9-1.1c-.24-.14-.26-.35-.06-.46l2.01-1.16c.21-.12.57-.1.81.03l1.9,1.1c.24.14.26.35.06.46Z"/>
          <path class="cls-2" d="m369.88,396.54l-2.01,1.16c-.21.12-.57.1-.8-.03l-1.9-1.1c-.24-.14-.26-.35-.06-.46l2.01-1.16c.21-.12.57-.1.8.03l1.9,1.1c.24.14.26.35.06.47Z"/>
          <path class="cls-2" d="m379.01,391.27l-2.01,1.16c-.21.12-.57.1-.81-.03l-1.9-1.1c-.24-.14-.26-.35-.06-.46l2.01-1.16c.21-.12.57-.1.8.03l1.9,1.1c.24.14.26.35.06.46Z"/>
          <path class="cls-2" d="m388.15,385.99l-2.01,1.16c-.21.12-.57.1-.81-.03l-1.9-1.1c-.24-.14-.26-.35-.06-.46l2.01-1.16c.21-.12.57-.1.81.03l1.9,1.1c.24.14.26.35.06.47Z"/>
          <path class="cls-2" d="m397.29,380.71l-2.01,1.16c-.21.12-.57.1-.8-.03l-1.9-1.1c-.24-.14-.26-.35-.06-.46l2.01-1.16c.21-.12.57-.1.81.03l1.9,1.1c.24.14.26.35.06.46Z"/>
          <path class="cls-2" d="m406.43,375.44l-2.01,1.16c-.21.12-.57.1-.8-.03l-1.9-1.1c-.24-.14-.26-.35-.06-.46l2.01-1.16c.21-.12.57-.1.8.03l1.9,1.1c.24.14.26.35.06.46Z"/>
          <path class="cls-2" d="m415.57,370.16l-2.01,1.16c-.21.12-.57.1-.81-.03l-1.9-1.1c-.24-.14-.26-.35-.06-.46l2.01-1.16c.21-.12.57-.1.81.03l1.9,1.1c.24.14.26.35.06.46Z"/>
          <path class="cls-2" d="m424.71,364.88l-2.01,1.16c-.21.12-.57.1-.81-.03l-1.9-1.1c-.24-.14-.26-.35-.06-.46l2.01-1.16c.21-.12.57-.1.81.03l1.9,1.1c.24.14.26.35.06.46Z"/>
          <path class="cls-2" d="m433.85,359.6l-2.01,1.16c-.21.12-.57.1-.8-.03l-1.9-1.1c-.24-.14-.26-.35-.06-.46l2.01-1.16c.21-.12.57-.1.8.03l1.9,1.1c.24.14.26.35.06.46Z"/>
          <path class="cls-2" d="m442.99,354.33l-2.01,1.16c-.21.12-.57.1-.81-.03l-1.9-1.1c-.24-.14-.26-.35-.06-.46l2.01-1.16c.21-.12.57-.1.8.03l1.9,1.1c.24.14.26.35.06.46Z"/>
          <path class="cls-2" d="m452.13,349.05l-2.01,1.16c-.21.12-.57.1-.81-.03l-1.9-1.1c-.24-.14-.26-.35-.06-.46l2.01-1.16c.21-.12.57-.1.81.03l1.9,1.1c.24.14.26.35.06.46Z"/>
          <path class="cls-2" d="m461.27,343.77l-2.01,1.16c-.21.12-.57.1-.8-.03l-1.9-1.1c-.24-.14-.26-.35-.06-.46l2.01-1.16c.21-.12.57-.1.81.03l1.9,1.1c.24.14.26.35.06.46Z"/>
          <path class="cls-2" d="m378.55,401.55l-2.01,1.16c-.21.12-.57.1-.81-.03l-1.9-1.1c-.24-.14-.26-.35-.06-.46l2.01-1.16c.21-.12.57-.1.81.03l1.9,1.1c.24.14.26.35.06.46Z"/>
          <path class="cls-2" d="m387.69,396.27l-2.01,1.16c-.21.12-.57.1-.81-.03l-1.9-1.1c-.24-.14-.26-.35-.06-.46l2.01-1.16c.21-.12.57-.1.81.03l1.9,1.1c.24.14.26.35.06.46Z"/>
          <path class="cls-2" d="m396.83,391l-2.01,1.16c-.21.12-.57.1-.8-.03l-1.9-1.1c-.24-.14-.26-.35-.06-.46l2.01-1.16c.21-.12.57-.1.8.03l1.9,1.1c.24.14.26.35.06.46Z"/>
          <path class="cls-2" d="m405.97,385.72l-2.01,1.16c-.21.12-.57.1-.81-.03l-1.9-1.1c-.24-.14-.26-.35-.06-.46l2.01-1.16c.21-.12.57-.1.8.03l1.9,1.1c.24.14.26.35.06.46Z"/>
          <path class="cls-2" d="m415.11,380.44l-2.01,1.16c-.21.12-.57.1-.81-.03l-1.9-1.1c-.24-.14-.26-.35-.06-.46l2.01-1.16c.21-.12.57-.1.81.03l1.9,1.1c.24.14.26.35.06.46Z"/>
          <path class="cls-2" d="m424.25,375.17l-2.01,1.16c-.21.12-.57.1-.8-.03l-1.9-1.1c-.24-.14-.26-.35-.06-.46l2.01-1.16c.21-.12.57-.1.81.03l1.9,1.1c.24.14.26.35.06.46Z"/>
          <path class="cls-2" d="m433.39,369.89l-2.01,1.16c-.21.12-.57.1-.8-.03l-1.9-1.1c-.24-.14-.26-.35-.06-.47l2.01-1.16c.21-.12.57-.1.8.03l1.9,1.1c.24.14.26.35.06.46Z"/>
          <path class="cls-2" d="m442.53,364.61l-2.01,1.16c-.21.12-.57.1-.81-.03l-1.9-1.1c-.24-.14-.26-.35-.06-.46l2.01-1.16c.21-.12.57-.1.81.03l1.9,1.1c.24.14.26.35.06.46Z"/>
          <path class="cls-2" d="m451.67,359.34l-2.01,1.16c-.21.12-.57.1-.81-.03l-1.9-1.1c-.24-.14-.26-.35-.06-.47l2.01-1.16c.21-.12.57-.1.81.03l1.9,1.1c.24.14.26.35.06.46Z"/>
          <path class="cls-2" d="m460.81,354.06l-2.01,1.16c-.21.12-.57.1-.8-.03l-1.9-1.1c-.24-.14-.26-.35-.06-.46l2.01-1.16c.21-.12.57-.1.8.03l1.9,1.1c.24.14.26.35.06.46Z"/>
          <path class="cls-2" d="m469.95,348.78l-2.01,1.16c-.21.12-.57.1-.81-.03l-1.9-1.1c-.24-.14-.26-.35-.06-.46l2.01-1.16c.21-.12.57-.1.8.03l1.9,1.1c.24.14.26.35.06.46Z"/>
          <path class="cls-2" d="m479.51,333.24l-2.01,1.16c-.21.12-.57.1-.8-.03l-1.9-1.1c-.24-.14-.26-.35-.06-.47l2.01-1.16c.21-.12.57-.1.8.03l1.9,1.1c.24.14.26.35.06.46Z"/>
          <path class="cls-2" d="m470.37,338.52l-2.01,1.16c-.21.12-.57.1-.81-.03l-1.9-1.1c-.24-.14-.26-.35-.06-.46l2.01-1.16c.21-.12.57-.1.81.03l1.9,1.1c.24.14.26.35.06.46Z"/>
          <path class="cls-2" d="m479.05,343.53l-2.01,1.16c-.21.12-.57.1-.8-.03l-1.9-1.1c-.24-.14-.26-.35-.06-.46l2.01-1.16c.21-.12.57-.1.8.03l1.9,1.1c.24.14.26.35.06.47Z"/>
        </g>
      </g>
      <g>
        <g>
          <g>
            <path class="cls-3" d="m351.92,377.86c-3.37-2.7-4.77-7.98-3.85-14.49l13.08-111.16c1.47-10.33,8.58-21.31,16.92-26.13l59.46-34.33c8.34-4.81,24.49,2.33,25.96,10.96l5.98,90.57c.92,5.44,7.07,13.25,3.7,19.85-3.37,6.6-9.17,14.82-14.42,17.85l-88.77,54.48c-8.24,1.93-14.7-4.9-18.07-7.6Zm41.36-141.44c-3.01,1.74-17.2,15.03-17.73,18.75l-16.66,104.19c-.35,2.46.18,4.46,1.46,5.49,1.28,1.02,3.15.95,5.14-.2l86.56-49.98c1.99-1.15,3.86-3.24,5.14-5.74,1.28-2.5,1.81-5.11,1.46-7.17l-15.02-94.94c-.53-3.11-3.1-4.11-6.1-2.38l-44.26,31.97Z"/>
            <path class="cls-2" d="m367.08,386.69c-6.2,0-11.17-4.27-14.32-6.97-.51-.44-.98-.84-1.39-1.17-3.62-2.9-5.14-8.48-4.17-15.3l13.08-111.14c1.5-10.59,8.8-21.85,17.36-26.79l59.46-34.33c5.15-2.97,12.25-1.56,17.17.76,5.63,2.64,9.4,6.69,10.11,10.82l5.99,90.66c.27,1.55,1.08,3.49,1.94,5.54,1.95,4.65,4.15,9.92,1.67,14.77-3.5,6.84-9.42,15.13-14.76,18.21l-89.01,54.58c-1.07.25-2.1.36-3.11.36Zm76.99-195.59c-2.33,0-4.43.47-6.09,1.42l-59.46,34.33c-8.12,4.69-15.05,15.41-16.49,25.48l-13.08,111.14c-.88,6.21.4,11.19,3.52,13.69h0c.43.35.91.76,1.44,1.21,3.6,3.09,9.02,7.74,15.74,6.25l88.64-54.41c5.05-2.92,10.71-10.89,14.09-17.5,2.11-4.12.07-8.99-1.73-13.28-.9-2.15-1.75-4.18-2.06-6.02l-5.99-90.66c-.58-3.41-4.08-7.06-9.1-9.42-3.18-1.5-6.49-2.26-9.44-2.26Zm-81.58,175.36c-1.01,0-1.93-.3-2.69-.92-1.53-1.23-2.18-3.52-1.78-6.3l16.66-104.2c.6-4.21,15.12-17.58,18.12-19.36l44.23-31.95c1.88-1.09,3.65-1.29,5.06-.63,1.28.6,2.14,1.87,2.43,3.58l15.02,94.95c.38,2.24-.19,5.05-1.55,7.72-1.35,2.65-3.35,4.87-5.49,6.1l-86.56,49.98c-1.2.69-2.37,1.04-3.45,1.04Zm77.82-161.97c-.7,0-1.49.25-2.33.73l-44.26,31.97c-3.25,1.88-16.85,15.02-17.29,18.11l-16.66,104.2c-.3,2.13.11,3.83,1.14,4.65.97.78,2.48.69,4.14-.27l86.56-49.98c1.85-1.07,3.59-3.02,4.79-5.37,1.19-2.33,1.69-4.74,1.37-6.62l-15.02-94.95c-.13-.78-.49-1.82-1.44-2.26-.3-.14-.65-.21-1.02-.21Z"/>
          </g>
          <g>
            <path class="cls-1" d="m368.71,379.51l-6.36-6.56,1.64-7.47c.36-.14.72-.28,1.09-.49l86.56-49.98,9.43,6.08-92.35,58.41Z"/>
            <path class="cls-2" d="m368.57,380.65l-7.19-7.42,1.84-8.4.44-.17c.35-.14.65-.25.96-.43l87.04-50.25,11.05,7.13-94.13,59.54Zm-5.26-7.97l5.53,5.7,90.57-57.28-7.8-5.04-86.1,49.71c-.26.15-.51.27-.76.37l-1.43,6.54Z"/>
          </g>
          <g>
            <path class="cls-1" d="m443.84,206.61c-.53-3.11-3.09-4.11-6.1-2.38l-44.26,31.97c-1.99,1.15-8.85,7.34-13.43,12.49l-5.61-1.87-9.5-5.91c3.17-6.35,8-11.96,13.34-15.04l58-33.49h0l12.14,4.57-4.58,9.65Z"/>
            <path class="cls-2" d="m380.32,249.71l-6.16-2.05-10.38-6.43.36-.72c3.35-6.71,8.35-12.32,13.69-15.41l58.36-33.7,13.44,5.06-6.2,13.06-.47-2.77c-.13-.79-.49-1.83-1.44-2.27-.88-.41-2.06-.23-3.35.52l-44.18,31.92c-1.86,1.08-8.63,7.13-13.29,12.35l-.39.44Zm-14.22-9.13l8.81,5.48,4.87,1.6c4.52-5,11.19-11.04,13.26-12.23l44.18-31.92c1.88-1.09,3.65-1.29,5.06-.63.67.32,1.23.82,1.65,1.47l3.27-6.9-10.85-4.09-57.64,33.28c-4.86,2.8-9.43,7.86-12.62,13.95Z"/>
          </g>
          <g>
            <path class="cls-2" d="m374.64,261.67l-15.62,97.69c-.35,2.46.18,4.46,1.46,5.49,1.28,1.02,3.15.95,5.14-.2l-2.86,7.96c-3.82,10.54,21.11-1.64,17.66,6.53l-10.3,6.32c-8.24,1.93-14.7-4.9-18.07-7.6-3.37-2.7-4.77-7.98-3.85-14.49l13.08-111.16,9.43,6.08,3.93,3.38Z"/>
            <path class="cls-2" d="m367.21,386.69c-6.2,0-11.17-4.27-14.32-6.97-.51-.44-.98-.84-1.39-1.17-3.62-2.9-5.14-8.48-4.17-15.3l13.25-112.55,10.62,6.85,4.41,3.77-15.7,98.18c-.3,2.13.11,3.83,1.14,4.65.97.78,2.48.69,4.14-.27l2.1-1.21-3.68,10.24c-.44,1.21-.46,2.07-.07,2.55,1.08,1.34,5.39.75,8.86.28,4.03-.55,7.52-1.03,8.8.64.58.76.6,1.8.06,3.1l-.11.26-10.81,6.58c-1.07.25-2.1.36-3.11.36Zm-5.21-132.96l-12.92,109.75c-.88,6.21.41,11.19,3.53,13.69.43.35.91.76,1.44,1.21,3.6,3.09,9.03,7.75,15.73,6.25l9.93-6.09c.18-.51.21-.89.07-1.07-.65-.85-4.41-.34-7.16.04-4.51.61-8.77,1.19-10.48-.92-.81-1-.88-2.44-.22-4.27l2.17-6.05c-1.59.43-3.05.19-4.18-.71-1.53-1.23-2.18-3.52-1.78-6.3l15.54-97.22-3.56-3.05-8.13-5.24Z"/>
          </g>
          <g>
            <path class="cls-2" d="m457.22,308.94c1.28-2.5,1.81-5.11,1.46-7.17l-14.77-93.36,10.27-5.98,9.47,2.28,5.85,88.58c.9,5.27,6.67,12.77,3.96,19.23-3.73,1.42-6.81,2.5-6.81,2.5l-9.43-6.08Z"/>
            <path class="cls-2" d="m466.53,316l-10.47-6.75.37-.71c1.19-2.33,1.69-4.74,1.37-6.62l-14.86-93.96,11.1-6.47,10.45,2.51.04.65,5.85,88.58c.27,1.54,1.07,3.48,1.93,5.53,1.84,4.42,3.93,9.43,1.97,14.11l-.15.35-.36.13c-3.74,1.42-6.83,2.51-6.83,2.51l-.41.14Zm-8.17-7.38l8.4,5.42c.91-.32,3.26-1.17,6.02-2.21,1.43-3.91-.45-8.41-2.1-12.39-.89-2.14-1.74-4.17-2.05-6l-5.81-88.02-8.49-2.04-9.44,5.5,14.67,92.76c.34,2.03-.09,4.55-1.2,6.99Z"/>
          </g>
          <g>
            <path class="cls-3" d="m361.34,383.94c-3.37-2.7-4.77-7.98-3.85-14.49l13.08-111.16c1.47-10.33,8.58-21.31,16.92-26.13l59.46-34.33c8.34-4.81,15.45-2.04,16.92,6.59l15.02,94.94c.92,5.44-.48,12.34-3.85,18.93-3.37,6.6-8.32,12.12-13.57,15.15l-86.56,49.98c-5.25,3.03-10.2,3.22-13.57.52Zm26.15-139.08c-3.01,1.74-5.57,5.7-6.1,9.42l-13.08,111.16c-.35,2.46.18,4.46,1.46,5.49,1.28,1.02,3.15.95,5.14-.2l86.56-49.98c1.99-1.15,3.86-3.24,5.14-5.74,1.28-2.5,1.81-5.11,1.46-7.17l-15.02-94.94c-.53-3.11-3.1-4.11-6.1-2.38l-59.46,34.33Z"/>
            <path class="cls-2" d="m366.99,386.74c-2.34,0-4.46-.7-6.2-2.1h0c-3.62-2.9-5.14-8.48-4.17-15.3l13.08-111.14c1.5-10.59,8.8-21.85,17.36-26.79l59.46-34.33c4.54-2.62,8.94-3.18,12.37-1.56,3.07,1.44,5.15,4.56,5.87,8.77l15.02,94.95c.95,5.61-.48,12.71-3.94,19.48-3.45,6.75-8.52,12.4-13.92,15.51l-86.56,49.98c-2.93,1.69-5.78,2.54-8.36,2.54Zm87.66-190.36c-2.21,0-4.69.75-7.25,2.23l-59.46,34.33c-8.12,4.69-15.05,15.41-16.49,25.48l-13.08,111.14c-.88,6.21.4,11.19,3.52,13.69h0c3.07,2.46,7.65,2.25,12.57-.59l86.56-49.98c5.11-2.95,9.93-8.34,13.22-14.79,3.29-6.43,4.66-13.13,3.77-18.38l-15.02-94.95c-.62-3.67-2.31-6.25-4.87-7.45-1.05-.49-2.23-.74-3.48-.74Zm-82.74,176.17c-1.01,0-1.93-.3-2.69-.92-1.53-1.23-2.18-3.52-1.78-6.3l13.08-111.14c.57-3.99,3.32-8.22,6.54-10.08l59.46-34.33c1.8-1.04,3.57-1.25,4.98-.59,1.28.6,2.14,1.87,2.44,3.58l15.02,94.95c.38,2.24-.18,5.05-1.55,7.72-1.35,2.65-3.35,4.87-5.48,6.1l-86.56,49.98c-1.2.69-2.37,1.04-3.45,1.04Zm77.82-161.97c-.69,0-1.49.25-2.33.73l-59.46,34.33c-2.79,1.61-5.17,5.3-5.67,8.78l-13.08,111.14c-.3,2.16.11,3.87,1.13,4.69.97.78,2.48.68,4.14-.27l86.56-49.98c1.85-1.07,3.59-3.02,4.79-5.37,1.19-2.33,1.69-4.74,1.37-6.62l-15.02-94.95c-.13-.78-.49-1.82-1.44-2.26-.3-.14-.65-.21-1.02-.21Z"/>
          </g>
          <rect class="cls-3" x="363.95" y="258.35" width="1.77" height="7.93" transform="translate(-50.31 434.26) rotate(-58.21)"/>
          <rect class="cls-3" x="448.67" y="214.19" width="1.77" height="7.93" transform="translate(27.37 485.45) rotate(-58.22)"/>
          <rect class="cls-3" x="462.66" y="301.72" width="1.77" height="7.93" transform="translate(-40.46 538.69) rotate(-58.21)"/>
          <rect class="cls-3" x="351.92" y="361.17" width="1.77" height="8.49" transform="translate(-143.78 472.19) rotate(-58.14)"/>
        </g>
        <g>
          <g>
            <path class="cls-3" d="m365.7,296.51l9.2.74,4.34,4.01,66.3-37.18c11.84-6.64,20.31-17.98,23.34-31.22l22.78-101.35-9.79-3.03s2.37-10.48,11.3-13.17c9.68-2.93,17.12,2.08,17.12,2.08l74.28,43.06c6.54,3.79,9.92,11.35,8.37,18.76l-23.26,112.3c-2.81,13.46-11.26,25.08-23.2,31.91l-78.45,44.74c-7.66,4.38-17.09,4.3-24.67-.21l-76.21-45.36s-9.79-5.4-9.79-12.94c0-8.78,8.35-13.12,8.35-13.12Z"/>
            <path class="cls-2" d="m455.87,372.26c-4.5,0-8.99-1.19-12.98-3.57l-76.21-45.36c-.4-.22-10.22-5.73-10.22-13.7,0-9.21,8.47-13.72,8.83-13.9l.23-.12,9.76.78,4.09,3.78,65.73-36.86c11.6-6.51,19.95-17.67,22.91-30.64l22.6-100.55-9.8-3.03.18-.8c.1-.45,2.59-11.01,11.91-13.83,9.97-3.02,17.55,1.98,17.87,2.19l74.22,43.02c6.89,3.99,10.42,11.91,8.8,19.71l-23.26,112.3c-2.86,13.7-11.47,25.55-23.62,32.5l-78.45,44.74c-3.9,2.23-8.24,3.34-12.59,3.34Zm-89.97-74.84c-1.25.73-7.67,4.85-7.67,12.21,0,6.93,9.24,12.11,9.33,12.16l76.24,45.38c7.3,4.35,16.41,4.42,23.78.21l78.45-44.74c11.71-6.7,20.01-18.11,22.76-31.32l23.26-112.3c1.47-7.05-1.72-14.2-7.95-17.81l-74.27-43.05c-.12-.08-7.28-4.76-16.42-2-6.92,2.09-9.71,9.32-10.46,11.73l9.75,3.02-.18.8-22.78,101.35c-3.08,13.45-11.74,25.04-23.77,31.79l-66.86,37.49-4.59-4.24-8.62-.69Z"/>
          </g>
          <g>
            <path class="cls-1" d="m488.63,145.2l3.08-13.69-9.79-3.03s2.37-10.48,11.29-13.17c9.68-2.93,17.12,2.08,17.12,2.08l74.27,43.06c3.61,2.09,6.25,5.33,7.63,9.06l-10.63,5.9-92.98-30.2Z"/>
            <path class="cls-2" d="m581.7,176.37l-.37-.12-93.75-30.45,3.08-13.68-9.8-3.03.18-.8c.1-.45,2.59-11.01,11.91-13.83,9.97-3.02,17.55,1.98,17.87,2.19l74.23,43.02c3.68,2.13,6.53,5.52,8.02,9.52l.27.72-11.63,6.46Zm-92.03-31.76l91.85,29.83,9.61-5.34c-1.41-3.31-3.86-6.09-6.97-7.9l-74.28-43.05c-.12-.08-7.28-4.76-16.42-2-6.92,2.09-9.71,9.32-10.46,11.73l9.75,3.02-3.08,13.7Z"/>
          </g>
          <path class="cls-2" d="m365.7,296.52l9.2.74,4.34,4.01,22.87-12.82,38.84,26.48,14.62,45v11.46c-4.23-.05-8.45-1.2-12.22-3.44l-76.21-45.36s-9.79-5.4-9.79-12.94c0-8.78,8.35-13.12,8.35-13.12Z"/>
          <g>
            <path class="cls-3" d="m560.44,284.3l21.19-101.45c1.55-7.4-1.83-14.97-8.37-18.76l-74.27-43.06c-6.76-3.92-15.38-.17-17.12,7.45l-22.21,97.18c-3.02,13.23-11.5,24.57-23.34,31.22l-70.61,39.63c-5.67,3.18-5.77,11.3-.19,14.63l76.21,45.36c7.58,4.51,17.01,4.6,24.67.21l70.84-40.52c11.94-6.83,20.38-18.44,23.19-31.91Z"/>
            <path class="cls-2" d="m454.24,360.83c-4.49,0-8.99-1.19-12.98-3.56l-76.21-45.36c-2.9-1.73-4.61-4.77-4.56-8.14.04-3.37,1.82-6.37,4.76-8.02l70.61-39.63c11.6-6.51,19.94-17.67,22.91-30.64l22.21-97.18c.89-3.91,3.51-7.07,7.19-8.67,3.67-1.6,7.77-1.37,11.24.65l74.28,43.05c6.89,3.99,10.42,11.91,8.79,19.71l-21.19,101.45c-2.86,13.7-11.47,25.55-23.62,32.5l-70.84,40.52c-3.9,2.23-8.25,3.34-12.59,3.34Zm38.93-240.49c-1.45,0-2.9.3-4.29.9-3.15,1.37-5.4,4.08-6.17,7.43l-22.21,97.18c-3.07,13.45-11.74,25.04-23.77,31.79l-70.61,39.63c-2.38,1.34-3.82,3.77-3.86,6.5-.03,2.73,1.34,5.2,3.69,6.6l76.21,45.36c7.3,4.34,16.41,4.42,23.78.21l70.84-40.52c11.71-6.7,20.01-18.11,22.77-31.32l21.19-101.45c1.47-7.04-1.72-14.2-7.95-17.81l-74.28-43.05c-1.67-.97-3.51-1.46-5.36-1.46Z"/>
          </g>
          <g>
            <path class="cls-2" d="m481.86,128.48c1.74-7.62,10.36-11.37,17.12-7.45l74.27,43.06c6.54,3.79,9.92,11.35,8.37,18.76l-21.19,101.45-100.79-58.63,22.21-97.18Z"/>
            <path class="cls-2" d="m561.05,285.68l-102.42-59.58,22.36-97.82c.89-3.91,3.51-7.07,7.19-8.67,3.67-1.6,7.77-1.37,11.24.65l74.28,43.05c6.89,3.99,10.42,11.91,8.79,19.71l-21.44,102.65Zm-100.4-60.46l99.16,57.69,20.94-100.24c1.47-7.04-1.72-14.2-7.95-17.81l-74.28-43.05c-2.97-1.72-6.49-1.93-9.65-.55-3.15,1.37-5.4,4.08-6.17,7.43l-22.07,96.54Z"/>
          </g>
          <rect class="cls-2" x="488.12" y="215.38" width="1.77" height="73.62" transform="translate(25.13 548.07) rotate(-59.81)"/>
          <rect class="cls-2" x="542.54" y="267.02" width="1.77" height="33.65" transform="translate(24.82 610.86) rotate(-59.81)"/>
          <rect class="cls-2" x="465.17" y="234.1" width="1.77" height="30.35" transform="translate(16.25 526.8) rotate(-59.81)"/>
          <rect class="cls-2" x="517.56" y="238.93" width="1.77" height="81.63" transform="translate(15.95 587.23) rotate(-59.81)"/>
          <rect class="cls-2" x="476.84" y="232.01" width="1.77" height="73.5" transform="translate(5.2 546.55) rotate(-59.81)"/>
          <rect class="cls-2" x="517.04" y="286.23" width="1.77" height="11.83" transform="translate(4.98 592.95) rotate(-59.81)"/>
          <rect class="cls-2" x="535.98" y="291.72" width="1.77" height="22.87" transform="translate(4.88 614.79) rotate(-59.81)"/>
          <rect class="cls-2" x="399.44" y="277.86" width="1.77" height="86.41" transform="translate(-78.5 505.67) rotate(-59.81)"/>
          <rect class="cls-2" x="451.84" y="338.77" width="1.77" height="25.56" transform="translate(-78.8 566.1) rotate(-59.81)"/>
          <rect class="cls-2" x="386" y="284.46" width="1.77" height="25.29" transform="translate(-64.39 482.31) rotate(-59.83)"/>
          <rect class="cls-2" x="408.91" y="301.65" width="1.77" height="17.53" transform="translate(-64.52 508.71) rotate(-59.83)"/>
          <rect class="cls-2" x="448.89" y="301.42" width="1.77" height="64.47" transform="translate(-64.7 554.87) rotate(-59.84)"/>
          <rect class="cls-3" x="525.32" y="102.33" width="1.77" height="92.59" transform="translate(133.15 528.73) rotate(-59.81)"/>
          <rect class="cls-3" x="573.66" y="171.36" width="1.77" height="10.76" transform="translate(132.88 584.5) rotate(-59.81)"/>
          <rect class="cls-3" x="489.58" y="132.58" width="1.77" height="16.9" transform="translate(121.94 494.06) rotate(-59.81)"/>
          <rect class="cls-3" x="506.31" y="144.25" width="1.77" height="13.01" transform="translate(121.83 513.34) rotate(-59.81)"/>
          <rect class="cls-3" x="545.37" y="138.87" width="1.77" height="69.21" transform="translate(121.64 558.43) rotate(-59.81)"/>
          <rect class="cls-2" x="580.49" y="181.23" width="13.12" height="1.78" transform="translate(-19.7 280.36) rotate(-26.43)"/>
          <rect class="cls-2" x="462.88" y="357.98" width="1.77" height="11.91"/>
          <rect class="cls-2" x="476.76" y="349.85" width="1.77" height="11.91"/>
          <path class="cls-3" d="m366.67,321.63c-2.79-3.44-1.8-8.69-1.76-8.91l1.74.34s-.87,4.66,1.39,7.45l-1.38,1.12Z"/>
          <path class="cls-3" d="m357.53,317.54c-.84-1.04-1.43-2.36-1.72-3.92-.44-2.3-.13-4.8.9-7.24l1.51-3.58,1.64.69-1.51,3.58c-.89,2.11-1.17,4.26-.79,6.21.24,1.26.7,2.32,1.36,3.14l-1.38,1.12Z"/>
          <path class="cls-2" d="m499.58,121.69l-1.21-1.3c4.31-3.99,15.24-1.88,15.7-1.79l-.34,1.74c-2.91-.57-11.13-1.45-14.16,1.35Z"/>
          <rect class="cls-3" x="445.07" y="359.95" width="1.77" height="7.63"/>
          <rect class="cls-2" x="411.53" y="270.53" width="1.77" height="51.08" transform="translate(-50.79 503.88) rotate(-59.84)"/>
          <rect class="cls-2" x="407.51" y="272.21" width="1.77" height="12.78" transform="translate(-37.69 491.7) rotate(-59.84)"/>
          <rect class="cls-2" x="420.5" y="282.46" width="1.77" height="7.38" transform="translate(-37.79 506.62) rotate(-59.83)"/>
          <rect class="cls-2" x="444.83" y="251.89" width="1.77" height="19.69" transform="translate(-4.62 515.43) rotate(-59.82)"/>
          <rect class="cls-2" x="459.09" y="267.41" width="1.77" height="5.43" transform="translate(-4.81 531.88) rotate(-59.81)"/>
        </g>
        <g>
          <path class="cls-2" d="m483.48,223.82l50.79,29.45c3.18,1.85,7.24.07,8.04-3.52l9.98-44.77c.8-3.58-.82-7.27-3.99-9.11l-50.79-29.45c-3.18-1.85-7.24-.07-8.04,3.52l-9.98,44.77c-.8,3.58.82,7.27,3.99,9.11Z"/>
          <path class="cls-3" d="m534.89,254.54c-.36-.13-.72-.29-1.06-.49l-7.39-4.29.89-1.53,7.39,4.29c.25.14.5.26.76.35l-.59,1.67Zm7.36-2.42l-1.47-.99c.32-.47.54-1,.67-1.56l1.63-7.33,1.73.39-1.63,7.33c-.18.78-.49,1.51-.93,2.17Zm-22.01-5.95l-8.27-4.79.89-1.53,8.27,4.79-.89,1.53Zm-14.47-8.39l-8.26-4.79.89-1.53,8.26,4.79-.89,1.53Zm40.6-2.16l-1.73-.39,2.08-9.33,1.73.39-2.08,9.33Zm-55.07-6.23l-8.27-4.79.85-1.56-.46.76.49-.74,8.28,4.8-.89,1.53Zm58.7-10.09l-1.73-.39,2.08-9.33,1.73.39-2.08,9.33Zm-71.44-1.03c-.11-.56-.16-1.14-.16-1.72,0-.68.08-1.36.22-2.03l1.34-6,1.73.39-1.34,6c-.12.54-.18,1.09-.18,1.64,0,.47.04.93.13,1.38l-1.74.33Zm73.03-15.48c-.12-2.57-1.52-4.87-3.75-6.15l-1-.58.89-1.53,1,.58c2.74,1.59,4.48,4.43,4.63,7.6l-1.77.09Zm-68.34-.88l-1.73-.39,2.08-9.33,1.73.39-2.08,9.33Zm57.39-9.45l-8.26-4.79.89-1.53,8.26,4.79-.89,1.53Zm-53.76-6.87l-1.73-.39,2.08-9.33,1.73.39-2.08,9.33Zm39.29-1.52l-8.26-4.79.89-1.53,8.26,4.79-.89,1.53Zm-14.46-8.39l-8.27-4.79.89-1.53,8.27,4.79-.89,1.53Zm-21.17-6.26l-1.65-.66c.95-2.38,3.31-3.98,5.88-3.98,1.1,0,2.2.3,3.17.86l-.7,1.65-.19-.11c-2.33-1.35-5.54-.2-6.51,2.24Z"/>
        </g>
        <g>
          <g>
            <path class="cls-1" d="m421.89,476.2s2.3,15.03,6.13,23.42-22.71,21.95-22.71,21.95l-6.87-14.41s1.47-15.44-2.24-30.18c-3.7-14.74,25.7-.79,25.7-.79Z"/>
            <path class="cls-2" d="m404.9,522.78l-7.37-15.45.02-.25c.01-.15,1.41-15.46-2.21-29.87-.75-2.96-.3-5.14,1.33-6.48,5.62-4.6,23.58,3.71,25.61,4.67l.43.2.07.47c.02.15,2.33,15.01,6.06,23.19,4.06,8.91-20.32,21.68-23.12,23.11l-.81.41Zm-5.56-15.78l6.38,13.36c7.62-4.02,24.25-14.35,21.5-20.37-3.5-7.67-5.7-20.53-6.13-23.19-5.55-2.57-19.38-7.91-23.3-4.7-1.05.86-1.3,2.43-.73,4.67,3.44,13.7,2.45,28.17,2.28,30.23Z"/>
          </g>
          <g>
            <g>
              <path class="cls-2" d="m430.69,493.12c.18-.14.44-.09.53.12.85,1.78,4.24,9.58,3.15,19.33-.79,7.14-7.35,11.22-10.21,11.53-2,.22-6.84,6.67-6.5,8.47.38,2.02-23.71,26.13-33.56,21.84-9.55-4.16,2.06-26.36,2.72-27.65.02-.05.05-.08.1-.11l43.77-33.53Z"/>
              <path class="cls-2" d="m386.79,555.81c-1.09,0-2.11-.18-3.04-.59-1.76-.77-3-2.12-3.68-4.02-2.59-7.25,3.87-20.79,5.92-24.76.12-.23.23-.37.38-.49l43.78-33.53c.3-.23.69-.32,1.05-.22.36.09.66.33.82.67,1.03,2.16,4.33,9.97,3.23,19.8-.82,7.38-7.59,11.94-10.99,12.32-.46.05-1.86,1.11-3.52,3.3-1.67,2.2-2.26,3.77-2.2,4.12.39,2.07-8.3,10.19-13.27,14.15-5.59,4.45-12.91,9.25-18.48,9.25Zm.76-28.53c-4.06,7.94-7.66,18.13-5.81,23.33.51,1.44,1.4,2.42,2.71,2.99,2.1.91,5.18.41,9.14-1.51,10.6-5.11,22.73-17.84,23.19-19.56-.28-1.31,1.55-3.99,2.35-5.08.7-.94,3.11-4.03,4.92-4.23,2.29-.26,8.66-3.95,9.42-10.75.97-8.67-1.74-15.84-2.79-18.24l-43.15,33.05Z"/>
            </g>
            <g>
              <path class="cls-3" d="m428.18,490.02c-.51-.29-5.16,3.47-5.72,3.62-1.66.44-4.98,1.87-5.68,6.38-.95,6.06-5.25,6.06-5.25,6.06v-6.88c0-1.25-.96-2.29-2.2-2.39l-11.07-.91c-1.22-.1-2.32.73-2.55,1.93l-1.86,9.51s-2.27,11.37-6.32,18.19c-4.04,6.82-8.73,14.98-3.68,19.02,5.05,4.04,15.04-1.34,26.66-15.48,8.39-10.22,17.92-23.06,20.32-27.29,1.39-2.44,1.74-5.4.66-7.99-.59-1.42-1.61-2.82-3.32-3.78Z"/>
              <path class="cls-2" d="m387.8,546.77c-1.71,0-3.22-.5-4.5-1.52-5.76-4.6-.43-13.6,3.47-20.17,3.91-6.61,6.19-17.8,6.21-17.91l1.86-9.51c.32-1.64,1.8-2.8,3.5-2.64l11.06.91c1.69.14,3.02,1.58,3.02,3.27v5.81c1.11-.38,2.92-1.54,3.48-5.13.8-5.11,4.7-6.67,6.33-7.1.14-.08,1.01-.7,1.71-1.21,3.17-2.29,3.93-2.75,4.67-2.33,1.69.94,2.93,2.36,3.71,4.21,1.13,2.72.87,6-.71,8.77-2.48,4.36-12.21,17.43-20.41,27.41-9.14,11.12-17.47,17.13-23.4,17.13Zm10.26-49.99c-.72,0-1.34.51-1.48,1.22l-1.86,9.52c-.09.47-2.35,11.6-6.42,18.47-4.45,7.5-8.09,14.51-3.88,17.88,4.69,3.76,14.68-2.27,25.42-15.35,8.15-9.92,17.8-22.87,20.24-27.17,1.31-2.3,1.54-5,.62-7.21-.57-1.37-1.47-2.44-2.66-3.18-.64.32-2.18,1.43-3.05,2.06-1.53,1.1-1.96,1.39-2.3,1.48-1.62.43-4.42,1.73-5.03,5.66-1.06,6.74-6.07,6.81-6.12,6.81h-.89v-7.77c0-.78-.61-1.44-1.39-1.51l-11.06-.91s-.09,0-.13,0Z"/>
            </g>
          </g>
        </g>
        <g>
          <path class="cls-1" d="m273.58,394.08s-10.53,8.65-15.25,15.43c-4.72,6.78-27.31-7.47-27.31-7.47l7.97-11.89s12.57-5.93,22.24-15.52c9.67-9.59,12.35,19.45,12.35,19.45Z"/>
          <path class="cls-2" d="m253.89,412.22c-8.12,0-21.47-8.25-23.34-9.43l-.77-.49,8.61-12.85.22-.11c.12-.06,12.55-5.98,21.99-15.34,1.97-1.95,3.88-2.62,5.7-1.96,6.17,2.24,7.98,19.94,8.17,21.95l.04.47-.36.3c-.11.09-10.5,8.65-15.09,15.25-1.09,1.57-2.93,2.2-5.17,2.2Zm-21.62-10.45c6.6,4.04,22,12.04,25.33,7.24,4.29-6.17,13.12-13.69,15.05-15.31-.56-5.47-2.75-18.45-6.96-19.99-1.1-.4-2.4.12-3.84,1.55-8.96,8.89-20.51,14.72-22.26,15.58l-7.32,10.92Z"/>
        </g>
        <g>
          <g>
            <path class="cls-2" d="m258.39,417.68s-3.67,7.61-14.47,10.54c-6.93,1.88-15.67-1.9-17.02-4.44-.94-1.78-8.72-3.91-10.26-2.94-1.73,1.09-31.35-11.89-30.97-22.63.38-10.74,25.12-8.19,25.12-8.19l47.59,27.67Z"/>
            <path class="cls-2" d="m239.87,429.61c-6.26,0-12.5-3.08-13.74-5.43-.22-.41-1.72-1.32-4.37-2.07-2.66-.75-4.33-.72-4.63-.54-1.77,1.12-11.8-3.75-16.53-6.48-6-3.45-16.03-10.25-15.79-16.93.07-2.04.93-3.79,2.54-5.19,6.37-5.55,22.86-3.92,23.56-3.85l.36.12,48.3,28.08-.36.74c-.16.33-3.98,8.01-15.03,11.01-1.39.38-2.84.54-4.29.54Zm-21.95-9.93c1.3,0,2.94.37,4.02.65,1.13.3,4.9,1.42,5.75,3.02,1.09,2.06,9.25,5.83,16,4,8.33-2.26,12.29-7.46,13.49-9.36l-46.66-27.13c-1.83-.16-16.57-1.31-22.03,3.44-1.24,1.08-1.88,2.36-1.93,3.92-.09,2.42,1.58,5.21,4.97,8.31,8.35,7.66,23.27,13.6,24.82,13.46.36-.24.92-.33,1.57-.33Z"/>
          </g>
          <g>
            <path class="cls-3" d="m260.69,413.2c0-4.71-5.72-1.73-6.07-2.21-1.02-1.38-3.57-3.94-8.02-2.94-5.99,1.34-7.56-2.65-7.56-2.65l6.4-2.53c1.16-.46,1.78-1.73,1.42-2.93l-3.22-10.63c-.35-1.17-1.53-1.89-2.73-1.66l-9.54,1.76s-11.41,2.06-19.24.8c-7.83-1.26-15.47-2.04-17.38,4.14-1.91,6.18,5.1,12.92,22.52,18.54,12.59,4.06,23.01,5.85,27.82,6.54,2.78.4,11.28.21,13.3-1.75,1.1-1.07,2.29-2.51,2.29-4.48Z"/>
            <path class="cls-2" d="m248.42,420.49c-1.49,0-2.75-.08-3.45-.18-5.07-.72-15.44-2.53-27.97-6.57-17.1-5.51-25.3-12.49-23.1-19.65,2.26-7.34,11.57-5.84,18.36-4.75,7.59,1.22,18.82-.78,18.94-.8l9.53-1.76c1.68-.31,3.26.68,3.74,2.28l3.22,10.63c.49,1.62-.36,3.39-1.94,4.01l-5.41,2.13c.76.89,2.5,2.15,6.05,1.36,4.66-1.04,7.46,1.47,8.66,2.93.15-.03.33-.07.49-.11,1.38-.33,3.46-.82,4.86.28.78.61,1.17,1.59,1.17,2.91,0,2.33-1.37,3.95-2.56,5.11-1.75,1.71-6.9,2.17-10.59,2.17Zm-44.66-30.25c-4.03,0-7.13,1.02-8.16,4.38-1.85,5.99,6.15,12.34,21.95,17.44,12.41,4,22.66,5.79,27.67,6.5,3.16.45,10.97.03,12.55-1.51,1-.97,2.03-2.19,2.03-3.84,0-.75-.17-1.26-.5-1.52-.72-.57-2.37-.18-3.35.05-.94.22-1.62.38-2.05-.21-.99-1.35-3.24-3.48-7.11-2.61-6.65,1.5-8.57-3.15-8.59-3.19l-.33-.82,7.23-2.85c.73-.29,1.12-1.1.89-1.85l-3.22-10.63c-.22-.74-.95-1.19-1.72-1.05l-9.54,1.76c-.48.09-11.64,2.07-19.54.81-2.92-.47-5.75-.86-8.23-.86Z"/>
          </g>
        </g>
        <g>
          <path class="cls-2" d="m532.01,262.33s7.96,12.28-1.23,32.76c-19.11,42.57-80.26,16.67-80.26,16.67,0,0-18.62,16.36-41.44,30.35-1.77,1.09-2.29,3.42-1.07,5.1,3.91,5.41,9.06,19.15,9.06,47s3.6,63.37,5.34,78.2c.49,4.2-2.41,8.03-6.59,8.7l-10.72,1.72c-4.04.65-7.9-1.88-8.91-5.85-6.29-24.95-27.29-108.69-28.62-119.87-1.57-13.16,0-15.04,0-15.04,0,0-12.84,16.6-41.98,26-22.2,7.16-46.94,23.23-57.46,30.48-2.86,1.97-6.77,1.16-8.63-1.78l-5.59-8.82c-1.64-2.59-1.13-5.99,1.23-7.96,17-14.21,81.94-68.58,99.59-84.6,20.36-18.48,20.05-21.93,36.65-27.88,16.6-5.95,57.95-20.2,57.95-20.2l82.68,15.01Z"/>
          <path class="cls-2" d="m403.81,483.83c-3.97,0-7.48-2.66-8.48-6.62-6.38-25.32-27.31-108.81-28.64-119.98-.72-6.07-.79-9.82-.62-12.14-4.85,5.03-17.83,16.62-40.2,23.84-22.31,7.2-47.46,23.63-57.23,30.37-1.58,1.09-3.49,1.48-5.36,1.09-1.89-.38-3.49-1.49-4.52-3.12l-5.58-8.82c-1.87-2.96-1.27-6.88,1.41-9.11,18.94-15.83,82.1-68.73,99.56-84.58,5.45-4.94,9.42-8.82,12.62-11.94,8.73-8.51,12-11.7,24.33-16.12,16.42-5.89,57.55-20.07,57.96-20.21l.22-.08,83.28,15.12.21.32c.34.52,8.12,12.93-1.16,33.61-18.29,40.77-74.87,19.71-80.89,17.33-2.88,2.48-20.39,17.35-41.15,30.08-.65.4-1.11,1.05-1.26,1.79-.14.72.01,1.44.45,2.04,2.78,3.84,9.23,16.15,9.23,47.52,0,29.5,3.73,64.44,5.33,78.1.55,4.68-2.67,8.94-7.33,9.68l-10.72,1.72c-.48.08-.96.11-1.43.11Zm-35.56-141.18c-.02.05-1.23,2.37.2,14.36,1.32,11.07,22.22,94.46,28.6,119.76.89,3.54,4.28,5.78,7.9,5.19l10.72-1.72c3.72-.6,6.29-3.99,5.85-7.73-1.61-13.69-5.35-48.72-5.35-78.31s-6.22-42.78-8.89-46.48c-.73-1-.99-2.22-.75-3.43.24-1.22,1-2.29,2.07-2.95,22.5-13.79,41.14-30.1,41.32-30.26l.42-.37.51.22c.61.26,60.57,25.07,79.1-16.21,8.06-17.97,2.58-29.57,1.48-31.6l-82.04-14.89c-3.28,1.13-41.94,14.47-57.72,20.12-11.97,4.29-14.93,7.17-23.69,15.72-3.2,3.13-7.19,7.02-12.66,11.98-17.48,15.87-80.67,68.78-99.62,84.62-1.99,1.67-2.44,4.59-1.04,6.8l5.58,8.82c.77,1.22,1.97,2.05,3.38,2.34,1.39.29,2.82,0,4-.82,9.84-6.78,35.16-23.32,57.69-30.59,28.54-9.21,41.42-25.53,41.54-25.7h0s.01-.02.02-.02l1.38,1.11s0,.01-.02.03Z"/>
        </g>
        <g>
          <path class="cls-1" d="m490.29,253.2l33.08,12.35c1.2.45,1.09,2.18-.16,2.46-10.52,2.34-37.51,8.03-42.78,6.33-47.97-15.56-72.19-25.12-76.27-26.76-.12-.05-.06-.21.07-.2l86.06,5.83Z"/>
          <path class="cls-2" d="m483.37,275.52c-1.39,0-2.49-.11-3.21-.34-47.74-15.48-71.96-25.03-76.32-26.78l-.7-.28.27-1.58.88-.05,86.31,5.88,33.08,12.35c.91.34,1.48,1.22,1.41,2.19-.07.97-.75,1.76-1.69,1.97-9.69,2.15-30.98,6.64-40.03,6.64Zm-74.18-26.93c9.76,3.77,32.94,12.39,71.51,24.9,4.14,1.34,24.56-2.4,42.31-6.35.25-.06.3-.25.31-.36,0-.09,0-.31-.26-.41l-32.96-12.31-80.91-5.48Z"/>
        </g>
        <g>
          <path class="cls-1" d="m438.02,157.58s-16.6,20.93-31.62,29.1c-15.02,8.18-7.82-25.66-7.82-25.66l20.52-26.53s7.36-7.73,7.83-7.67c.47.06,14.78,1.18,14.78,1.18l4.46,15.79-8.15,13.78Z"/>
          <path class="cls-2" d="m402.27,188.84c-1.11,0-2.09-.32-2.94-.95-6.18-4.61-2.1-24.77-1.61-27.05l.17-.36,20.52-26.53c7.74-8.14,8.12-8.07,8.65-8.01.4.05,9.03.73,14.74,1.18l.62.05,4.73,16.75-8.41,14.21c-.68.86-16.88,21.16-31.89,29.33-1.7.92-3.22,1.38-4.56,1.38Zm-2.86-27.44c-1.26,6.05-3.44,21.76.98,25.06,1.27.95,3.15.76,5.58-.57,14.35-7.81,30.43-27.72,31.31-28.83l7.92-13.4-4.19-14.83c-2.73-.22-12.05-.95-13.9-1.11-.91.71-4.35,4.19-7.39,7.38l-20.33,26.3Z"/>
        </g>
        <g>
          <path class="cls-3" d="m510.77,97.33c8.98,1.41,17.44,5.07,24.61,10.65,7.61,5.93,17.51,14.44,25.62,24.09,15.51,18.46,22.55,54.17,22.55,54.17,0,0-3.03,16.92-30.41,17.86l-7.5-12.22s-7.66,13.63-6.72,31.95c.94,18.32,3.99,23.54,3.99,23.54v9.46c0,3.98-3.11,7.25-7.09,7.41-16.62.66-59.15-.95-91.35-30.55,0,0,1.47-15.56,0-39.94-1.2-19.93.07-32.73,2.4-40.9.42-1.46-1.39-2.5-2.48-1.44l-6.37,6.17s3.64-24.9-20.33-32.89c0,0,32.26-37.75,65.94-31.64l27.14,4.27Z"/>
          <path class="cls-2" d="m530.45,265.24c-19.4,0-57.23-3.9-86.57-30.88l-.32-.3.04-.44c.01-.15,1.44-15.79,0-39.8-1.08-17.91-.26-31.77,2.43-41.2.11-.38-.15-.58-.26-.65-.09-.06-.43-.22-.75.09l-8.24,7.97.37-2.57c.14-.99,3.23-24.27-19.73-31.92l-1.25-.42.86-1c.33-.38,32.96-38.08,66.77-31.93l27.12,4.27c9.12,1.44,17.77,5.18,25.02,10.83,7.14,5.57,17.41,14.29,25.75,24.22,15.47,18.42,22.67,54.21,22.75,54.57l.03.16-.03.16c-.03.18-3.48,17.63-31.26,18.59l-.52.02-6.94-11.3c-1.84,3.88-6.66,15.55-5.91,30.09.91,17.75,3.84,23.09,3.87,23.14l.12.2v9.7c0,4.48-3.49,8.12-7.94,8.3-1.59.06-3.4.1-5.41.1Zm-85.05-31.9c31.86,29.05,73.79,30.67,90.39,30.02,3.5-.14,6.24-3.01,6.24-6.53v-9.24c-.6-1.2-3.14-7.22-3.99-23.71-.94-18.37,6.52-31.87,6.83-32.43l.74-1.32,8.02,13.06c24.72-1.04,28.63-15.19,29.02-16.95-.56-2.71-7.7-36.18-22.33-53.6-8.25-9.82-18.41-18.45-25.49-23.97-7.01-5.46-15.38-9.09-24.21-10.48l-27.14-4.27c-29.78-5.41-58.9,24.52-64.26,30.37,18.75,6.99,20.02,24.63,19.83,31.04l4.71-4.56c.79-.76,1.95-.9,2.9-.33.93.55,1.35,1.62,1.05,2.66-2.63,9.24-3.43,22.9-2.37,40.61,1.32,21.92.26,36.91.04,39.63Z"/>
        </g>
        <path class="cls-2" d="m492.48,147.11c-6.17,0-11.52-1.49-15.76-4.42-4.89-3.38-8.05-8.55-9.15-14.96l1.75-.3c1.02,5.93,3.93,10.7,8.41,13.8,5.71,3.95,13.68,5.07,23.04,3.26,20.61-4,35.96-34.78,36.11-35.09l1.59.78c-.64,1.3-15.89,31.88-37.37,36.05-3.01.58-5.9.88-8.63.88Z"/>
        <path class="cls-2" d="m468.15,120.94l-1.77-.03c.24-15.35,8.07-27.67,8.4-28.19l1.49.96c-.08.12-7.89,12.43-8.12,27.26Z"/>
        <path class="cls-2" d="m544.85,192.27c-.15-.3-3.66-7.57-5.54-16.66l1.74-.36c1.83,8.86,5.36,16.16,5.4,16.24l-1.59.78Z"/>
        <path class="cls-2" d="m539.29,171.11c-.45-6.88-.02-11.83,0-12.04l1.77.16s-.43,5.03,0,11.77l-1.77.12Z"/>
        <path class="cls-2" d="m442.31,154.67l-1.18-1.32c9.59-8.6,12.03-16.31,12.06-16.39l1.7.52c-.1.33-2.58,8.23-12.57,17.19Z"/>
        <path class="cls-2" d="m447.74,153.07l-1.72-.42c1-4.17,4.14-9.71,4.27-9.94l1.54.88c-.03.06-3.14,5.55-4.09,9.48Z"/>
        <rect class="cls-2" x="524.58" y="111.8" width="1.77" height="12.49" transform="translate(177.99 529.52) rotate(-62.48)"/>
        <rect class="cls-2" x="514.24" y="124.51" width="1.78" height="12.29" transform="translate(91.49 451.53) rotate(-51.37)"/>
        <rect class="cls-2" x="472.25" y="133.93" width="12.91" height="1.78" transform="translate(74.14 424.06) rotate(-51.29)"/>
        <g>
          <path class="cls-2" d="m550.75,49.29s3.2,15.56-10.1,28.65c-13.3,13.08-26.75-12.83-26.75-12.83l25.25-18.48,11.6,2.67Z"/>
          <path class="cls-2" d="m532.71,82.52c-.56,0-1.12-.05-1.69-.14-9.86-1.56-17.58-16.24-17.91-16.87l-.35-.68,26.19-19.17,12.55,2.88.12.56c.13.65,3.14,16.19-10.34,29.46-2.66,2.62-5.54,3.95-8.56,3.95Zm-17.65-17.15c1.62,2.86,8.39,14.02,16.24,15.27,3.05.47,6-.63,8.73-3.32,11.39-11.21,10.32-24.44,9.93-27.28l-10.62-2.44-24.29,17.78Z"/>
        </g>
        <g>
          <path class="cls-2" d="m482.54,23.47s-12.22,9.22-11.58,27.88c.64,18.66,25.31,4.5,25.31,4.5l-10.8-25.31-2.93-7.08Z"/>
          <path class="cls-2" d="m480.05,61.88c-1.95,0-3.81-.35-5.38-1.22-2.89-1.61-4.44-4.73-4.6-9.27-.65-18.9,11.42-28.23,11.93-28.62l.91-.69,3.37,8.14,11.1,26.02-.68.39c-.46.27-9.27,5.26-16.65,5.26Zm2.13-36.93c-2.74,2.54-10.86,11.36-10.34,26.37.13,3.88,1.37,6.5,3.69,7.79,5.79,3.23,16.75-2.14,19.6-3.64l-12.94-30.52Z"/>
        </g>
        <g>
          <path class="cls-1" d="m523.42,81.89s-3.44,7.61-.65,24.05c.39,2.28.03,4.62-1.17,6.59-4.54,7.49-17.05,25.3-31.23,21.43-9.93-2.71-12.01-10.09-11.9-16.1.07-3.98,1.43-7.8,3.34-11.29,1.68-3.08,3.68-8.93,1.67-17.59-3.13-13.47,19.73-20.99,19.73-20.99l20.21,13.89Z"/>
          <path class="cls-2" d="m494.42,135.39c-1.4,0-2.83-.18-4.28-.58-10.58-2.89-12.67-10.82-12.56-16.97.07-3.76,1.2-7.58,3.45-11.7,1.77-3.23,3.48-8.8,1.58-16.96-3.28-14.1,19.36-21.71,20.32-22.03l.42-.14,21.18,14.56-.3.68c-.03.08-3.28,7.63-.58,23.54.43,2.56-.02,5.11-1.29,7.2-4.32,7.12-15.09,22.4-27.94,22.4Zm8.66-66.41c-3.01,1.08-21.43,8.24-18.74,19.8,2.03,8.7.16,14.71-1.76,18.21-2.11,3.86-3.17,7.42-3.24,10.88-.14,8.03,3.64,13.15,11.25,15.22,13.55,3.7,25.65-13.48,30.24-21.03,1.04-1.72,1.42-3.85,1.06-5.98-2.37-13.93-.34-21.61.44-23.86l-19.26-13.24Z"/>
        </g>
        <g>
          <path class="cls-1" d="m514.35,87.63c3.31-1.74,6.47-3.77,9.47-6.03l2.63-1.99c.4-.3.92-.32,1.37-.11,1.33.59,4.54,1.02,9.05-4.99,4.55-6.07,2.21-9.18.8-10.33-.44-.36-.57-.97-.32-1.48,1.6-3.26,6.5-14.22,4.09-21.93-2.86-9.15-12.58-22.59-31.45-21.45-18.86,1.14-25.73,5.71-30.3,18,0,.01,0,0,0,.02-.08.3-7.13,25.56-2.67,49.43.68,3.61,3.53,6.46,7.16,7.02,2.14.33,4.85.55,8.09.45,1.96-.06,4.14-.38,6.37-.86,1.83-.39,3.64-.87,5.41-1.43l10.31-4.32Z"/>
          <path class="cls-2" d="m490.68,95.15c-2.33,0-4.56-.16-6.65-.48-3.97-.61-7.15-3.72-7.9-7.74-4.47-23.93,2.61-49.57,2.68-49.83,4.85-13.02,12.4-17.53,31.11-18.66,19.67-1.21,29.62,13.31,32.35,22.07,2.51,8.03-2.54,19.32-4.14,22.58-.07.14-.04.3.09.41,1.49,1.22,4.41,4.8-.66,11.55-4.78,6.37-8.39,6.03-10.12,5.26-.07-.03-.3-.12-.47.01l-2.63,1.99c-3.07,2.32-6.29,4.37-9.59,6.11l-.83-1.57c3.21-1.69,6.36-3.7,9.35-5.96l2.63-1.99c.64-.48,1.48-.56,2.26-.22,1,.44,3.79.88,7.98-4.71,4-5.33,2.31-8,.95-9.11-.76-.62-.99-1.67-.55-2.56,1.53-3.12,6.36-13.87,4.04-21.27-3.21-10.27-13.19-21.88-30.55-20.83-18.06,1.09-24.96,5.16-29.53,17.42-.06.2-7.03,25.45-2.64,48.98.61,3.28,3.19,5.81,6.42,6.31,2.47.38,5.13.53,7.93.44,1.76-.05,3.85-.34,6.21-.84,1.77-.38,3.57-.85,5.33-1.4l.53,1.69c-1.82.57-3.66,1.06-5.49,1.45-2.46.52-4.66.82-6.52.88-.54.02-1.07.03-1.6.03Z"/>
        </g>
        <g>
          <path class="cls-2" d="m549.2,52.73c5.5-10.52,5.28-23.37-.76-33.59-1.74-2.95-4.04-5.81-7.06-8.07-11.94-8.92-29.1-7.41-29.1-7.41,0,0-6.86-5.38-22.59,4.14-15.73,9.52-17.73,28.57-12.3,40.35l7.9-8.65c.37-.41.98-.46,1.41-.12,2.27,1.83,9.7,7.16,20.92,8.62.56.07,1.03-.46.89-1l-2.45-9.12c-.08-.31.29-.55.51-.31,2.63,2.78,11.2,9.73,25.72,1.77,0,0,4.49,7.41.94,16.25-1.2,3-1.43,6.3-1.02,9.5h0c.14,1.11,1.35,1.72,2.31,1.17,3.66-2.11,11.32-7.11,14.68-13.52Z"/>
          <path class="cls-2" d="m533.75,67.35c-.37,0-.73-.08-1.07-.25-.74-.37-1.24-1.07-1.35-1.9-.47-3.65-.1-6.99,1.08-9.94,2.72-6.77.47-12.69-.49-14.72-12.56,6.52-20.82,2.07-24.49-.96l1.93,7.19c.14.54,0,1.12-.37,1.54-.38.43-.92.64-1.49.57-11.55-1.51-19.27-7.13-21.36-8.81l-9,9.66-.56-1.21c-6-13-2.91-32.07,12.64-41.48,14.44-8.74,21.74-5.25,23.29-4.29,2.48-.17,18.07-.85,29.39,7.61,2.83,2.11,5.28,4.91,7.3,8.32,6.15,10.41,6.45,23.61.78,34.46h0c-3.39,6.49-10.87,11.48-15.02,13.88-.37.22-.79.33-1.21.33Zm-1.14-29.2l.44.73c.19.32,4.68,7.89,1.01,17.05-1.07,2.67-1.4,5.71-.97,9.06.04.33.27.48.37.53.12.06.35.13.61-.02,3.21-1.85,11.03-6.85,14.34-13.17,5.38-10.3,5.1-22.84-.74-32.73-1.89-3.21-4.19-5.84-6.83-7.81-11.53-8.62-28.32-7.25-28.49-7.24l-.35.03-.28-.22c-.06-.04-6.68-4.82-21.58,4.2-15.57,9.42-16.67,27.37-12.48,37.97l6.98-7.63c.7-.76,1.82-.85,2.62-.21,2,1.61,9.39,6.99,20.48,8.44l-2.53-9.02c-.14-.54.1-1.1.58-1.37.48-.27,1.06-.18,1.43.22,2.83,2.99,10.9,9.13,24.65,1.6l.75-.41Z"/>
        </g>
        <path class="cls-3" d="m542.61,61.71l-1.04-1.44c4.21-3.03,6.81-7.9,6.83-7.95l1.57.83c-.11.21-2.82,5.29-7.37,8.56Z"/>
        <path class="cls-3" d="m530.33,34.81c-.02-.27-.51-6.61-7.08-10.59l.92-1.52c7.39,4.48,7.91,11.69,7.93,11.99l-1.77.11Z"/>
        <path class="cls-3" d="m517.19,20.11c-.44-.12-10.72-2.97-13.55-8.65-.9-1.81-.97-3.7-.2-5.62l1.65.66c-.58,1.46-.54,2.82.13,4.17,2.47,4.97,12.33,7.7,12.43,7.73l-.47,1.71Z"/>
        <path class="cls-3" d="m475.82,42.88c-.19-.18-4.67-4.48-5.77-13.66l1.76-.21c1.02,8.5,5.19,12.54,5.23,12.58l-1.22,1.29Z"/>
        <path class="cls-2" d="m488.93,76.35c-.66,0-1.29-.02-1.84-.05-.77-.04-1.47-.39-1.97-.98-.5-.59-.73-1.37-.65-2.14.86-7.39,5.42-13.94,5.61-14.22l1.45,1.02c-.04.06-4.49,6.47-5.3,13.4-.03.29.05.57.24.79.18.21.43.34.71.35,1.62.09,4.69.12,7.23-.6l.49,1.71c-1.95.56-4.12.72-5.97.72Z"/>
        <path class="cls-2" d="m500.22,60.61c-1.34,2.93-.82,6.04,1.16,6.94,1.98.9,4.67-.74,6.01-3.67s.82-6.04-1.16-6.94-4.67.74-6.01,3.67Z"/>
        <path class="cls-2" d="m479.12,54.01c-1.26,2.97-.65,6.06,1.35,6.91,2,.85,4.65-.87,5.9-3.83s.65-6.06-1.35-6.91c-2-.85-4.65.87-5.9,3.83Z"/>
        <path class="cls-2" d="m527.51,80.37c-.11-.06-2.68-1.63-3.45-6.01l1.75-.31c.62,3.52,2.53,4.74,2.62,4.79l-.91,1.52Z"/>
        <g>
          <path class="cls-1" d="m417.7,169.75c-3.01,6.5-5.68,11.63-7.52,13.91-7.75,9.63-24.43,1.17-20.91-15.74,2.83-13.58,23.06-50.87,30.94-65.06,2.02-3.64,4.94-6.7,8.48-8.89l8.35-5.16c1.8-1.11,3.85-1.77,5.96-1.91l9.47,1.17,20.84-3.01c3.39-.2,6.77.43,9.87,1.82,3.43,1.54,6.39,3.96,8.57,7.03l11.32,15.9c2.97,9.49-8.4,5.36-8.4,5.36,0,0-.59-.57-1.58-1.48h0s-4.15,1.85-6.05-.74c-1.9-2.58-6.12-8.69-6.12-8.7-3.56-2.18-13.71,1.42-16.22,1.42-5.73,0-9.01-1.39-14.58-1.99-2.93-.31-4.23,1.09-5.73,3.63l-3.56,6.02c-.22.37-.4.75-.56,1.16-1.06,2.8-11.68,28.37-17.16,41.93l-5.4,13.34Z"/>
          <path class="cls-2" d="m401.92,188.6c-1.76,0-3.57-.41-5.34-1.24-5.56-2.63-10.25-9.72-8.19-19.63,2.83-13.6,22.65-50.21,31.03-65.31,2.09-3.77,5.13-6.95,8.79-9.22l8.35-5.16c1.92-1.19,4.12-1.89,6.37-2.04l9.52,1.16,20.72-2.99c3.6-.21,7.15.44,10.36,1.88,3.57,1.6,6.66,4.13,8.93,7.32l11.44,16.15c.89,2.83.67,4.91-.65,6.17-2.59,2.48-8.26.52-8.9.29l-.32-.2s-.43-.42-1.16-1.09c-1.34.46-4.71,1.28-6.57-1.24-1.63-2.21-4.94-6.99-6.03-8.56-2.27-1.18-7.75.06-11.4.88-1.86.42-3.34.76-4.2.76-3.53,0-6.13-.51-8.87-1.05-1.78-.35-3.61-.71-5.8-.94-2.41-.26-3.44.78-4.87,3.2l-3.56,6.02c-.19.33-.36.66-.49,1.02-.53,1.42-3.51,8.65-6.95,17.02-3.47,8.42-7.48,18.17-10.21,24.93l-1.65-.67c2.74-6.76,6.75-16.52,10.22-24.94,3.44-8.36,6.41-15.58,6.94-16.97.17-.45.38-.88.62-1.29l3.56-6.02c1.4-2.36,2.94-4.44,6.59-4.06,2.26.24,4.14.61,5.95.97,2.66.52,5.18,1.02,8.53,1.02.66,0,2.19-.35,3.81-.71,4.25-.96,10.08-2.28,12.87-.58l.25.22c1.08,1.56,4.48,6.47,6.13,8.71,1.46,1.98,4.94.47,4.98.45l.53-.23.43.39c.72.65,1.22,1.14,1.46,1.36,1.58.54,5.42,1.44,6.89.03.95-.91.66-2.78.22-4.23l-11.24-15.79c-2.09-2.93-4.92-5.26-8.21-6.73-2.95-1.33-6.22-1.93-9.45-1.74l-20.88,3.02-9.59-1.19c-1.79.14-3.71.75-5.38,1.78l-8.35,5.16c-3.4,2.1-6.23,5.07-8.17,8.57-8.35,15.04-28.06,51.45-30.85,64.81-2,9.58,2.64,15.5,7.21,17.66,4.4,2.08,9.17,1.04,12.14-2.66,1.64-2.04,4.14-6.66,7.41-13.73l1.61.75c-3.33,7.2-5.9,11.94-7.63,14.09-2.31,2.87-5.53,4.39-8.94,4.39Z"/>
        </g>
        <g>
          <g>
            <path class="cls-2" d="m451.64,103.66s-1.99-4.35-.58-9.4c1.41-5.05,4.94-9.25,4.94-9.25,0,0,2.51-6.56-5.44-5.41-7.95,1.15-12.88-.21-11.47,5.41,1.41,5.61,1.98,6.08,7.1,5.61,0,0-5.83,3.91,0,14.64,0,0,3.46,4.85,5.46-1.6Z"/>
            <path class="cls-2" d="m448.84,107.91c-1.83,0-3.23-1.89-3.4-2.12-4.08-7.51-2.8-11.94-1.38-14.14-3.72-.05-4.57-1.28-5.85-6.41-.45-1.77-.34-3.03.33-3.96,1.13-1.58,3.55-1.77,6.9-2.03,1.47-.12,3.14-.25,4.97-.51,2.87-.42,4.87.07,5.97,1.44,1.61,2.01.48,5.03.43,5.16l-.15.25s-3.42,4.12-4.76,8.92c-1.31,4.68.51,8.75.53,8.79l.14.31-.1.32c-.74,2.4-1.83,3.72-3.22,3.95-.14.02-.28.03-.42.03Zm.71-18.48l-2.88,1.94c-.2.14-5.04,3.67.28,13.48.31.41,1.31,1.39,2.03,1.28.6-.1,1.22-.98,1.71-2.42-.45-1.16-1.76-5.13-.49-9.68,1.33-4.74,4.39-8.69,5-9.45.23-.7.55-2.35-.2-3.29-.84-1.05-2.82-1.01-4.32-.79-1.88.27-3.58.41-5.09.52-2.76.22-4.95.39-5.6,1.29-.34.47-.36,1.29-.06,2.5,1.32,5.23,1.49,5.37,6.16,4.94l3.46-.32Z"/>
          </g>
          <path class="cls-3" d="m444.49,88.95c-1.56,0-3.26-.15-4.93-.57l.43-1.72c5.18,1.29,10.77-.28,10.82-.3l.49,1.7c-.17.05-3.12.88-6.81.88Z"/>
        </g>
        <path class="cls-3" d="m365.14,344.02c-.04-.24-.91-5.89.72-12.76l1.73.41c-1.55,6.54-.71,12.02-.7,12.08l-1.75.28Z"/>
        <path class="cls-3" d="m371.45,322.52l-1.48-.97c4.06-6.18,15.87-20.28,37.81-17.62,14.73,1.78,38.02,5.61,38.25,5.64l-.29,1.75c-.23-.04-23.49-3.86-38.18-5.63-20.97-2.52-32.24,10.93-36.12,16.83Z"/>
        <path class="cls-3" d="m528.31,292.24c-2.85,0-16.57-.96-20.33-19.04l1.74-.36c3.86,18.59,18.8,17.63,18.97,17.62l.14,1.77s-.2.01-.52.01Z"/>
        <rect class="cls-3" x="436.35" y="248.15" width="1.77" height="38.19" transform="translate(42 593.41) rotate(-70.96)"/>
        <rect class="cls-3" x="266.47" y="375.81" width="1.77" height="18.95" transform="translate(-171.32 219.49) rotate(-34.54)"/>
        <rect class="cls-3" x="398.22" y="468.59" width="21.17" height="1.77" transform="translate(-84.74 90.09) rotate(-11.4)"/>
        <rect class="cls-3" x="267.84" y="354.98" width="50.74" height="1.78" transform="translate(-158.64 263.96) rotate(-39.02)"/>
        <rect class="cls-3" x="395.12" y="435.96" width="1.78" height="23.53" transform="translate(-83.82 91.29) rotate(-11.9)"/>
        <path class="cls-3" d="m405.9,276.08c-.25-.49-6.26-12.03-20.59-8.53l-.42-1.72c15.75-3.85,22.53,9.33,22.6,9.46l-1.58.8Z"/>
        <path class="cls-2" d="m394.16,529.51c-2.33,0-4.89-.69-7.64-2.07l.8-1.59c3.84,1.92,7.19,2.37,9.94,1.34,4.67-1.76,7-7.46,8.54-11.23l.91.13.74.54c-1.65,4.06-4.16,10.19-9.56,12.22-1.16.44-2.4.66-3.72.66Z"/>
        <path class="cls-2" d="m226.01,404.95c-3.5,0-8.07-.64-11.47-3.44-3.12-2.55-4.67-6.43-4.63-11.51l1.77.02c-.04,4.52,1.3,7.92,3.98,10.12,5.55,4.55,15.08,2.62,15.18,2.6l.36,1.74c-.19.04-2.33.47-5.2.47Z"/>
        <path class="cls-1" d="m470.31,190.33c-.42,0-.83-.07-1.22-.2l-2.93-.99.57-1.68,2.93.99c.33.11.68.14,1.01.08l.31,1.75c-.22.04-.44.06-.67.06Zm3.16-1.71l-1.53-.9.1-.14c.74-1.13,1.48-2.43,2.17-3.8l1.58.8c-.72,1.43-1.5,2.79-2.32,4.04Zm-9.47-.21l-3.52-1.19c-.35-.12-.67-.28-.97-.49l1.01-1.46c.16.11.34.2.53.27l3.52,1.19-.57,1.68Zm-6.06-4c-.44-1.43-.79-2.97-1.02-4.58l1.76-.26c.22,1.52.55,2.98.96,4.31l-1.7.53Zm18.85-1.94l-1.63-.71c.6-1.37,1.13-2.78,1.57-4.18l1.69.53c-.46,1.46-1.01,2.93-1.63,4.36Zm-20.14-4.97c-.1-1.18-.14-2.36-.14-3.51,0-.38,0-.77.01-1.14l1.77.04c0,.36-.01.73-.01,1.1,0,1.1.04,2.23.14,3.36l-1.77.15Zm22.41-1.63l-1.72-.44c.37-1.44.67-2.91.88-4.38l1.76.26c-.22,1.53-.54,3.06-.92,4.56Zm-20.66-5.22l-1.77-.12c.1-1.5.28-3.05.52-4.61l1.76.27c-.23,1.5-.4,3-.5,4.46Zm20.02-1.62c-.09-.72-.6-1.36-1.3-1.63l-1.33-.51.63-1.66,1.33.51c1.3.5,2.25,1.7,2.42,3.06l-1.76.23Zm-4.76-2.95l-4.26-1.63.64-1.66,4.26,1.64-.64,1.66Zm-14.38-2.09l-1.74-.35.18-.87c.35-1.63,1.69-2.84,3.34-3l.18,1.77c-.88.09-1.59.73-1.77,1.6l-.17.85Zm7.99-.36l-4.26-1.63.64-1.66,4.26,1.63-.64,1.66Z"/>
        <path class="cls-2" d="m556.38,192.74l-.45-1.72c16.61-4.38,23.58-17.83,23.65-17.96l1.58.8c-.29.58-7.37,14.29-24.78,18.88Z"/>
        <path class="cls-3" d="m395.34,352.98l-.28-1.75c5.68-.9,10.1-4.04,10.14-4.07l6.62-5.93,1.18,1.32-6.69,5.99c-.27.2-4.88,3.48-10.97,4.44Z"/>
        <rect class="cls-3" x="356.02" y="286.39" width="15.3" height="1.77" transform="translate(-99.69 296.59) rotate(-39.46)"/>
        <g>
          <g>
            <path class="cls-3" d="m469.58,445.65c-3.37-2.7-4.77-7.98-3.85-14.49l13.08-111.16c1.47-10.33,8.58-21.31,16.92-26.13l59.46-34.33c8.34-4.81,24.49,2.33,25.96,10.96l5.98,90.57c.92,5.44,7.07,13.25,3.7,19.85-3.37,6.6-9.17,14.82-14.42,17.85l-88.77,54.48c-8.24,1.93-14.7-4.9-18.07-7.6Zm41.36-141.44c-3.01,1.74-17.2,15.03-17.73,18.75l-16.66,104.19c-.35,2.46.18,4.46,1.46,5.49,1.28,1.02,3.15.95,5.14-.2l86.56-49.98c1.99-1.15,3.86-3.24,5.14-5.74,1.28-2.5,1.81-5.11,1.46-7.17l-15.02-94.94c-.53-3.11-3.1-4.11-6.1-2.38l-44.26,31.97Z"/>
            <path class="cls-2" d="m484.73,454.48c-6.2,0-11.17-4.26-14.32-6.96-.51-.44-.98-.84-1.4-1.17-3.62-2.9-5.14-8.48-4.17-15.3l13.08-111.14c1.5-10.59,8.8-21.85,17.36-26.79l59.46-34.33c5.14-2.97,12.24-1.56,17.17.76,5.63,2.65,9.41,6.69,10.11,10.82l5.99,90.66c.27,1.55,1.08,3.49,1.94,5.54,1.95,4.65,4.15,9.91,1.67,14.77-3.5,6.84-9.42,15.13-14.76,18.21l-89.01,54.58c-1.07.25-2.1.36-3.11.36Zm76.99-195.59c-2.33,0-4.43.47-6.09,1.43l-59.46,34.33c-8.12,4.69-15.05,15.41-16.49,25.48l-13.08,111.14c-.88,6.21.4,11.19,3.52,13.69.43.35.91.76,1.44,1.21,3.6,3.09,9.02,7.73,15.73,6.25l88.65-54.41c5.05-2.92,10.71-10.89,14.09-17.5,2.11-4.12.07-8.98-1.72-13.28-.9-2.15-1.75-4.18-2.06-6.02l-5.99-90.66c-.58-3.42-4.08-7.06-9.1-9.42-3.18-1.49-6.49-2.25-9.44-2.25Zm-81.58,175.36c-1.01,0-1.93-.31-2.69-.92-1.53-1.23-2.18-3.52-1.78-6.3l16.66-104.2c.6-4.2,15.12-17.58,18.12-19.36l44.23-31.95c1.88-1.09,3.65-1.3,5.06-.63,1.28.6,2.14,1.87,2.43,3.58l15.02,94.95c.38,2.24-.18,5.05-1.55,7.72-1.35,2.65-3.35,4.87-5.48,6.1l-86.56,49.98c-1.2.69-2.37,1.04-3.45,1.04Zm77.82-161.97c-.69,0-1.49.25-2.32.73l-44.26,31.97c-3.25,1.88-16.85,15.02-17.29,18.11l-16.66,104.2c-.3,2.13.11,3.83,1.14,4.66.97.78,2.48.68,4.14-.27l86.56-49.98c1.85-1.07,3.59-3.02,4.79-5.37,1.19-2.33,1.69-4.74,1.37-6.62l-15.02-94.95c-.13-.78-.49-1.82-1.44-2.26-.3-.14-.65-.21-1.02-.21Z"/>
          </g>
          <g>
            <path class="cls-1" d="m486.36,447.3l-6.36-6.56,1.64-7.47c.36-.14.72-.28,1.09-.49l86.56-49.98,9.43,6.08-92.35,58.41Z"/>
            <path class="cls-2" d="m486.23,448.43l-7.19-7.42,1.84-8.4.44-.17c.33-.13.64-.25.97-.43l87.03-50.25,11.05,7.13-94.13,59.54Zm-5.26-7.97l5.53,5.7,90.57-57.28-7.8-5.04-86.1,49.71c-.26.15-.51.27-.76.37l-1.43,6.54Z"/>
          </g>
          <g>
            <path class="cls-1" d="m561.5,274.39c-.53-3.11-3.1-4.11-6.1-2.38l-44.26,31.97c-1.99,1.15-8.85,7.34-13.43,12.49l-5.61-1.87-9.5-5.91c3.18-6.35,8-11.96,13.34-15.04l58-33.49h0l12.14,4.57-4.58,9.65Z"/>
            <path class="cls-2" d="m497.98,317.5l-6.16-2.05-10.38-6.43.36-.72c3.36-6.71,8.35-12.33,13.69-15.41l58.36-33.7,13.44,5.06-6.19,13.06-.47-2.77c-.13-.79-.49-1.83-1.44-2.27-.87-.41-2.06-.23-3.34.51l-44.18,31.92c-1.86,1.08-8.63,7.13-13.29,12.36l-.39.44Zm-14.22-9.13l8.81,5.48,4.87,1.6c4.52-5,11.19-11.04,13.26-12.23l44.18-31.92c1.88-1.09,3.65-1.29,5.06-.63.67.32,1.23.82,1.65,1.47l3.27-6.9-10.85-4.09-57.64,33.28c-4.86,2.8-9.42,7.86-12.62,13.95Z"/>
          </g>
          <g>
            <path class="cls-2" d="m492.3,329.46l-15.62,97.69c-.35,2.46.18,4.46,1.46,5.49,1.28,1.02,3.15.95,5.14-.2l-2.86,7.96c-3.82,10.54,21.11-1.64,17.66,6.53l-10.3,6.32c-8.24,1.93-14.7-4.9-18.07-7.6-3.37-2.7-4.77-7.98-3.85-14.49l13.08-111.16,9.43,6.08,3.93,3.38Z"/>
            <path class="cls-2" d="m484.87,454.48c-6.2,0-11.17-4.26-14.32-6.96-.51-.44-.98-.84-1.4-1.17-3.62-2.9-5.14-8.48-4.17-15.3l13.25-112.56,10.62,6.85,4.41,3.77-15.7,98.18c-.3,2.13.11,3.83,1.14,4.66.98.78,2.49.68,4.14-.27l2.1-1.21-3.68,10.24c-.44,1.21-.46,2.07-.07,2.55,1.08,1.34,5.39.75,8.86.28,4.03-.55,7.52-1.03,8.8.64.58.76.6,1.8.06,3.1l-.11.26-10.81,6.58c-1.07.25-2.11.36-3.11.36Zm-5.21-132.96l-12.92,109.75c-.88,6.21.41,11.19,3.53,13.69.43.35.91.76,1.44,1.21,3.6,3.09,9.02,7.74,15.73,6.25l9.93-6.09c.18-.51.21-.89.07-1.07-.65-.85-4.41-.34-7.16.04-4.51.61-8.77,1.19-10.48-.92-.81-1-.88-2.44-.22-4.27l2.17-6.05c-1.59.42-3.05.19-4.18-.71-1.53-1.22-2.18-3.52-1.78-6.3l15.54-97.22-3.56-3.05-8.13-5.24Z"/>
          </g>
          <g>
            <path class="cls-2" d="m574.87,376.72c1.28-2.5,1.81-5.11,1.46-7.17l-14.77-93.36,10.27-5.98,9.47,2.28,5.85,88.58c.89,5.27,6.67,12.77,3.96,19.23-3.73,1.42-6.81,2.5-6.81,2.5l-9.43-6.08Z"/>
            <path class="cls-2" d="m584.18,383.78l-10.47-6.75.36-.72c1.19-2.33,1.69-4.74,1.37-6.62l-14.86-93.97,11.1-6.47,10.45,2.51.04.65,5.85,88.58c.27,1.55,1.07,3.48,1.93,5.53,1.84,4.42,3.93,9.43,1.97,14.1l-.15.35-.36.13c-3.74,1.42-6.83,2.51-6.83,2.51l-.41.14Zm-8.17-7.38l8.4,5.42c.91-.32,3.26-1.17,6.02-2.21,1.43-3.91-.45-8.41-2.1-12.39-.89-2.15-1.74-4.17-2.05-6.01l-5.81-88.02-8.49-2.04-9.44,5.5,14.67,92.76c.34,2.03-.09,4.55-1.2,6.99Z"/>
          </g>
          <g>
            <path class="cls-3" d="m479,451.73c-3.37-2.7-4.77-7.98-3.85-14.49l13.08-111.16c1.47-10.33,8.58-21.31,16.92-26.13l59.46-34.33c8.34-4.81,15.45-2.04,16.92,6.59l15.02,94.94c.92,5.44-.48,12.34-3.85,18.93-3.37,6.6-8.32,12.12-13.57,15.15l-86.56,49.98c-5.25,3.03-10.2,3.22-13.57.52Zm26.15-139.08c-3.01,1.74-5.57,5.7-6.1,9.42l-13.08,111.16c-.35,2.46.18,4.46,1.46,5.49,1.28,1.02,3.15.95,5.14-.2l86.56-49.98c1.99-1.15,3.86-3.24,5.14-5.74,1.28-2.5,1.81-5.11,1.46-7.17l-15.02-94.94c-.53-3.11-3.1-4.11-6.1-2.38l-59.46,34.33Z"/>
            <path class="cls-2" d="m484.65,454.52c-2.34,0-4.46-.7-6.2-2.1h0c-3.62-2.9-5.14-8.48-4.17-15.3l13.08-111.14c1.5-10.59,8.8-21.85,17.36-26.79l59.46-34.33c4.54-2.62,8.94-3.18,12.37-1.56,3.07,1.44,5.15,4.56,5.87,8.77l15.02,94.95c.95,5.61-.48,12.71-3.94,19.48-3.45,6.74-8.52,12.4-13.92,15.51l-86.56,49.98c-2.93,1.69-5.78,2.54-8.36,2.54Zm87.66-190.36c-2.21,0-4.69.75-7.25,2.23l-59.46,34.33c-8.12,4.69-15.05,15.41-16.49,25.48l-13.08,111.14c-.88,6.21.41,11.19,3.53,13.69h0c3.07,2.47,7.65,2.25,12.57-.59l86.56-49.98c5.11-2.95,9.93-8.34,13.22-14.78,3.29-6.43,4.66-13.13,3.77-18.38l-15.02-94.95c-.62-3.67-2.31-6.25-4.87-7.45-1.05-.49-2.23-.74-3.48-.74Zm-82.74,176.17c-1.01,0-1.93-.3-2.69-.92-1.53-1.23-2.18-3.52-1.78-6.3l13.08-111.14c.57-3.99,3.32-8.22,6.54-10.08l59.46-34.33c1.8-1.04,3.57-1.25,4.99-.58,1.28.6,2.14,1.87,2.44,3.58l15.02,94.95c.38,2.24-.18,5.05-1.55,7.72-1.35,2.65-3.35,4.87-5.49,6.1l-86.56,49.98c-1.2.69-2.38,1.04-3.45,1.04Zm16.03-126.91c-2.79,1.61-5.17,5.3-5.67,8.78l-13.08,111.14c-.3,2.16.11,3.87,1.13,4.69.97.78,2.48.68,4.14-.27l86.56-49.98c1.84-1.07,3.59-3.02,4.79-5.38,1.19-2.33,1.69-4.74,1.37-6.62l-15.02-94.95c-.13-.78-.49-1.82-1.44-2.26-.87-.41-2.06-.22-3.35.51l-59.46,34.33Z"/>
          </g>
          <rect class="cls-3" x="481.61" y="326.14" width="1.77" height="7.93" transform="translate(-52.24 566.36) rotate(-58.22)"/>
          <rect class="cls-3" x="566.33" y="281.97" width="1.77" height="7.93" transform="translate(25.37 617.45) rotate(-58.21)"/>
          <rect class="cls-3" x="580.31" y="369.5" width="1.77" height="7.93" transform="translate(-42.4 670.77) rotate(-58.21)"/>
          <rect class="cls-3" x="469.58" y="428.96" width="1.77" height="8.49" transform="translate(-145.8 604.13) rotate(-58.14)"/>
        </g>
        <g>
          <path class="cls-1" d="m489.12,251.56l33.08,12.35c1.2.45,1.1,2.18-.15,2.46-10.51,2.34-37.52,8.05-42.79,6.33-6.57-2.15-41.23-25.37-41.23-25.37l51.09,4.23Z"/>
          <path class="cls-2" d="m482.27,273.89c-1.42,0-2.55-.11-3.29-.35-6.61-2.17-40.03-24.52-41.45-25.47l-2.84-1.9,54.74,4.57,33.08,12.35c.92.34,1.49,1.23,1.42,2.2-.07.98-.73,1.75-1.69,1.96-11.93,2.65-31.38,6.66-39.97,6.66Zm-40.89-25.4c8.43,5.59,32.87,21.62,38.15,23.36,3.47,1.14,19.3-1.23,42.32-6.35.25-.05.29-.24.3-.35,0-.09,0-.32-.27-.41l-32.96-12.31-47.54-3.94Z"/>
        </g>
        <g>
          <path class="cls-1" d="m471.4,239.03c9.57-5.95,11.91-5.19,11.91-5.19l.33-1.89c-2.73-1.05-5.05-2.06-7.67-.76l-3.88,1.93c-1.14.57-2.13-1.78-2.18-3.05h0c-.12-3.11,1.62-6,4.44-7.33l3.38-1.6c2.11-.99,4.48-1.26,6.75-.74l21.55,4.85s32.58,3.13,52.31,11.9l3.57.52s-3.93-15.55-8.76-33.56c17.75-2.91,25.47-10.26,28.56-14.57l.48.33s4.97,17.84,10.3,43.53c3.7,17.85,2.26,30.86,1.03,37.13-.56,2.88-2.96,5.07-5.89,5.15-4.55.13-12.49-1.14-24.59-7.83-16.75-9.25-34.23-15.91-40.6-18.22-1.64-.59-3.34-.96-5.07-1.1h0c-3.32-.27-6.66.3-9.71,1.67l-7.85,3.53c-1.9.85-3.88,1.51-5.91,1.96l-5.48,1.22c-5.48,1.22-11.19.91-16.51-.89l-6.05-2.05c-2.72-.92-4-4.06-2.65-6.6,1.35-2.52,3.78-5.59,8.19-8.33Z"/>
          <path class="cls-2" d="m587.04,276.56c-4.73,0-12.66-1.45-24.43-7.94-16.59-9.16-33.83-15.75-40.48-18.16-1.55-.56-3.18-.91-4.84-1.05-3.17-.25-6.37.29-9.27,1.59l-7.85,3.53c-1.95.88-4,1.55-6.08,2.02l-5.48,1.22c-5.64,1.25-11.52.93-16.98-.92l-6.05-2.05c-1.56-.53-2.8-1.71-3.41-3.24-.6-1.51-.5-3.19.26-4.62,1.79-3.36,4.65-6.27,8.5-8.66h0c6.8-4.23,10.13-5.18,11.63-5.33l.07-.43c-2.33-.9-4.22-1.56-6.27-.53l-3.88,1.93c-.53.27-1.11.24-1.63-.07-1.12-.67-1.79-2.6-1.83-3.74-.14-3.48,1.8-6.68,4.95-8.17l3.38-1.6c2.27-1.07,4.87-1.36,7.33-.81l21.56,4.85c.22.01,32.72,3.22,52.37,11.91l2.13.31c-1.04-4.09-4.45-17.41-8.43-32.27l-.25-.95.97-.16c17.54-2.87,25.06-10.13,27.98-14.21l.5-.7,1.46,1,.09.31c.05.18,5.04,18.16,10.31,43.59,3.74,18.05,2.26,31.23,1.04,37.48-.66,3.36-3.42,5.77-6.73,5.86-.2,0-.41,0-.62,0Zm-71.29-28.99c.56,0,1.12.02,1.68.07,1.82.15,3.61.54,5.3,1.15,6.68,2.42,24.03,9.05,40.73,18.27,11.94,6.6,19.68,7.85,24.14,7.71,2.47-.07,4.54-1.89,5.04-4.43,1.19-6.12,2.65-19.04-1.03-36.78-4.55-21.93-8.89-38.31-10.01-42.45-3.5,4.31-11.27,10.85-27.36,13.69,4.66,17.42,8.47,32.48,8.51,32.63l.33,1.28-5.11-.77c-19.38-8.61-51.71-11.8-52.04-11.83l-21.66-4.87c-2.07-.46-4.26-.22-6.18.68l-3.38,1.6c-2.5,1.18-4.04,3.73-3.93,6.49.04.95.67,2.18.98,2.29l3.8-1.93c2.84-1.41,5.33-.45,7.98.58l1.08.41-.63,3.62-.97-.32s-.01,0-.05,0c-.39,0-3.16.15-11.11,5.1h0c-3.58,2.23-6.23,4.92-7.87,7.99-.52.97-.58,2.11-.18,3.13.41,1.04,1.26,1.85,2.32,2.21l6.05,2.05c5.17,1.75,10.71,2.05,16.03.87l5.48-1.22c1.97-.44,3.9-1.08,5.74-1.9l7.85-3.53c2.66-1.19,5.55-1.81,8.46-1.81Z"/>
        </g>
        <path class="cls-2" d="m570.16,243.66c-.06-.03-6.24-3.44-12.13-5.68l.63-1.66c6.01,2.29,12.3,5.76,12.36,5.79l-.86,1.55Z"/>
        <g>
          <path class="cls-3" d="m483.42,271.21l-24.84-64.12c-1.22-3.15-3.76-5.62-6.95-6.74l-75.87-26.78c-1.34-.47-2.61.84-2.1,2.16l25.73,66.32c1.26,3.24,3.89,5.74,7.19,6.82l74.77,24.52c1.33.44,2.57-.87,2.06-2.18Z"/>
          <path class="cls-2" d="m481.88,274.35c-.27,0-.54-.04-.8-.13l-74.77-24.52c-3.56-1.17-6.38-3.84-7.74-7.34l-25.73-66.32c-.36-.94-.16-1.97.54-2.69.7-.72,1.72-.97,2.68-.63l75.87,26.78c3.44,1.21,6.16,3.86,7.48,7.26l24.84,64.12c.36.93.16,1.95-.53,2.67-.49.52-1.16.8-1.84.8Zm-106.68-100.01c-.29,0-.49.17-.55.24-.08.08-.33.39-.16.82l25.73,66.32c1.16,3,3.59,5.3,6.64,6.3l74.77,24.52c.42.14.72-.12.8-.2.08-.08.32-.39.16-.81l-24.84-64.12c-1.13-2.91-3.47-5.18-6.42-6.23l-75.87-26.78c-.09-.03-.18-.05-.26-.05Z"/>
        </g>
        <g>
          <path class="cls-1" d="m421.86,228.1c2.86,3.74,6.85,5.5,8.89,3.93,2.04-1.57,1.38-5.87-1.49-9.61-2.86-3.74-6.85-5.5-8.89-3.93-2.04,1.57-1.38,5.87,1.49,9.61Z"/>
          <path class="cls-2" d="m428.92,233.5c-.82,0-1.72-.21-2.67-.63-1.81-.8-3.63-2.3-5.1-4.23-1.47-1.92-2.45-4.06-2.76-6.02-.33-2.15.18-3.86,1.43-4.83,2.47-1.89,6.92-.09,10.13,4.1,1.47,1.92,2.45,4.06,2.76,6.02.33,2.15-.18,3.86-1.43,4.83-.66.5-1.46.76-2.37.76Zm-6.73-14.67c-.51,0-.95.13-1.27.38-.71.54-.99,1.69-.76,3.15.26,1.67,1.12,3.52,2.41,5.21s2.86,3,4.41,3.69c1.35.6,2.53.63,3.24.08.71-.54.99-1.69.76-3.15-.26-1.67-1.11-3.52-2.41-5.21-2.11-2.75-4.66-4.14-6.37-4.14Z"/>
        </g>
        <rect class="cls-3" x="349" y="350.71" width="11.28" height="1.78" transform="translate(-142.26 301.79) rotate(-39.03)"/>
        <rect class="cls-3" x="535.21" y="265.8" width="4.65" height="1.77" transform="translate(170.3 741.23) rotate(-78.65)"/>
        <path class="cls-3" d="m235,423.4c-1.92,0-4.01-.32-6.26-1.1l.58-1.68c11.31,3.9,17.96-4.69,18.24-5.06l1.42,1.07c-.06.08-5.2,6.77-13.98,6.77Z"/>
        <path class="cls-3" d="m427.99,518.94l-1.58-.8c.17-.33,3.97-8.1-1.98-15.44l1.38-1.12c6.7,8.26,2.24,17.27,2.19,17.36Z"/>
        <rect class="cls-2" x="407.72" y="507.14" width="7.03" height="1.78" transform="translate(-128.82 876.18) rotate(-85.29)"/>
        <polygon class="cls-2" points="235.3 407.69 234.69 406.02 240.45 403.89 241.07 405.55 235.3 407.69"/>
        <rect class="cls-2" x="574.9" y="242.91" width="1.78" height="4.47" transform="translate(105.19 657.65) rotate(-64.3)"/>
        <rect class="cls-2" x="418.79" y="160.21" width="4.13" height="1.78" transform="translate(133 507.82) rotate(-71.25)"/>
        <rect class="cls-2" x="492.54" y="104.56" width="1.77" height="12.29" transform="translate(24.08 298.95) rotate(-34.5)"/>
        <rect class="cls-2" x="523.36" y="68.64" width="3.15" height="1.77" transform="translate(332.97 563.02) rotate(-76.29)"/>
        <rect class="cls-2" x="506.3" y="89.7" width="2.65" height="1.78" transform="translate(13.6 238.33) rotate(-26.77)"/>
        <path class="cls-2" d="m532.03,106.64s-3.52-2.11-9.65-2.22l.03-1.77c6.65.12,10.39,2.39,10.55,2.48l-.93,1.51Z"/>
        <rect class="cls-2" x="539.05" y="151.97" width="3.48" height="1.78" transform="translate(205.26 603.68) rotate(-69.12)"/>
        <rect class="cls-2" x="454.19" y="130.66" width="1.77" height="2.72"/>
        <path class="cls-2" d="m515.07,50.85c-.29-.02-7.35-.52-19.88-5.4l.64-1.65c12.24,4.77,19.28,5.28,19.35,5.28l-.12,1.77Z"/>
        <path class="cls-2" d="m518.16,50.85v-1.77c2.69,0,3.81-.57,3.82-.57l.86,1.55c-.14.08-1.5.79-4.68.79Z"/>
        <path class="cls-3" d="m524.72,38.14s-1.85-2.77-4.5-2.95l.12-1.77c3.54.24,5.77,3.6,5.87,3.74l-1.49.97Z"/>
        <path class="cls-3" d="m535.85,60.27l-.8-1.58c3.03-1.53,3.9-3.46,3.91-3.48l1.63.69c-.04.1-1.08,2.52-4.74,4.37Z"/>
        <path class="cls-3" d="m482.97,39.33c-.12-.11-2.84-2.82-4.09-5.47l1.6-.76c1.11,2.36,3.71,4.94,3.73,4.97l-1.25,1.26Z"/>
        <path class="cls-3" d="m513.49,11.45s-.76-.41-1.61-1.12c-1.63-1.36-2.41-3.45-2.07-5.57.34-2.16,1.75-3.94,3.77-4.75l.67,1.64c-1.44.58-2.44,1.85-2.68,3.39-.24,1.5.31,2.97,1.46,3.93.71.59,1.31.92,1.31.93l-.84,1.56Z"/>
        <rect class="cls-3" x="462.73" y="271.28" width="1.77" height="9.56" transform="translate(63.4 637.97) rotate(-72.89)"/>
        <rect class="cls-3" x="407.65" y="278.58" width="1.77" height="3.84" transform="translate(-31.31 52.2) rotate(-7.04)"/>
        <rect class="cls-3" x="386.76" y="351.48" width="5.1" height="1.77"/>
        <path class="cls-2" d="m530.15,88.05l-.61-1.66c10.23-3.78,14.56-13.74,14.6-13.84l1.64.69c-.19.44-4.65,10.77-15.62,14.81Z"/>
        <path class="cls-2" d="m545.53,84.78l-1.17-1.33c2.99-2.62,5.19-7.73,5.21-7.79l1.63.7c-.09.22-2.38,5.53-5.67,8.42Z"/>
        <path class="cls-3" d="m387.44,551.71c-2.32,0-4.83-.88-6.8-3.58l1.43-1.05c3.81,5.21,9.64,1.71,9.89,1.56l.94,1.51c-1.24.77-3.26,1.56-5.45,1.56Z"/>
        <path class="cls-3" d="m195.53,406.58c-3.52-1.77-5.62-4.05-6.23-6.77-.87-3.87,1.64-7.13,1.75-7.27l1.4,1.09s-2.1,2.76-1.41,5.81c.49,2.17,2.27,4.04,5.29,5.56l-.8,1.58Z"/>
        <rect class="cls-2" x="463.61" y="49.14" width="1.77" height="6.55" transform="translate(4.82 137.29) rotate(-16.9)"/>
        <path class="cls-2" d="m479.31,251.7c-2,0-4.33-.52-5.44-2.69l1.58-.81c1.41,2.77,6.75,1.35,6.8,1.33l.48,1.71c-.13.04-1.64.45-3.43.45Z"/>
      </g>
    </g>
    <g id="_10" data-name="10">
      <g>
        <path class="cls-2" d="m155.06,256.8l-2.01,1.16c-.21.12-.57.1-.8-.03l-1.9-1.1c-.24-.14-.26-.35-.06-.46l2.01-1.16c.21-.12.57-.1.81.03l1.9,1.1c.24.14.26.35.06.46Z"/>
        <path class="cls-2" d="m164.2,251.53l-2.01,1.16c-.21.12-.57.1-.8-.03l-1.9-1.1c-.24-.14-.26-.35-.06-.46l2.01-1.16c.21-.12.57-.1.8.03l1.9,1.1c.24.14.26.35.06.46Z"/>
        <path class="cls-2" d="m173.34,246.25l-2.01,1.16c-.21.12-.57.1-.81-.03l-1.9-1.1c-.24-.14-.26-.35-.06-.46l2.01-1.16c.21-.12.57-.1.81.03l1.9,1.1c.24.14.26.35.06.46Z"/>
        <path class="cls-2" d="m163.73,261.81l-2.01,1.16c-.21.12-.57.1-.81-.03l-1.9-1.1c-.24-.14-.26-.35-.06-.46l2.01-1.16c.21-.12.57-.1.8.03l1.9,1.1c.24.14.26.35.06.46Z"/>
        <path class="cls-2" d="m172.87,256.53l-2.01,1.16c-.21.12-.57.1-.81-.03l-1.9-1.1c-.24-.14-.26-.35-.06-.47l2.01-1.16c.21-.12.57-.1.81.03l1.9,1.1c.24.14.26.35.06.46Z"/>
        <path class="cls-2" d="m182.01,251.26l-2.01,1.16c-.21.12-.57.1-.8-.03l-1.9-1.1c-.24-.14-.26-.35-.06-.46l2.01-1.16c.21-.12.57-.1.81.03l1.9,1.1c.24.14.26.35.06.46Z"/>
        <path class="cls-2" d="m191.58,235.72l-2.01,1.16c-.21.12-.57.1-.81-.03l-1.9-1.1c-.24-.14-.26-.35-.06-.46l2.01-1.16c.21-.12.57-.1.81.03l1.9,1.1c.24.14.26.35.06.46Z"/>
        <path class="cls-2" d="m182.44,241l-2.01,1.16c-.21.12-.57.1-.81-.03l-1.9-1.1c-.24-.14-.26-.35-.06-.47l2.01-1.16c.21-.12.57-.1.8.03l1.9,1.1c.24.14.26.35.06.46Z"/>
        <path class="cls-2" d="m191.11,246l-2.01,1.16c-.21.12-.57.1-.81-.03l-1.9-1.1c-.24-.14-.26-.35-.06-.46l2.01-1.16c.21-.12.57-.1.81.03l1.9,1.1c.24.14.26.35.06.46Z"/>
      </g>
      <g>
        <g>
          <g>
            <g>
              <polygon class="cls-1" points="187.6 227.18 98.1 278.64 41.98 246.6 131.61 194.85 187.6 227.18"/>
              <path class="cls-2" d="m98.1,279.66l-57.9-33.06,91.41-52.77,57.77,33.36-91.28,52.48Zm-54.34-33.07l54.33,31.03,87.73-50.44-54.22-31.31-87.84,50.72Z"/>
            </g>
            <g>
              <g>
                <g>
                  <g>
                    <path class="cls-3" d="m143.49,293.03c0-.07.01-146.31.01-148.04,0-.18-.12-.32-.29-.37l-72.16,18.68s-.06-.02-.09-.04l20.59-40.51c-.12-.07-.28-.07-.4,0l-68.42,39.4c-.09.05-.2.07-.31.04l-8.31-2.32c-.26-.07-.51.11-.51.38,0,2.12.02,147.38.04,147.61v.07c.15,1.39.88,2.74,2.27,3.54l43.82,25.42c3.73,2.17,8.34,2.18,12.08.02l69.38-39.96c1.49-.86,2.25-2.34,2.31-3.85v-.08Z"/>
                    <path class="cls-2" d="m65.77,339.42c-2.25,0-4.49-.58-6.5-1.75l-43.82-25.42c-1.53-.89-2.51-2.42-2.7-4.22-.02-.23-.03-15.13-.04-103.08,0-24.51,0-43.93,0-44.7,0-.4.18-.78.5-1.02.33-.25.74-.32,1.13-.22l8.12,2.26,68.24-39.3c.4-.23.9-.23,1.29,0l.73.42-20.12,39.58,70.62-18.28.23.06c.57.15.95.65.95,1.23l-.03,148.25c-.07,1.82-1.1,3.53-2.74,4.48l-69.38,39.96c-2,1.15-4.23,1.73-6.47,1.73ZM14.48,160.91c0,3.65,0,21.74,0,44.05,0,43.1.01,102.13.03,102.89.08.72.42,2.05,1.83,2.87l43.82,25.42c3.45,2,7.73,2.01,11.19.01l69.38-39.96c1.13-.65,1.81-1.79,1.86-3.12l.9-.04h-.89v-147.34s-71.57,18.53-71.57,18.53l-.53-.19-.73-.42,19.79-38.93-66.4,38.24c-.29.17-.65.22-.99.12l-7.7-2.15Z"/>
                  </g>
                  <g>
                    <path class="cls-2" d="m143.21,144.64l-72.16,18.68s-.06-.02-.09-.04l-5.53,16.1v159.14c2.19.07,4.4-.45,6.37-1.59l69.38-39.96c1.49-.86,2.25-2.34,2.31-3.85v-.08c.01-.07.02-146.31.02-148.04,0-.18-.12-.32-.29-.37Z"/>
                    <path class="cls-2" d="m65.78,339.42c-.13,0-.27,0-.4,0l-.86-.03.06-160.29,5.87-17.09.69.37,72.07-18.66.23.06c.57.15.95.65.95,1.23,0,1.48-.01,147.97-.02,148.07-.09,2-1.11,3.71-2.76,4.66l-69.38,39.96c-1.95,1.12-4.17,1.72-6.45,1.72Zm.53-159.89v158.1c1.78-.08,3.51-.58,5.04-1.47l69.38-39.96c1.13-.65,1.81-1.79,1.86-3.12.01-.63.03-136.36.03-147.38l-71.01,18.38-5.3,15.44Z"/>
                  </g>
                  <g>
                    <path class="cls-2" d="m20.33,165.84s.65-1.76,1.46-4.03l-7.69-2.14c-.26-.07-.51.11-.51.38,0,2.12.02,147.38.04,147.61v.07c.15,1.39.88,2.74,2.27,3.54l4.42,2.57v-137.32s.01-10.68.01-10.68Z"/>
                    <path class="cls-2" d="m21.2,315.38l-5.75-3.34c-1.53-.89-2.51-2.42-2.7-4.22-.02-.23-.03-15.13-.04-103.08,0-24.51,0-43.93,0-44.69,0-.41.18-.78.5-1.02.33-.25.73-.32,1.13-.21l8.6,2.4-.32.9c-.67,1.88-1.24,3.42-1.41,3.89v149.38Zm-6.74-154.69c0,3.65,0,21.74,0,44.05,0,43.1.01,102.13.03,102.89.08.72.42,2.05,1.83,2.87l3.08,1.79v-146.62s.07-.15.07-.15c0,0,.49-1.31,1.14-3.12l-6.15-1.71Z"/>
                  </g>
                  <g>
                    <path class="cls-1" d="m59.93,189.02l-44.03-25.53c-3.1-1.8-3.09-6.28.01-8.07l69.58-40.08c3.61-2.09,8.07-2.08,11.67.02l44.02,25.53c3.1,1.8,3.09,6.28-.01,8.07l-69.58,40.08c-3.61,2.09-8.07,2.08-11.67-.02Z"/>
                    <path class="cls-2" d="m65.78,191.48c-2.18,0-4.36-.56-6.3-1.69l-44.03-25.53c-1.73-1.01-2.77-2.8-2.76-4.81,0-2,1.04-3.8,2.77-4.8l69.58-40.08c3.88-2.24,8.69-2.23,12.56.02l44.03,25.53c1.73,1.01,2.77,2.8,2.76,4.81,0,2-1.04,3.8-2.77,4.8l-69.58,40.08c-1.93,1.12-4.1,1.68-6.27,1.68Zm25.54-76.81c-1.86,0-3.72.48-5.38,1.44l-69.58,40.08c-1.18.68-1.89,1.9-1.89,3.26,0,1.36.7,2.59,1.88,3.27l44.03,25.53c3.32,1.93,7.45,1.94,10.78.02l69.58-40.08c1.18-.68,1.88-1.9,1.88-3.26,0-1.36-.7-2.59-1.88-3.27l-44.03-25.53c-1.67-.97-3.54-1.45-5.4-1.45Z"/>
                  </g>
                </g>
                <g>
                  <g>
                    <path class="cls-3" d="m143.51,117.3c0-.07,0-8.99,0-10.72,0-.18-.12-.32-.29-.37l-72.17,18.68s-.06-.02-.09-.04l20.59-40.51c-.12-.07-.28-.07-.4,0L22.73,123.75c-.09.05-.2.07-.31.04l-8.31-2.32c-.26-.07-.51.11-.51.38,0,2.12.03,10.05.05,10.29v.07c.15,1.39.88,2.74,2.27,3.54l43.82,25.42c3.73,2.17,8.34,2.18,12.08.02l69.38-39.96c1.49-.86,2.25-2.34,2.31-3.85v-.08Z"/>
                    <path class="cls-2" d="m65.79,163.69c-2.25,0-4.5-.58-6.5-1.75l-43.82-25.41c-1.52-.89-2.51-2.42-2.7-4.21-.04-.41-.06-10.04-.06-10.45,0-.4.18-.77.5-1.02.32-.25.75-.33,1.13-.22l8.12,2.26,68.24-39.3c.4-.23.9-.23,1.29,0l.73.42-20.12,39.58,70.62-18.28.23.06c.56.16.94.65.94,1.23v2.54c0,3.26,0,8.16,0,8.21l-.02.15c-.07,1.85-1.1,3.56-2.74,4.51l-69.38,39.96c-1.99,1.15-4.23,1.73-6.46,1.73ZM14.49,122.5c0,3.14.03,9.21.05,9.58.08.76.42,2.09,1.83,2.91l43.82,25.41c3.44,2,7.73,2.01,11.18.02l69.38-39.96c1.13-.65,1.81-1.79,1.86-3.12l.9-.04h-.89c0-.18,0-4.98,0-8.18v-1.84l-71.58,18.53-.55-.21-.69-.43,19.77-38.9L23.17,124.52c-.3.17-.65.22-.99.12l-7.69-2.14Z"/>
                  </g>
                  <g>
                    <path class="cls-2" d="m143.22,106.23l-72.17,18.68s-.06-.02-.09-.04l-5.53,16.1v21.82c2.2.07,4.41-.45,6.38-1.59l69.38-39.96c1.49-.86,2.25-2.34,2.31-3.85v-.08c.01-.07.01-8.99,0-10.72,0-.18-.12-.32-.29-.37Z"/>
                    <path class="cls-2" d="m65.8,163.69c-.13,0-.26,0-.4,0l-.86-.03.05-22.97,5.89-17.15.7.43,72.05-18.65.23.06c.56.16.94.65.94,1.23v2.54c0,3.26,0,8.16,0,8.21-.09,2-1.11,3.71-2.76,4.66l-69.38,39.96c-1.95,1.13-4.18,1.72-6.46,1.72Zm.52-22.57v20.78c1.79-.08,3.52-.58,5.05-1.47l69.38-39.96c1.13-.65,1.81-1.79,1.86-3.12.01-.22,0-5.02,0-8.22v-1.84l-71,18.38-5.3,15.44Z"/>
                  </g>
                  <g>
                    <path class="cls-2" d="m20.33,127.43s.65-1.76,1.46-4.03l-7.69-2.14c-.26-.07-.51.11-.51.38,0,2.12.03,10.05.05,10.29v.07c.15,1.39.88,2.74,2.27,3.54l4.42,2.57h0v-10.68Z"/>
                    <path class="cls-2" d="m21.22,139.65l-5.75-3.34c-1.52-.89-2.51-2.42-2.7-4.22-.04-.42-.06-10.35-.06-10.45,0-.4.18-.77.5-1.02.32-.24.74-.32,1.13-.22l8.61,2.4-.32.9c-.67,1.88-1.24,3.42-1.41,3.89v12.06Zm-6.73-17.36c0,2.92.03,9.22.05,9.59.14,1.27.78,2.29,1.83,2.9l3.08,1.79.06-9.44s.49-1.31,1.14-3.12l-6.15-1.71Z"/>
                  </g>
                  <g>
                    <path class="cls-1" d="m59.94,150.61l-44.02-25.53c-3.1-1.8-3.09-6.28.01-8.07l69.58-40.08c3.61-2.09,8.07-2.08,11.67.02l44.03,25.53c3.1,1.8,3.09,6.28-.01,8.07l-69.58,40.08c-3.61,2.09-8.07,2.08-11.67-.02Z"/>
                    <path class="cls-2" d="m65.79,153.07c-2.18,0-4.36-.56-6.3-1.69l-44.03-25.53c-1.73-1.01-2.76-2.8-2.76-4.81,0-2,1.04-3.8,2.78-4.8l69.58-40.08c3.87-2.24,8.69-2.24,12.56.02l44.03,25.53c1.73,1.01,2.76,2.8,2.76,4.81,0,2-1.04,3.8-2.77,4.8l-69.58,40.08c-1.93,1.12-4.1,1.68-6.27,1.68Zm25.54-76.81c-1.86,0-3.72.48-5.38,1.44L16.37,117.77c-1.18.68-1.88,1.9-1.89,3.26,0,1.36.7,2.59,1.88,3.27l44.03,25.53c3.32,1.93,7.46,1.94,10.78.02l69.58-40.08c1.18-.68,1.89-1.9,1.89-3.27,0-1.36-.7-2.59-1.88-3.27l-44.03-25.53c-1.67-.97-3.53-1.45-5.4-1.45Z"/>
                  </g>
                </g>
                <rect class="cls-3" x="64.44" y="212.97" width="78.13" height="1.77" transform="translate(-93.05 80.39) rotate(-30)"/>
                <rect class="cls-3" x="64.44" y="250.93" width="78.13" height="1.77" transform="translate(-112.03 85.48) rotate(-30)"/>
                <rect class="cls-3" x="64.44" y="288.89" width="78.13" height="1.77" transform="translate(-130.98 90.53) rotate(-29.99)"/>
                <path class="cls-3" d="m98.5,202.72h-1.77v-1.43c0-3.01,2.04-6.56,4.66-8.07l8.76-5.06c1.41-.81,2.78-.92,3.87-.29,1.08.62,1.68,1.87,1.68,3.5v1.43h-1.77v-1.43c0-.96-.29-1.67-.79-1.96-.5-.29-1.26-.18-2.09.29l-8.76,5.06c-2.04,1.18-3.77,4.17-3.77,6.53v1.43Z"/>
                <path class="cls-3" d="m98.5,239.77h-1.77v-1.43c0-3.01,2.04-6.56,4.66-8.07l8.76-5.06c1.41-.81,2.78-.92,3.87-.29,1.08.62,1.68,1.87,1.68,3.5v1.43h-1.77v-1.43c0-.96-.29-1.67-.79-1.96-.5-.29-1.26-.18-2.09.29l-8.76,5.06c-2.04,1.18-3.77,4.17-3.77,6.53v1.43Z"/>
                <path class="cls-3" d="m98.05,278.56h-1.77v-1.43c0-3.02,2.04-6.56,4.66-8.07l8.76-5.06c1.41-.81,2.79-.92,3.87-.29,1.08.62,1.68,1.87,1.68,3.49v1.43h-1.77v-1.43c0-.95-.29-1.67-.79-1.96-.5-.29-1.26-.18-2.09.29l-8.76,5.06c-2.04,1.18-3.77,4.17-3.77,6.53v1.43Z"/>
              </g>
              <g>
                <polygon class="cls-1" points="17.69 104 61.23 129.07 104.53 104.64 61.41 79.22 17.69 104"/>
                <path class="cls-2" d="m61.22,130.09l-45.32-26.1,45.52-25.79,44.88,26.45-45.08,25.44Zm-41.74-26.09l41.75,24.05,41.52-23.43-41.35-24.37-41.92,23.75Z"/>
              </g>
              <g>
                <polygon class="cls-1" points="65.44 104.06 90.94 118.74 116.3 104.43 91.05 89.55 65.44 104.06"/>
                <path class="cls-2" d="m90.93,119.76l-27.28-15.71,27.4-15.52,27.02,15.92-27.14,15.31Zm-23.7-15.7l23.71,13.66,23.58-13.3-23.48-13.84-23.81,13.49Z"/>
              </g>
              <g>
                <g>
                  <path class="cls-1" d="m41.05,256.05L2.52,233.81c-.9-.52-1.64-1.92-1.64-3.13v-41.96c0-1.2.73-1.76,1.64-1.24l38.53,22.24c.9.52,1.64,1.92,1.64,3.13v41.96c0,1.2-.73,1.76-1.64,1.24Z"/>
                  <path class="cls-2" d="m41.7,257.14c-.36,0-.73-.11-1.1-.31L2.08,234.58c-1.19-.68-2.08-2.36-2.08-3.89v-41.96c0-.96.37-1.72,1.01-2.09.58-.34,1.29-.3,1.96.09l38.53,22.24c1.19.68,2.08,2.36,2.08,3.89v41.96c0,.96-.37,1.72-1.01,2.09-.26.15-.56.23-.86.23Zm-.21-1.85c.16.09.21.08.21.08,0-.01.1-.17.1-.55v-41.96c0-.96-.63-2.03-1.19-2.36L2.08,188.26c-.13-.08-.2-.08-.21-.08h0s-.1.17-.1.55v41.96c0,.95.63,2.03,1.19,2.36l38.53,22.25Z"/>
                </g>
                <path class="cls-2" d="m33.74,218.75c0,1.42-1,2-2.23,1.29-1.23-.71-2.23-2.44-2.23-3.86s1-2,2.23-1.29c1.23.71,2.23,2.44,2.23,3.86Z"/>
              </g>
            </g>
            <g>
              <g>
                <g>
                  <g>
                    <path class="cls-3" d="m92.92,325.82l-62.15.09c-.71,0-1.28.57-1.28,1.28v15.7l.04,3.48c.14,1.9,1.55,3.86,4.24,5.41l18.71,10.8c5.18,2.99,13.01,3.31,17.5.72l21.22-12.25c2.15-1.24,3.11-2.94,2.99-4.69h.02v-19.27c0-.71-.57-1.28-1.28-1.28Z"/>
                    <path class="cls-2" d="m62.38,365.93c-3.6,0-7.39-.87-10.34-2.57l-18.71-10.8c-2.85-1.65-4.52-3.82-4.69-6.12l-.04-3.53v-15.71c0-1.19.97-2.17,2.16-2.17l62.15-.1c.57-.11,1.12.22,1.54.63s.64.95.64,1.53l-.04,20.16c-.21,1.81-1.39,3.4-3.41,4.57l-21.22,12.25c-2.15,1.24-5.03,1.85-8.04,1.85Zm30.54-39.22l-62.15.1c-.22,0-.39.18-.39.39l.04,19.17c.12,1.61,1.51,3.33,3.8,4.66l18.71,10.8c4.92,2.84,12.37,3.17,16.61.73l21.22-12.25c1.77-1.02,2.65-2.36,2.55-3.86l-.07-.95h.09v-18.39c0-.14-.07-.23-.12-.28-.04-.04-.14-.12-.28-.12h0Z"/>
                  </g>
                  <path class="cls-2" d="m92.92,325.88l-28.61.04v39.08c2.12-.21,4.1-.73,5.66-1.63l21.22-12.25c2.15-1.24,3.11-2.94,2.99-4.69h.02v-19.27c0-.71-.57-1.28-1.28-1.28Z"/>
                  <g>
                    <path class="cls-1" d="m91.2,330.61l-21.22,12.25c-4.49,2.59-12.32,2.26-17.5-.73l-18.71-10.8c-5.18-2.99-5.74-7.51-1.26-10.1l21.22-12.25c4.49-2.59,12.32-2.27,17.5.73l18.71,10.8c5.18,2.99,5.74,7.51,1.26,10.1Z"/>
                    <path class="cls-2" d="m62.38,345.47c-3.6,0-7.39-.87-10.34-2.58l-18.71-10.8c-3-1.73-4.73-4.1-4.73-6.48,0-2.03,1.23-3.86,3.47-5.16l21.22-12.25c4.72-2.73,12.96-2.41,18.38.72l18.71,10.8c3,1.73,4.73,4.1,4.73,6.48,0,2.03-1.23,3.86-3.47,5.15l-21.22,12.25c-2.15,1.24-5.03,1.85-8.04,1.85Zm-1.04-37.37c-2.69,0-5.25.54-7.16,1.64l-21.22,12.25c-1.67.96-2.59,2.25-2.58,3.62,0,1.73,1.4,3.54,3.84,4.95l18.71,10.8c4.92,2.84,12.37,3.17,16.61.73l21.22-12.25c1.67-.96,2.59-2.25,2.59-3.62,0-1.73-1.4-3.54-3.84-4.95l-18.71-10.8c-2.71-1.56-6.18-2.36-9.45-2.36Z"/>
                  </g>
                  <rect class="cls-3" x="86.04" y="337.96" width="1.77" height="9.99"/>
                </g>
                <rect class="cls-2" x="54.56" y="352.82" width="1.77" height="11.09"/>
              </g>
              <polygon class="cls-2" points="80.04 337.55 42.76 315.82 43.65 314.28 80.93 336.01 80.04 337.55"/>
            </g>
          </g>
          <g>
            <g>
              <g>
                <path class="cls-2" d="m101.58,121.76v-3.52s-.01-.02-.02-.02l-1.54.02s-.01,0-.02,0c-.56-.58-1.27-1.13-2.12-1.63-4.93-2.85-12.94-2.85-17.87,0-1.01.58-1.81,1.24-2.41,1.94,0,0-.01,0-.02,0l-1.25.02s-.02.01-.02.02v3.17c0,1.87,1.23,3.73,3.7,5.16,4.94,2.85,12.94,2.85,17.87,0,2.47-1.42,3.7-3.29,3.7-5.16Z"/>
                <path class="cls-2" d="m88.94,129.92c-3.4,0-6.79-.75-9.38-2.24-2.67-1.54-4.14-3.65-4.14-5.93v-4.05l1.77-.03c.61-.66,1.42-1.29,2.38-1.84,5.17-2.99,13.59-2.99,18.76,0,.78.45,1.47.96,2.05,1.51l1.52-.02.57.5v3.93c0,2.28-1.46,4.39-4.14,5.93-2.59,1.49-5.98,2.24-9.38,2.24Zm-11.75-10.48v2.31c0,1.62,1.16,3.18,3.26,4.39,4.68,2.7,12.31,2.7,16.98,0,2.1-1.21,3.26-2.77,3.26-4.39v-2.64h-.97s-.26-.17-.26-.17c-.62-.63-1.27-1.13-2.04-1.57-4.68-2.7-12.31-2.7-16.98,0-.9.52-1.63,1.11-2.18,1.75l-.27.31h-.82Z"/>
              </g>
              <g>
                <path class="cls-3" d="m88.28,125.88l.66-4.86-8.55-4.6c-.13.07-.26.13-.38.2-1.01.58-1.81,1.24-2.41,1.94,0,0-.01,0-.02,0l-1.25.02s-.02.01-.02.02v3.17c0,1.87,1.23,3.73,3.7,5.16,2.35,1.36,5.41,2.06,8.49,2.12-.17-1.69-.22-3.18-.22-3.18Z"/>
                <path class="cls-2" d="m89.48,129.96l-1-.02c-3.36-.07-6.53-.87-8.92-2.24-2.67-1.54-4.14-3.65-4.14-5.93v-4.05l1.77-.04c.61-.66,1.42-1.29,2.38-1.84l.69-.36.56.14,9.09,4.89-.73,5.4c.01.31.06,1.6.21,3.04l.1,1Zm-12.29-10.5v2.31c0,1.62,1.16,3.18,3.26,4.39,1.9,1.1,4.38,1.78,7.07,1.96-.1-1.26-.13-2.22-.13-2.22v-.07s.59-4.33.59-4.33l-7.59-4.09c-.87.51-1.58,1.09-2.11,1.71l-.27.31h-.82Z"/>
              </g>
              <g>
                <path class="cls-2" d="m112.14,84.93h-46.4s-.09,22.3,10.56,33.43h0c.16,1.73,1.41,3.43,3.7,4.76,4.94,2.85,12.94,2.85,17.87,0,2.29-1.32,3.54-3.03,3.7-4.76h0c10.65-11.12,10.56-33.43,10.56-33.43Z"/>
                <path class="cls-2" d="m88.94,126.12c-3.4,0-6.8-.75-9.38-2.24-2.35-1.35-3.79-3.17-4.1-5.12-10.57-11.31-10.61-32.91-10.61-33.83v-.88h48.17v.88c0,.92-.03,22.52-10.6,33.83-.31,1.96-1.76,3.77-4.1,5.12-2.59,1.49-5.98,2.24-9.38,2.24Zm-22.3-40.3c.13,4.22,1.21,22.43,10.3,31.93l.21.22.03.31c.14,1.49,1.3,2.94,3.26,4.07,4.68,2.7,12.3,2.7,16.98,0,1.96-1.13,3.12-2.58,3.26-4.07l.03-.31.21-.22c9.1-9.51,10.17-27.71,10.3-31.93h-44.59Z"/>
              </g>
              <g>
                <path class="cls-3" d="m65.74,84.93s-.09,22.3,10.56,33.43c.16,1.73,1.41,3.43,3.7,4.76,3.53,2.04,8.63,2.61,13.06,1.73.15-.35.27-.71.35-1.06.23-1.05.62-2.07,1.17-3,7.46-12.72,5.2-32.16,4.68-35.85h-33.52Z"/>
                <path class="cls-2" d="m88.9,126.14c-3.44,0-6.79-.78-9.34-2.25-2.35-1.36-3.79-3.17-4.1-5.12-10.57-11.31-10.61-32.91-10.61-33.83v-.88h35.18l.11.76c.53,3.81,2.79,23.48-4.8,36.43-.49.83-.84,1.75-1.06,2.74-.09.41-.22.81-.4,1.22l-.19.43-.46.09c-1.42.28-2.88.42-4.33.42Zm-22.26-40.32c.13,4.22,1.21,22.43,10.3,31.93l.21.22.03.31c.14,1.49,1.3,2.94,3.26,4.07,3.09,1.79,7.73,2.45,11.96,1.72.05-.16.1-.32.13-.48.26-1.17.69-2.26,1.27-3.25,6.88-11.74,5.3-29.45,4.67-34.52h-31.84Z"/>
              </g>
              <g>
                <path class="cls-1" d="m105.34,75.46c9.06,5.23,9.06,13.71,0,18.94-9.06,5.23-23.75,5.23-32.81,0-9.06-5.23-9.06-13.71,0-18.94,9.06-5.23,23.75-5.23,32.81,0Z"/>
                <path class="cls-2" d="m88.94,99.19c-6.1,0-12.2-1.34-16.85-4.02-4.67-2.7-7.24-6.33-7.24-10.24s2.57-7.54,7.24-10.24c9.29-5.36,24.41-5.36,33.69,0h0c4.67,2.7,7.24,6.33,7.24,10.24s-2.57,7.54-7.24,10.24c-4.64,2.68-10.75,4.02-16.85,4.02Zm0-26.78c-5.78,0-11.56,1.27-15.96,3.81-4.1,2.36-6.35,5.46-6.35,8.7s2.25,6.34,6.35,8.7c8.8,5.08,23.12,5.08,31.92,0,4.1-2.36,6.35-5.46,6.35-8.7s-2.26-6.34-6.35-8.7h0c-4.4-2.54-10.18-3.81-15.96-3.81Z"/>
              </g>
              <g>
                <path class="cls-3" d="m102.3,77.82c-7.38-3.93-19.35-3.93-26.73,0-7.38,3.93-7.38,10.29,0,14.22,7.38,3.93,19.35,3.93,26.73,0,7.38-3.93,7.38-10.29,0-14.22Z"/>
                <path class="cls-2" d="m88.94,95.85c-4.99,0-9.98-1.01-13.78-3.03-3.87-2.06-6.01-4.86-6.01-7.89s2.13-5.83,6.01-7.89c7.6-4.04,19.96-4.04,27.56,0h0c3.87,2.06,6.01,4.86,6,7.89,0,3.03-2.13,5.83-6.01,7.89-3.8,2.02-8.79,3.03-13.78,3.03Zm0-20.1c-4.69,0-9.38.95-12.95,2.85-3.27,1.74-5.06,3.98-5.06,6.33s1.8,4.59,5.06,6.33c7.14,3.8,18.76,3.8,25.9,0,3.27-1.74,5.06-3.98,5.06-6.32,0-2.34-1.8-4.59-5.06-6.33-3.57-1.9-8.26-2.85-12.95-2.85Z"/>
              </g>
              <g>
                <path class="cls-2" d="m102.3,83.94c-7.38-3.93-19.35-3.93-26.73,0-2.21,1.18-3.75,2.57-4.64,4.05.89,1.48,2.43,2.88,4.64,4.05,7.38,3.93,19.35,3.93,26.73,0,2.21-1.18,3.75-2.57,4.64-4.05-.89-1.48-2.43-2.88-4.64-4.05Z"/>
                <path class="cls-2" d="m88.94,95.85c-4.99,0-9.98-1.01-13.78-3.03-2.3-1.22-3.98-2.7-4.98-4.38l-.27-.46.27-.46c1.01-1.68,2.68-3.15,4.98-4.38,7.59-4.04,19.96-4.04,27.56,0h0c2.3,1.22,3.97,2.7,4.98,4.38l.28.46-.28.46c-1.01,1.68-2.68,3.16-4.98,4.38-3.8,2.02-8.79,3.03-13.78,3.03Zm-16.94-7.87c.86,1.21,2.23,2.33,3.99,3.27,7.14,3.8,18.76,3.8,25.9,0,1.76-.94,3.13-2.06,4-3.27-.86-1.21-2.23-2.33-3.99-3.27-7.14-3.8-18.76-3.8-25.9,0-1.76.94-3.13,2.06-3.99,3.27Z"/>
              </g>
              <g>
                <g>
                  <path class="cls-1" d="m73,114.22l1.64-.23s-1.6.26-1.64.23l-1.29-2.64-7.97-3.28c-.24-.09-.46-.21-.66-.34.28-1.07.75-2.84.79-2.89.06-.07,4.87-4.56,4.87-4.56l1.01-.99,1.35-1.31h0s-3.05-2.41-3.05-2.41l-3.84,1.56c-1.73.7-3.41,2.25-4.51,4.14-1.17,2.03-1.48,4.15-.83,5.67.46,1.07,1.12,1.96,1.94,2.65l2.98,2.34.53-.57,9.25,3.81-.58-1.2Z"/>
                  <path class="cls-2" d="m75.4,117.13l-10.84-4.46-.67.71-3.62-2.85c-.97-.81-1.7-1.82-2.21-3-.76-1.78-.44-4.19.87-6.46,1.19-2.06,3.03-3.74,4.94-4.52l4.31-1.75,3.76,2.95.08.88-.4.3-2.27,2.22s-3.9,3.65-4.72,4.42c-.11.37-.33,1.19-.52,1.93l8.24,3.39,1.16,2.37,4.43-.61-2.77,2.06s-.2.09-.41.15v.02s-.17.02-.17.02c-.08.02-.16.04-.25.06l1.06,2.17Zm-11.3-6.57l7.66,3.15-.7-1.44-7.66-3.15c-.28-.11-.55-.25-.8-.41l-.55-.35.16-.63c.79-3.03.81-3.05.98-3.25.04-.04.1-.11,4.93-4.63l1.63-1.6-1.86-1.45-3.36,1.37c-1.55.63-3.08,2.04-4.07,3.76-1.02,1.76-1.31,3.63-.78,4.88.4.93.97,1.72,1.7,2.33l2.32,1.82.39-.42Z"/>
                </g>
                <g>
                  <path class="cls-2" d="m76.59,117.73s-.02.07-.05.05l-10.8-4.43c-1.72-.68-3.04-1.98-3.81-3.77-.66-1.52-.35-3.65.83-5.67,1.09-1.89,2.78-3.44,4.51-4.14l3.83-1.55s.01,0,.01,0l.05,3.04-2.81,1.14c-1.15.46-2.34,1.59-3.11,2.93-.8,1.38-.91,2.56-.67,3.12.47,1.09,1.22,1.85,2.25,2.25l7.95,3.27s.02.02.03.03l1.82,3.73Z"/>
                  <path class="cls-2" d="m76.81,118.81l-.59-.21-10.81-4.44c-1.94-.76-3.43-2.23-4.29-4.24-.76-1.78-.44-4.2.87-6.47,1.19-2.05,3.03-3.74,4.94-4.52l4.25-1.72.81.5.06,4.14-3.38,1.37c-.96.39-2.01,1.39-2.68,2.55-.7,1.21-.73,2.1-.63,2.33.38.88.95,1.46,1.75,1.77l8.33,3.43.16.4,2.03,4.22-.83.89Zm-6.57-19.3l-2.64,1.07c-1.55.63-3.08,2.04-4.08,3.76-1.02,1.76-1.31,3.63-.78,4.88.67,1.57,1.82,2.71,3.32,3.3l8.75,3.59-.71-1.45-7.65-3.15c-1.24-.49-2.16-1.4-2.72-2.72-.41-.94-.13-2.45.72-3.92.88-1.52,2.2-2.76,3.54-3.3l2.25-.91-.02-1.15Z"/>
                </g>
              </g>
              <g>
                <path class="cls-3" d="m94.63,87.46c-3.45,1.99-4.31,4.91-2.59,7.37,3.76-.33,7.37-1.26,10.26-2.8,2.21-1.18,3.75-2.57,4.64-4.05-.51-.85-1.23-1.66-2.17-2.43-3.59-.32-7.38.31-10.14,1.9Z"/>
                <path class="cls-2" d="m91.61,95.76l-.29-.42c-.91-1.29-1.22-2.72-.91-4.13.39-1.75,1.69-3.32,3.78-4.52,2.83-1.64,6.71-2.38,10.67-2.02l.27.02.21.17c1.01.83,1.81,1.72,2.37,2.66l.27.46-.28.46c-1.01,1.68-2.68,3.16-4.98,4.38-2.9,1.54-6.56,2.55-10.6,2.9l-.51.05Zm11.35-9.4c-2.95,0-5.81.66-7.89,1.87h0c-1.62.93-2.66,2.13-2.93,3.37-.17.78-.05,1.55.36,2.3,3.59-.37,6.82-1.28,9.39-2.65,1.76-.94,3.13-2.06,4-3.27-.39-.54-.87-1.06-1.46-1.56-.49-.04-.97-.05-1.46-.05Z"/>
              </g>
              <g>
                <path class="cls-2" d="m86.69,84.46c1.97,1.14,1.97,2.98,0,4.12-1.97,1.14-5.17,1.14-7.14,0-1.97-1.14-1.97-2.98,0-4.12,1.97-1.14,5.17-1.14,7.14,0Z"/>
                <path class="cls-3" d="m83.12,90.33c-1.44,0-2.89-.32-4.01-.98-1.24-.71-1.92-1.72-1.92-2.83s.68-2.11,1.92-2.83c2.25-1.3,5.78-1.3,8.03,0,1.24.71,1.92,1.72,1.92,2.83s-.68,2.11-1.92,2.83c-1.12.65-2.57.98-4.01.98Zm0-5.83c-1.14,0-2.28.25-3.13.73-.66.38-1.03.85-1.03,1.29s.38.91,1.03,1.29c1.7.98,4.56.98,6.25,0,.66-.38,1.04-.85,1.04-1.29s-.38-.91-1.04-1.29c-.85-.49-1.98-.73-3.13-.73Z"/>
              </g>
              <g>
                <path class="cls-2" d="m80.87,88.34c1.05.6,1.05,1.58,0,2.19-1.05.6-2.74.6-3.79,0-1.05-.6-1.05-1.58,0-2.19,1.05-.6,2.74-.6,3.79,0Z"/>
                <path class="cls-3" d="m78.98,91.87c-.84,0-1.68-.19-2.34-.57-.78-.45-1.23-1.13-1.23-1.86s.45-1.41,1.23-1.86c1.31-.76,3.36-.76,4.68,0,.78.45,1.23,1.13,1.23,1.86s-.45,1.41-1.23,1.86c-.66.38-1.5.57-2.34.57Zm0-3.09c-.53,0-1.07.11-1.45.33-.28.16-.34.3-.34.33s.06.16.34.32c.77.45,2.13.45,2.9,0,.28-.16.34-.3.34-.32,0-.02-.06-.16-.34-.33-.39-.22-.92-.33-1.45-.33Z"/>
              </g>
              <path class="cls-2" d="m100.1,84.64c1.07.62,1.07,1.62,0,2.24-1.07.62-2.81.62-3.89,0-1.07-.62-1.07-1.62,0-2.24,1.07-.62,2.81-.62,3.89,0Z"/>
              <g>
                <path class="cls-3" d="m94.87,85.54c2.35,1.35,2.35,3.55,0,4.9-2.35,1.35-6.15,1.35-8.5,0-2.35-1.35-2.35-3.55,0-4.9,2.35-1.35,6.15-1.35,8.5,0Z"/>
                <path class="cls-2" d="m90.62,92.35c-1.69,0-3.38-.38-4.69-1.14-1.42-.82-2.2-1.97-2.2-3.22s.78-2.4,2.2-3.22c2.63-1.52,6.75-1.52,9.38,0,1.42.82,2.2,1.96,2.2,3.22s-.78,2.4-2.2,3.22c-1.31.76-3,1.14-4.69,1.14Zm0-6.94c-1.39,0-2.77.3-3.81.89-.84.48-1.31,1.1-1.31,1.68s.48,1.2,1.31,1.69c2.06,1.19,5.55,1.19,7.61,0,.84-.48,1.32-1.1,1.32-1.69s-.48-1.2-1.32-1.68h0c-1.03-.59-2.42-.89-3.8-.89Z"/>
              </g>
              <g>
                <path class="cls-3" d="m102.16,88.31c-2,1.16-2.29,2.93-.87,4.26.35-.16.69-.32,1.02-.5,2.21-1.18,3.75-2.57,4.64-4.05-.15-.25-.32-.49-.5-.73-1.55,0-3.1.33-4.28,1.01Z"/>
                <path class="cls-2" d="m101.11,93.63l-.43-.41c-.86-.8-1.26-1.8-1.15-2.8.13-1.12.9-2.14,2.18-2.88h0c1.27-.73,2.93-1.13,4.69-1.13h.47s.26.35.26.35c.21.27.4.54.56.81l.28.46-.28.46c-1.01,1.68-2.68,3.16-4.98,4.38-.34.18-.7.35-1.06.52l-.54.25Zm1.49-4.55c-.78.45-1.24,1-1.3,1.55-.04.32.07.61.22.85.12-.06.24-.12.36-.19,1.68-.89,2.99-1.95,3.86-3.09-1.19.08-2.31.39-3.15.87h0Z"/>
              </g>
            </g>
            <path class="cls-3" d="m95.11,125.25l-.44-1.72s3.05-.81,5.07-3.09l1.33,1.18c-2.39,2.7-5.81,3.6-5.95,3.63Z"/>
          </g>
        </g>
        <g>
          <g>
            <path class="cls-1" d="m209.26,297.58l-65.03,37.55s-.01,0-.02,0l-65.03-37.55s-.01-.03,0-.04l65.03-37.55s.01,0,.02,0l65.03,37.55s.01.03,0,.03Z"/>
            <path class="cls-2" d="m144.17,336.19l-.49-.35-65.39-37.74v-1.04s.44-.27.44-.27l65.45-37.79.45.21,65.52,37.83v.99s-.44.32-.44.32l-65.54,37.84Zm-63.24-38.63l63.3,36.55,63.3-36.55-63.3-36.54-63.3,36.55Z"/>
          </g>
          <g>
            <path class="cls-3" d="m79.15,297.6v52.47s0,.01.01.02l65.03,37.55s.03,0,.03-.02v-52.47s0-.01-.01-.02l-65.03-37.55s-.03,0-.03.02Z"/>
            <path class="cls-2" d="m144.26,388.65l-.46-.22-65.52-37.83v-.53s0-52.99,0-52.99l.9-.53.46.26,65.47,37.8v.53s0,52.97,0,52.97l-.85.54Zm-64.22-39.08l63.3,36.54v-50.48l-63.3-36.54v50.47Z"/>
          </g>
          <g>
            <path class="cls-2" d="m209.29,297.6v52.47s0,.01-.01.02l-65.03,37.55s-.03,0-.03-.02v-52.47s0-.01,0-.02l65.03-37.55s.03,0,.03.02Z"/>
            <path class="cls-2" d="m144.23,388.67l-.89-.54v-.51s0-53.02,0-53.02l.5-.26,65.41-37.76.93.47v.56s.01,53.02.01,53.02l-.5.26-65.45,37.79Zm.87-53.02v50.47l63.3-36.55v-50.47l-63.3,36.55Z"/>
          </g>
          <g>
            <polygon class="cls-2" points="166.13 322.49 166.13 367.32 187.36 355.03 187.36 310.23 166.13 322.49"/>
            <path class="cls-3" d="m168.73,366.84l-.89-1.54,6.14-3.56.89,1.54-6.14,3.56Zm-1.71-1.76h-1.77v-7.1h1.77v7.1Zm11.95-4.16l-.89-1.54,6.14-3.55.89,1.54-6.14,3.55Zm9.29-7.5h-1.77v-7.1h1.77v7.1Zm-21.24-.17h-1.77v-7.1h1.77v7.1Zm21.24-11.66h-1.77v-7.1h1.77v7.1Zm-21.24-.17h-1.77v-7.1h1.77v7.1Zm21.24-11.66h-1.77v-7.1h1.77v7.1Zm-21.24-.17h-1.77v-7.1h1.77v7.1Zm21.24-11.66h-1.77v-7.1h1.77v7.1Z"/>
          </g>
          <g>
            <path class="cls-2" d="m194.42,336.21l-6.87,3.97c-1.69.97-3.05-.06-3.05-2.31v-11.72c0-2.25,1.37-4.86,3.05-5.83l6.87-3.97c1.69-.97,3.05.06,3.05,2.31v11.72c0,2.25-1.37,4.86-3.05,5.83Z"/>
            <path class="cls-3" d="m186.34,341.43c-.43,0-.85-.11-1.23-.33-.95-.55-1.5-1.73-1.5-3.24v-11.72c0-2.57,1.54-5.47,3.5-6.6l6.87-3.97c1.02-.59,2.04-.65,2.88-.16.95.55,1.5,1.73,1.5,3.24v11.72c0,2.57-1.54,5.47-3.5,6.6l-6.87,3.97c-.56.32-1.13.49-1.66.49Zm9.29-24.56c-.29,0-.58.14-.77.25l-6.87,3.97c-1.41.82-2.61,3.14-2.61,5.06v11.72c0,.83.23,1.48.61,1.7.37.21.85-.01,1.11-.16l6.87-3.97c1.41-.82,2.61-3.14,2.61-5.06v-11.72c0-.83-.23-1.48-.61-1.7-.11-.06-.22-.09-.34-.09Z"/>
          </g>
          <g>
            <path class="cls-2" d="m166.36,360.83l-6.87,3.97c-1.69.97-3.05-.06-3.05-2.31v-2c0-2.25,1.37-4.86,3.05-5.83l6.87-3.97c1.69-.97,3.05.06,3.05,2.31v2c0,2.25-1.37,4.86-3.05,5.83Z"/>
            <path class="cls-3" d="m158.28,366.05c-.43,0-.85-.11-1.22-.33-.95-.55-1.5-1.73-1.5-3.24v-2c0-2.57,1.54-5.47,3.5-6.6l6.87-3.97c1.02-.59,2.04-.65,2.89-.16.95.55,1.5,1.73,1.5,3.24v2c0,2.57-1.54,5.47-3.5,6.6l-6.87,3.97c-.56.32-1.13.49-1.66.49Zm9.29-14.84c-.29,0-.58.14-.77.25l-6.87,3.97c-1.41.82-2.61,3.13-2.61,5.06v2c0,.83.23,1.48.61,1.7.35.21.85,0,1.11-.16l6.87-3.97c1.41-.82,2.61-3.14,2.61-5.06v-2c0-.83-.23-1.48-.61-1.7-.11-.06-.22-.09-.34-.09Z"/>
          </g>
          <g>
            <path class="cls-1" d="m102.09,338.99l-5.54-3.2c-1.36-.78-2.46-2.89-2.46-4.7v-9.45c0-1.81,1.1-2.65,2.46-1.86l5.54,3.2c1.36.78,2.46,2.89,2.46,4.7v9.45c0,1.81-1.1,2.65-2.46,1.86Z"/>
            <path class="cls-2" d="m103.07,340.18c-.46,0-.94-.14-1.42-.42l-5.54-3.2c-1.63-.94-2.9-3.34-2.9-5.47v-9.45c0-1.28.47-2.28,1.29-2.76.73-.43,1.62-.38,2.5.13l5.54,3.2c1.63.94,2.9,3.34,2.9,5.47v9.45c0,1.28-.47,2.28-1.29,2.76-.33.19-.7.29-1.07.29Zm-7.5-19.8c-.07,0-.13.01-.19.05-.19.11-.41.49-.41,1.22v9.45c0,1.5.92,3.3,2.02,3.93l5.54,3.2c.14.08.49.26.72.13.19-.11.41-.49.41-1.22v-9.45c0-1.5-.92-3.3-2.02-3.93l-5.54-3.2c-.11-.06-.33-.18-.53-.18Z"/>
          </g>
          <g>
            <path class="cls-1" d="m119.47,349.82c0,6.13-4.3,8.61-9.6,5.55-5.3-3.06-9.6-10.51-9.6-16.64s4.3-8.61,9.6-5.55c5.3,3.06,9.6,10.51,9.6,16.64Z"/>
            <path class="cls-2" d="m114.16,357.57c-1.47,0-3.08-.48-4.74-1.44-5.54-3.2-10.05-11.01-10.05-17.4,0-3.29,1.16-5.77,3.26-6.99,2.1-1.21,4.83-.97,7.68.67,5.54,3.2,10.05,11.01,10.05,17.4,0,3.29-1.16,5.77-3.26,6.99-.88.51-1.88.76-2.94.76Zm-8.58-24.81c-.76,0-1.46.17-2.06.52-1.53.88-2.37,2.82-2.37,5.45,0,5.83,4.11,12.95,9.16,15.87,2.28,1.32,4.38,1.55,5.91.67,1.53-.88,2.37-2.82,2.37-5.45,0-5.83-4.11-12.95-9.16-15.87-1.37-.79-2.69-1.2-3.84-1.2Z"/>
          </g>
          <path class="cls-2" d="m143.78,372.1l-.53-.31.89-1.54.53.31-.89,1.54Zm-2.58-1.49l-4.1-2.37.89-1.54,4.1,2.37-.89,1.54Zm-6.15-3.55l-4.1-2.37.89-1.54,4.1,2.37-.89,1.54Z"/>
          <path class="cls-2" d="m142.63,349.33l-4.05-2.45.92-1.52,4.05,2.45-.92,1.52Zm-6.07-3.67l-4.05-2.45.92-1.52,4.05,2.45-.92,1.52Zm-6.07-3.67l-4.05-2.45.92-1.52,4.05,2.45-.92,1.52Z"/>
          <g>
            <polygon class="cls-1" points="152.01 289.43 180.16 272.72 180.16 276.96 186.52 275.8 185.67 280.05 195.32 281.25 166.49 297.58 152.01 289.43"/>
            <path class="cls-2" d="m166.49,298.6l-16.25-9.15,30.8-18.3v4.74l6.61-1.2-.92,4.59,11.36,1.41-31.6,17.9Zm-12.71-9.19l12.7,7.15,26.07-14.77-7.94-.99.78-3.9-6.12,1.11v-3.75l-25.49,15.14Z"/>
          </g>
          <g>
            <polygon class="cls-1" points="113.04 304.8 141.18 288.09 141.18 292.33 147.55 291.17 146.7 295.42 156.35 296.62 127.52 312.95 113.04 304.8"/>
            <path class="cls-2" d="m127.52,313.97l-16.25-9.15,30.81-18.3v4.74l6.6-1.2-.92,4.59,11.36,1.41-31.6,17.9Zm-12.71-9.19l12.7,7.15,26.07-14.77-7.94-.99.78-3.9-6.12,1.11v-3.75l-25.49,15.14Z"/>
          </g>
          <g>
            <polygon class="cls-3" points="187.36 308.99 136.53 279.34 114.59 292.05 165.43 321.7 187.36 308.99"/>
            <g>
              <rect class="cls-2" x="184.94" y="306.32" width="1.77" height="3.55" transform="translate(-173.93 313.25) rotate(-59.72)"/>
              <path class="cls-2" d="m179.79,305.59l-6.1-3.56.89-1.53,6.1,3.56-.89,1.53Zm-10.16-5.93l-6.09-3.56.9-1.53,6.09,3.56-.89,1.53Zm-10.16-5.93l-6.1-3.55.89-1.53,6.1,3.55-.89,1.53Zm-10.16-5.92l-6.1-3.56.89-1.53,6.1,3.56-.89,1.53Z"/>
              <polygon class="cls-2" points="139.15 281.89 136.53 280.36 133.9 281.88 133.01 280.35 136.53 278.31 140.04 280.36 139.15 281.89"/>
              <polygon class="cls-2" points="122.62 288.42 121.73 286.89 128.5 282.96 129.39 284.5 122.62 288.42"/>
              <polygon class="cls-2" points="117.21 294.6 112.83 292.05 117.22 289.5 118.11 291.04 116.36 292.05 118.1 293.07 117.21 294.6"/>
              <path class="cls-2" d="m157.85,318.31l-6.1-3.56.89-1.53,6.1,3.56-.89,1.53Zm-10.16-5.93l-6.1-3.56.89-1.53,6.1,3.56-.89,1.53Zm-10.16-5.93l-6.09-3.56.89-1.53,6.09,3.56-.9,1.53Zm-10.16-5.93l-6.1-3.56.89-1.53,6.1,3.56-.89,1.53Z"/>
              <polygon class="cls-2" points="164.98 322.47 161.92 320.68 162.81 319.15 165.88 320.94 164.98 322.47"/>
            </g>
          </g>
          <g>
            <path class="cls-3" d="m173.04,293.59c3.82,2.2,3.82,5.78,0,7.98-3.82,2.2-10.01,2.2-13.82,0-3.82-2.2-3.82-5.78,0-7.98,3.82-2.2,10.01-2.2,13.82,0Z"/>
            <path class="cls-2" d="m166.12,304.13c-2.65,0-5.29-.6-7.35-1.79-2.13-1.23-3.31-2.92-3.31-4.76s1.17-3.53,3.31-4.76c4.12-2.38,10.58-2.38,14.71,0h0c2.13,1.23,3.31,2.92,3.31,4.76s-1.17,3.53-3.31,4.76c-2.06,1.19-4.71,1.79-7.36,1.79Zm0-11.31c-2.34,0-4.69.51-6.47,1.54-1.56.9-2.42,2.05-2.42,3.22s.86,2.32,2.42,3.22c3.57,2.06,9.37,2.06,12.94,0,1.56-.9,2.42-2.05,2.42-3.22s-.86-2.32-2.42-3.22c-1.78-1.03-4.13-1.54-6.47-1.54Z"/>
          </g>
        </g>
      </g>
    </g>
  </g>
</svg>