<?xml version="1.0" encoding="UTF-8"?>
<svg id="Camada_2" data-name="Camada 2" xmlns="http://www.w3.org/2000/svg" viewBox="0 0 521.77 1097.78">
  <defs>
    <style>
      .cls-1 {
        fill: #fff;
      }

      .cls-2 {
        fill: #282828;
      }

      .cls-3 {
        fill: #ec9b3c;
      }
    </style>
  </defs>
  <g id="Modo_de_isolamento" data-name="Modo de isolamento">
    <g id="_7" data-name="7">
      <g>
        <g>
          <path class="cls-2" d="m196.21,973.88l-3.4,1.96c-.35.2-.96.18-1.36-.06l-3.21-1.85c-.4-.23-.45-.58-.1-.79l3.4-1.96c.35-.2.96-.18,1.36.06l3.21,1.85c.4.23.45.58.1.79Z"/>
          <path class="cls-2" d="m211.65,964.96l-3.4,1.96c-.35.2-.96.18-1.36-.06l-3.21-1.85c-.4-.23-.45-.58-.1-.79l3.4-1.96c.35-.2.96-.18,1.36.06l3.21,1.85c.4.23.45.58.1.79Z"/>
          <path class="cls-2" d="m210.93,1000.21l-3.4,1.96c-.35.2-.96.18-1.36-.06l-3.21-1.85c-.4-.23-.45-.58-.1-.79l3.4-1.96c.35-.2.96-.18,1.36.06l3.21,1.85c.4.23.45.58.1.79Z"/>
          <path class="cls-2" d="m226.37,991.29l-3.4,1.96c-.35.2-.96.18-1.36-.06l-3.21-1.85c-.4-.23-.45-.58-.1-.79l3.4-1.96c.35-.2.96-.18,1.36.06l3.21,1.85c.4.23.45.58.1.79Z"/>
          <path class="cls-2" d="m210.15,1017.59l-3.4,1.96c-.35.2-.96.18-1.36-.06l-3.21-1.85c-.4-.23-.45-.58-.1-.79l3.4-1.96c.35-.2.96-.18,1.36.06l3.21,1.85c.4.23.45.58.1.79Z"/>
          <path class="cls-2" d="m225.59,1008.67l-3.4,1.96c-.35.2-.96.18-1.36-.06l-3.21-1.85c-.4-.23-.45-.58-.1-.79l3.4-1.96c.35-.2.96-.18,1.36.06l3.21,1.85c.4.23.45.58.1.79Z"/>
          <path class="cls-2" d="m224.8,1026.05l-3.4,1.96c-.35.2-.96.18-1.36-.06l-3.21-1.85c-.4-.23-.45-.58-.1-.79l3.4-1.96c.35-.2.96-.18,1.36.06l3.21,1.85c.4.23.45.58.1.79Z"/>
          <path class="cls-2" d="m240.24,1017.13l-3.4,1.96c-.35.2-.96.18-1.36-.06l-3.21-1.85c-.4-.23-.45-.58-.1-.79l3.4-1.96c.35-.2.96-.18,1.36.06l3.21,1.85c.4.23.45.58.1.79Z"/>
          <path class="cls-2" d="m224.87,1043.92l-3.4,1.96c-.35.2-.96.18-1.36-.06l-3.21-1.85c-.4-.23-.45-.58-.1-.79l3.4-1.96c.35-.2.96-.18,1.36.06l3.21,1.85c.4.23.45.58.1.79Z"/>
          <path class="cls-2" d="m240.31,1035l-3.4,1.96c-.35.2-.96.18-1.36-.06l-3.21-1.85c-.4-.23-.45-.58-.1-.79l3.4-1.96c.35-.2.96-.18,1.36.06l3.21,1.85c.4.23.45.58.1.79Z"/>
          <path class="cls-2" d="m239.53,1052.38l-3.4,1.96c-.35.2-.96.18-1.36-.06l-3.21-1.85c-.4-.23-.45-.58-.1-.79l3.4-1.96c.35-.2.96-.18,1.36.06l3.21,1.85c.4.23.45.58.1.79Z"/>
          <path class="cls-2" d="m254.97,1043.47l-3.4,1.96c-.35.2-.96.18-1.36-.06l-3.21-1.85c-.4-.23-.45-.58-.1-.79l3.4-1.96c.35-.2.96-.18,1.36.06l3.21,1.85c.4.23.45.58.1.79Z"/>
          <path class="cls-2" d="m238.74,1069.76l-3.4,1.96c-.35.2-.96.18-1.36-.06l-3.21-1.85c-.4-.23-.45-.58-.1-.79l3.4-1.96c.35-.2.96-.18,1.36.06l3.21,1.85c.4.23.45.58.1.79Z"/>
          <path class="cls-2" d="m254.18,1060.84l-3.4,1.96c-.35.2-.96.18-1.36-.06l-3.21-1.85c-.4-.23-.45-.58-.1-.79l3.4-1.96c.35-.2.96-.18,1.36.06l3.21,1.85c.4.23.45.58.1.79Z"/>
          <path class="cls-2" d="m254.25,1078.71l-3.4,1.96c-.35.2-.96.18-1.36-.06l-3.21-1.85c-.4-.23-.45-.58-.1-.79l3.4-1.96c.35-.2.96-.18,1.36.06l3.21,1.85c.4.23.45.58.1.79Z"/>
          <path class="cls-2" d="m269.69,1069.8l-3.4,1.96c-.35.2-.96.18-1.36-.06l-3.21-1.85c-.4-.23-.45-.58-.1-.79l3.4-1.96c.35-.2.96-.18,1.36.06l3.21,1.85c.4.23.45.58.1.79Z"/>
          <path class="cls-2" d="m268.91,1087.17l-3.4,1.96c-.35.2-.96.18-1.36-.06l-3.21-1.85c-.4-.23-.45-.58-.1-.79l3.4-1.96c.35-.2.96-.18,1.36.06l3.21,1.85c.4.23.45.58.1.79Z"/>
          <path class="cls-2" d="m284.35,1078.26l-3.4,1.96c-.35.2-.96.18-1.36-.06l-3.21-1.85c-.4-.23-.45-.58-.1-.79l3.4-1.96c.35-.2.96-.18,1.36.06l3.21,1.85c.4.23.45.58.1.79Z"/>
          <path class="cls-2" d="m283.56,1095.64l-3.4,1.96c-.35.2-.96.18-1.36-.06l-3.21-1.85c-.4-.23-.45-.58-.1-.79l3.4-1.96c.35-.2.96-.18,1.36.06l3.21,1.85c.4.23.45.58.1.79Z"/>
          <path class="cls-2" d="m299.01,1086.72l-3.4,1.96c-.35.2-.96.18-1.36-.06l-3.21-1.85c-.4-.23-.45-.58-.1-.79l3.4-1.96c.35-.2.96-.18,1.36.06l3.21,1.85c.4.23.45.58.1.79Z"/>
          <path class="cls-2" d="m314.45,1077.81l-3.4,1.96c-.35.2-.96.18-1.36-.06l-3.21-1.85c-.4-.23-.45-.58-.1-.79l3.4-1.96c.35-.2.96-.18,1.36.06l3.21,1.85c.4.23.45.58.1.79Z"/>
          <path class="cls-2" d="m329.89,1068.89l-3.4,1.96c-.35.2-.96.18-1.36-.06l-3.21-1.85c-.4-.23-.45-.58-.1-.79l3.4-1.96c.35-.2.96-.18,1.36.06l3.21,1.85c.4.23.45.58.1.79Z"/>
          <path class="cls-2" d="m314.52,1095.68l-3.4,1.96c-.35.2-.96.18-1.36-.06l-3.21-1.85c-.4-.23-.45-.58-.1-.79l3.4-1.96c.35-.2.96-.18,1.36.06l3.21,1.85c.4.23.45.58.1.79Z"/>
          <path class="cls-2" d="m329.96,1086.76l-3.4,1.96c-.35.2-.96.18-1.36-.06l-3.21-1.85c-.4-.23-.45-.58-.1-.79l3.4-1.96c.35-.2.96-.18,1.36.06l3.21,1.85c.4.23.45.58.1.79Z"/>
        </g>
        <g>
          <path class="cls-2" d="m138.6,851.5l-3.4,1.96c-.35.2-.96.18-1.36-.06l-3.21-1.85c-.4-.23-.45-.58-.1-.79l3.4-1.96c.35-.2.96-.18,1.36.06l3.21,1.85c.4.23.45.58.1.79Z"/>
          <path class="cls-2" d="m137.82,868.87l-3.4,1.96c-.35.2-.96.18-1.36-.06l-3.21-1.85c-.4-.23-.45-.58-.1-.79l3.4-1.96c.35-.2.96-.18,1.36.06l3.21,1.85c.4.23.45.58.1.79Z"/>
          <path class="cls-2" d="m122.7,860.18l-3.4,1.96c-.35.2-.96.18-1.36-.06l-3.21-1.85c-.4-.23-.45-.58-.1-.79l3.4-1.96c.35-.2.96-.18,1.36.06l3.21,1.85c.4.23.45.58.1.79Z"/>
          <path class="cls-2" d="m122.77,878.05l-3.4,1.96c-.35.2-.96.18-1.36-.06l-3.21-1.85c-.4-.23-.45-.58-.1-.79l3.4-1.96c.35-.2.96-.18,1.36.06l3.21,1.85c.4.23.45.58.1.79Z"/>
          <path class="cls-2" d="m121.98,895.43l-3.4,1.96c-.35.2-.96.18-1.36-.06l-3.21-1.85c-.4-.23-.45-.58-.1-.79l3.4-1.96c.35-.2.96-.18,1.36.06l3.21,1.85c.4.23.45.58.1.79Z"/>
          <path class="cls-2" d="m137.42,886.52l-3.4,1.96c-.35.2-.96.18-1.36-.06l-3.21-1.85c-.4-.23-.45-.58-.1-.79l3.4-1.96c.35-.2.96-.18,1.36.06l3.21,1.85c.4.23.45.58.1.79Z"/>
          <path class="cls-2" d="m136.64,903.89l-3.4,1.96c-.35.2-.96.18-1.36-.06l-3.21-1.85c-.4-.23-.45-.58-.1-.79l3.4-1.96c.35-.2.96-.18,1.36.06l3.21,1.85c.4.23.45.58.1.79Z"/>
          <path class="cls-2" d="m152.08,894.98l-3.4,1.96c-.35.2-.96.18-1.36-.06l-3.21-1.85c-.4-.23-.45-.58-.1-.79l3.4-1.96c.35-.2.96-.18,1.36.06l3.21,1.85c.4.23.45.58.1.79Z"/>
          <path class="cls-2" d="m136.71,921.76l-3.4,1.96c-.35.2-.96.18-1.36-.06l-3.21-1.85c-.4-.23-.45-.58-.1-.79l3.4-1.96c.35-.2.96-.18,1.36.06l3.21,1.85c.4.23.45.58.1.79Z"/>
          <path class="cls-2" d="m152.15,912.85l-3.4,1.96c-.35.2-.96.18-1.36-.06l-3.21-1.85c-.4-.23-.45-.58-.1-.79l3.4-1.96c.35-.2.96-.18,1.36.06l3.21,1.85c.4.23.45.58.1.79Z"/>
          <path class="cls-2" d="m151.36,930.23l-3.4,1.96c-.35.2-.96.18-1.36-.06l-3.21-1.85c-.4-.23-.45-.58-.1-.79l3.4-1.96c.35-.2.96-.18,1.36.06l3.21,1.85c.4.23.45.58.1.79Z"/>
          <path class="cls-2" d="m166.8,921.31l-3.4,1.96c-.35.2-.96.18-1.36-.06l-3.21-1.85c-.4-.23-.45-.58-.1-.79l3.4-1.96c.35-.2.96-.18,1.36.06l3.21,1.85c.4.23.45.58.1.79Z"/>
          <path class="cls-2" d="m166.02,938.69l-3.4,1.96c-.35.2-.96.18-1.36-.06l-3.21-1.85c-.4-.23-.45-.58-.1-.79l3.4-1.96c.35-.2.96-.18,1.36.06l3.21,1.85c.4.23.45.58.1.79Z"/>
          <path class="cls-2" d="m166.09,956.56l-3.4,1.96c-.35.2-.96.18-1.36-.06l-3.21-1.85c-.4-.23-.45-.58-.1-.79l3.4-1.96c.35-.2.96-.18,1.36.06l3.21,1.85c.4.23.45.58.1.79Z"/>
          <path class="cls-2" d="m181.53,947.64l-3.4,1.96c-.35.2-.96.18-1.36-.06l-3.21-1.85c-.4-.23-.45-.58-.1-.79l3.4-1.96c.35-.2.96-.18,1.36.06l3.21,1.85c.4.23.45.58.1.79Z"/>
          <path class="cls-2" d="m180.74,965.02l-3.4,1.96c-.35.2-.96.18-1.36-.06l-3.21-1.85c-.4-.23-.45-.58-.1-.79l3.4-1.96c.35-.2.96-.18,1.36.06l3.21,1.85c.4.23.45.58.1.79Z"/>
          <path class="cls-2" d="m196.19,956.1l-3.4,1.96c-.35.2-.96.18-1.36-.06l-3.21-1.85c-.4-.23-.45-.58-.1-.79l3.4-1.96c.35-.2.96-.18,1.36.06l3.21,1.85c.4.23.45.58.1.79Z"/>
          <path class="cls-2" d="m211.63,947.19l-3.4,1.96c-.35.2-.96.18-1.36-.06l-3.21-1.85c-.4-.23-.45-.58-.1-.79l3.4-1.96c.35-.2.96-.18,1.36.06l3.21,1.85c.4.23.45.58.1.79Z"/>
        </g>
      </g>
      <g>
        <g>
          <g>
            <g>
              <path class="cls-3" d="m219.89,916.58c-3.78-25.11-27.15-89.28-63.23-101.22,0,0-5.23-1.62-11.43,8.97-4.1,7-6.77,20.06-8.11,28.11-.73,4.35.45,8.79,3.2,12.24l7.38,9.68s13.88,26.29,21.93,41.64c.09.17.17.3.26.45,9.6,18.06,22.21,28.44,33.53,26.74,14.25-2.15,20.26-1.51,16.48-26.62Z"/>
              <path class="cls-2" d="m200.96,944.89c-11.12,0-23.05-10.12-32.4-27.72l-.26-.46c-8.05-15.34-21.92-41.63-21.92-41.63l-7.25-9.47c-3-3.76-4.28-8.65-3.49-13.4,1.54-9.22,4.23-21.66,8.3-28.63,6.61-11.3,12.51-9.85,13.17-9.65,36.62,12.12,60.48,77.29,64.27,102.43h0c1.84,12.23,1.44,18.78-1.39,22.59-2.81,3.78-7.53,4.46-14.07,5.41l-2.28.34c-.89.13-1.78.2-2.68.2Zm-29.75-29.12c9.34,17.58,21.56,27.55,31.99,25.96l2.29-.34c6.04-.87,10.02-1.45,12.09-4.23,2.27-3.06,2.52-9.15.83-20.35h0c-3.7-24.6-26.87-88.32-62.22-100.02h0s-4.31-.84-9.66,8.31c-4.05,6.92-6.7,20.26-7.93,27.6-.65,3.91.4,7.94,2.89,11.06l7.4,9.71c.13.21,14.01,26.5,22.06,41.85l-1.07,1.15,1.32-.7Z"/>
            </g>
            <g>
              <path class="cls-2" d="m169.9,916.01c9.6,18.06,22.21,28.44,33.53,26.74,11.18-1.68,17.25-1.71,17.54-13.73-2.52,11.06-19.23,12.56-28.03,2.94-8.83-9.65-28.41-43.84-38.01-69.76-9.6-25.92,16.01-25.75,16.01-25.75l-7.36-18.55c-2.25-1.2-4.55-2.22-6.91-3,0,0-5.23-1.62-11.43,8.97-4.1,7-6.77,20.06-8.11,28.11-.73,4.35.45,8.79,3.2,12.24l7.38,9.68s13.88,26.29,21.93,41.64c.09.17.17.3.26.45Z"/>
              <path class="cls-2" d="m200.98,944.44c-11.12,0-23.05-10.12-32.41-27.72l1.32-.7-1.41.55c-8.22-15.65-22.1-41.94-22.1-41.94l-7.25-9.47c-3-3.76-4.28-8.66-3.49-13.4,1.54-9.21,4.23-21.66,8.3-28.63,6.61-11.29,12.51-9.85,13.17-9.65,2.37.79,4.78,1.83,7.17,3.11.31.17.56.44.69.77l7.36,18.55c.18.46.12.99-.16,1.4-.28.41-.85.66-1.24.65h0c-.2,0-10.12.06-14.52,6.35-2.82,4.04-2.85,9.89-.08,17.38,9.24,24.95,28.79,59.52,37.71,69.27,4.41,4.82,11.47,6.98,17.54,5.37,2.46-.65,6.75-2.51,7.92-7.63.17-.75.9-1.24,1.65-1.16.76.09,1.33.75,1.31,1.52-.3,12.48-6.82,13.42-16.67,14.86l-2.15.32c-.88.13-1.78.2-2.67.2Zm-29.76-29.12c9.35,17.57,21.6,27.56,31.99,25.96l2.17-.32c6.01-.87,9.86-1.43,12-4.03-1.43,1.02-3.12,1.8-5.01,2.3-7.13,1.89-15.38-.63-20.52-6.25-9.29-10.16-28.8-44.57-38.31-70.25-3.14-8.48-2.99-15.26.44-20.15,3.98-5.67,11.2-7.12,14.82-7.49l-6.39-16.1c-2.08-1.08-4.16-1.97-6.19-2.64h0s-4.31-.84-9.67,8.31c-4.05,6.92-6.7,20.26-7.93,27.6-.65,3.91.4,7.94,2.89,11.06l7.4,9.7c.13.21,14.01,26.5,22.06,41.85l-1.07,1.15,1.32-.7Z"/>
            </g>
            <g>
              <path class="cls-1" d="m160.22,789.1s-.08,27.35-5.75,40.87c0,0,1.13,10.98,12.47,34.76,11.34,23.78,17.32,37.46,28.86,41.69,11.54,4.23,18.43-9.55,8.78-35.31-9.65-25.76-12.66-64.56-12.66-64.56l-20.17-9.81-11.52-7.65Z"/>
              <path class="cls-2" d="m199.74,908.68c-1.41,0-2.91-.28-4.45-.85-11.52-4.22-17.71-17.24-27.96-38.81l-1.73-3.65c-11.32-23.74-12.56-34.8-12.61-35.25-.02-.25.01-.5.11-.73,5.49-13.09,5.63-40.02,5.63-40.29,0-.55.31-1.06.79-1.32s1.08-.23,1.54.07l11.52,7.65,20,9.71c.48.23.8.7.84,1.23.03.39,3.1,38.89,12.57,64.15,6.09,16.27,6.27,29.47.46,35.31-1.82,1.84-4.13,2.78-6.71,2.78Zm-43.72-78.51c.31,2.05,2.33,13.05,12.28,33.92l1.74,3.65c9.93,20.88,15.92,33.48,26.28,37.28,2.27.84,5.5,1.3,8-1.23,3.65-3.68,5.54-14.3-1.14-32.15-8.82-23.53-12.16-58.22-12.68-64.11l-19.41-9.43-9.41-6.23c-.18,7.27-1.09,27-5.66,38.3Z"/>
            </g>
          </g>
          <g>
            <g>
              <path class="cls-3" d="m290.18,992.55c-11.24-21.34-26.42-40.75-35.24-46-8.82-5.25-24.02-2.01-24.02-2.01,0,0-10.89,7.24-9.23,20.66,1.06,8.55,3.15,18.99,4.53,25.43.84,3.92,2.63,7.57,5.22,10.63l5.27,6.23s15.06,24.9,23.09,35.41c.18.23.34.38.51.58.82,1.16,1.57,2.35,2.42,3.49.05.07.1.14.16.21,27.45,36.99,45.72,21.04,51.93,14.16,10.94-12.13-13.39-47.45-24.63-68.79Z"/>
              <path class="cls-2" d="m296.3,1072.21c-.37,0-.73,0-1.1-.03-10.75-.51-22.03-8.62-33.52-24.11-.67-.91-1.16-1.63-1.65-2.36l-.94-1.38c-.2-.2-.33-.35-.47-.53-7.99-10.45-23.03-35.29-23.18-35.54l-5.14-6.04c-2.74-3.23-4.65-7.13-5.54-11.29-1.5-7.02-3.51-17.16-4.55-25.56-1.75-14.17,9.41-21.77,9.89-22.09.16-.1.33-.18.52-.22.64-.14,15.88-3.3,25.1,2.19,9.35,5.56,24.74,25.59,35.8,46.59h0c2.1,3.99,4.67,8.48,7.39,13.24,12.49,21.84,26.64,46.6,17.03,57.25-5.91,6.55-12.51,9.87-19.62,9.87Zm-64.79-126.26c-1.54,1.12-9.75,7.66-8.34,19.06,1.02,8.29,3.02,18.34,4.51,25.3.78,3.67,2.48,7.12,4.9,9.97l5.27,6.23c.29.44,15.25,25.14,23.14,35.46.01.02.45.5.46.52l1.06,1.54c.46.69.92,1.37,1.42,2.04,11.09,14.94,21.61,22.64,31.41,23.11,6.58.36,12.77-2.66,18.35-8.86,8.15-9.04-6.02-33.84-17.41-53.76-2.73-4.78-5.31-9.29-7.44-13.33h0c-10.66-20.24-25.89-40.19-34.68-45.41-7.58-4.5-20.56-2.28-22.66-1.89Z"/>
            </g>
            <g>
              <path class="cls-2" d="m291.52,1062.75c-13.58-4.32-35.03-35.53-47.55-56.59-12.52-21.07-4.6-38.48-4.6-38.48,0,0,23.82,13.77,37.45,17.92,8.31,2.53,15.24,11.31,19.4,17.78-2.19-3.84-4.27-7.51-6.01-10.82-11.24-21.34-26.54-47.54-35.36-52.79-8.82-5.25-23.9,4.78-23.9,4.78,0,0-10.89,7.24-9.23,20.66,1.06,8.55,3.15,18.98,4.53,25.43.84,3.92,2.63,7.57,5.22,10.63l5.27,6.23s15.06,24.9,23.09,35.41c.18.23.34.38.51.58.82,1.16,1.57,2.36,2.42,3.49.05.07.1.14.16.21,27.45,36.99,45.72,21.04,51.93,14.16,3.1-3.44,3.31-8.78,1.84-15.11,1.23,7.64-7.2,22.23-25.15,16.52Z"/>
              <path class="cls-2" d="m296.33,1072.21c-.37,0-.73,0-1.1-.02-10.75-.51-22.02-8.63-33.52-24.12-.67-.91-1.16-1.63-1.65-2.35l-.95-1.39c-.2-.21-.34-.35-.47-.53-7.99-10.45-23.03-35.29-23.18-35.54l-5.13-6.04c-2.74-3.23-4.65-7.13-5.54-11.29-1.5-7.01-3.51-17.14-4.55-25.56-1.75-14.17,9.41-21.77,9.89-22.09.64-.43,15.97-10.49,25.5-4.81,9.89,5.88,26.75,35.97,35.92,53.38,1.74,3.3,3.8,6.95,5.98,10.78.4.71.17,1.6-.53,2.03-.7.41-1.6.21-2.04-.48-4.19-6.52-10.81-14.79-18.57-17.16-11.79-3.58-30.67-14.03-36.22-17.17-1.49,4.63-4.75,18.98,5.09,35.53,13.88,23.36,34.44,52.03,46.72,55.93h0c8.99,2.86,14.68.2,17.87-2.55,4.22-3.64,5.89-8.94,5.35-12.31-.13-.8.4-1.55,1.19-1.71.79-.15,1.57.34,1.75,1.13,1.74,7.51,1.03,12.89-2.18,16.45-5.91,6.55-12.51,9.87-19.62,9.87Zm-47.63-132.49c-7.7,0-16.81,5.98-16.93,6.06-.41.27-10.09,6.93-8.57,19.23,1.08,8.76,3.29,19.61,4.51,25.3.78,3.67,2.48,7.12,4.9,9.97l5.27,6.23c.29.44,15.25,25.14,23.14,35.46.02.02.45.5.46.52l1.06,1.54c.46.69.92,1.37,1.41,2.04,11.09,14.93,21.61,22.64,31.41,23.11,6.59.32,12.77-2.66,18.35-8.86.94-1.05,1.6-2.34,1.98-3.89-.99,1.63-2.27,3.21-3.9,4.61-5.32,4.58-12.69,5.69-20.74,3.13h0c-16.86-5.37-43.26-48.64-48.38-57.26-12.77-21.49-5.02-39.12-4.68-39.87.18-.39.5-.68.91-.81.4-.12.84-.08,1.21.13.24.14,23.82,13.74,37.13,17.78,3.62,1.1,6.97,3.29,9.98,5.97-14.61-27.39-26.63-45.2-33.15-49.08-1.59-.95-3.44-1.33-5.38-1.33Z"/>
            </g>
            <g>
              <path class="cls-1" d="m234.15,965.5c4.12,14.36,13.69,34.25,30.06,51.85,14.02,15.06,36.55,4.77,21.66-22.71-5.15-9.51-12.35-26.69-17.87-40.47-3.8-9.68-5.22-14.32-6.74-19.63-2.71-9.51-5.1-24.3-5.1-24.3l-36.63,1.8s4.07,12.01,7.05,25.1c.03.13,3.46,14.07,7.56,28.36Z"/>
              <path class="cls-2" d="m278.5,1025.81c-5.22,0-10.88-2.59-15.39-7.43-20.05-21.54-27.94-43.87-30.41-52.46h0c-3.73-13.01-6.94-25.86-7.55-28.31-2.96-12.98-7-24.96-7.04-25.08-.15-.45-.08-.94.18-1.32.27-.39.7-.63,1.16-.66l36.63-1.8c.86,0,1.43.51,1.55,1.26.02.15,2.41,14.81,5.06,24.13,1.45,5.08,2.86,9.74,6.69,19.5,5.25,13.09,12.6,30.72,17.8,40.3,8.32,15.35,5.15,25.23-.6,29.36-2.36,1.7-5.15,2.52-8.09,2.52Zm-56.93-112.36c1.26,3.91,4.2,13.37,6.48,23.37.62,2.51,3.82,15.32,7.54,28.28h0c2.41,8.39,10.12,30.18,29.72,51.25,6.79,7.3,14.97,7.8,19.54,4.52,4.71-3.38,7.1-11.85-.29-25.49-5.26-9.7-12.66-27.45-17.95-40.62-3.88-9.89-5.32-14.62-6.79-19.78-2.23-7.82-4.26-19.29-4.92-23.15l-33.33,1.64Z"/>
            </g>
          </g>
          <g>
            <path class="cls-2" d="m323.94,489.35s-4.8,74.87-32.88,133.09c-28.07,58.22-65.41,93.44-65.41,93.44l-37.67,96.17s-23.02-1.12-31.36-27.78c0,0,3.37-29.73,2.58-52.88-.78-23.15,17.65-77.71,26.27-93.76,8.62-16.05,31.5-126.02,31.5-126.02l48.63-51.76,58.34,29.51Z"/>
            <path class="cls-2" d="m187.99,813.55s-.05,0-.07,0c-.24-.01-24.16-1.49-32.72-28.83-.06-.2-.08-.41-.06-.61.03-.3,3.35-29.89,2.57-52.66-.77-22.87,17.27-77.42,26.45-94.52,8.42-15.68,31.12-124.52,31.35-125.61.06-.27.19-.52.37-.72l48.63-51.76c.45-.49,1.18-.61,1.77-.31l58.34,29.51c.54.27.86.83.82,1.43-.05.75-5.14,75.83-33.02,133.65-26.68,55.34-62.17,90.43-65.48,93.64l-37.56,95.86c-.23.58-.78.95-1.4.95Zm-29.84-29.43c7,21.9,24.4,25.7,28.86,26.32l37.26-95.1c.08-.21.21-.39.37-.54.37-.35,37.46-35.72,65.08-93,25.9-53.72,31.97-122.55,32.66-131.56l-56.45-28.55-47.57,50.64c-1.77,8.48-23.12,110.29-31.56,126.01-9.06,16.87-26.85,70.57-26.09,93,.74,21.71-2.2,49.5-2.56,52.78Z"/>
          </g>
          <g>
            <path class="cls-2" d="m112.96,517.05s2.98,56.42,40.59,154.33l35.34,91.43s-13.34,29.15,1.12,78.17c14.46,49.02,26.45,77.08,26.45,77.08,0,0,20.39,8.39,39.7-7.81,0,0-7.15-94.73-1.77-123.04,5.38-28.31,2.92-48.35,2.62-69.8-.31-21.45-20.47-137.71-33.9-178.78-13.42-41.07-110.15-21.58-110.15-21.58Z"/>
            <path class="cls-2" d="m229.46,921.67c-7.97,0-13.46-2.19-13.57-2.23-.36-.15-.65-.44-.81-.8-.12-.28-12.19-28.7-26.51-77.24-13.5-45.78-3.17-74.12-1.3-78.62l-35.12-90.86c-37.26-97.01-40.66-154.23-40.69-154.79-.04-.74.47-1.4,1.2-1.55,4-.81,98.19-19.27,111.87,22.58,13.85,42.35,33.68,158.68,33.97,179.22.06,4.56.23,9.05.39,13.57.61,16.76,1.23,34.08-3.04,56.53-5.29,27.79,1.72,121.7,1.79,122.65.04.48-.16.95-.53,1.26-9.77,8.19-19.89,10.28-27.67,10.28Zm-11.87-4.79c3.35,1.19,20.37,6.22,37.02-7.3-.72-9.73-6.85-95.51-1.69-122.66,4.21-22.12,3.58-39.27,2.98-55.86-.16-4.54-.33-9.06-.39-13.64-.29-20.42-20.03-136.16-33.82-178.33-12.04-36.82-95.66-22.91-107.13-20.82.73,9.01,6.42,64.1,40.39,152.57l35.34,91.42c.15.38.13.8-.03,1.16-.13.29-12.91,29.29,1.2,77.12,13.14,44.53,24.36,72.04,26.14,76.32Z"/>
          </g>
          <g>
            <path class="cls-1" d="m388.84,369.04s6.26,4.63,10.56,2.38c4.57-2.38,9.14-5.89,14.41-5.47s9.27.66,12.62,1.19c3.35.52,9.86.48,9.86.48,0,0,3.48,6.24-1.26,9.29,0,0,14.25,8.17,19.77,9.98,5.52,1.81,23.55,9.33,28.55,11.17,5,1.84,7.25,5.04,6.03,8.26-1.69,4.46-12.56.06-20.03-2.34-7.47-2.41-16.33-4.56-16.33-4.56,0,0,24.79,12.69,31.06,15.51,6.27,2.82,12.79,6,9.82,11.59-2.39,4.5-19.95-4.94-31.24-10.12-11.29-5.18-12.63-4.06-12.63-4.06,0,0,12.51,8.27,18.12,11.99,5.62,3.73,11.58,10.59,12.43,13.52.85,2.93-1.85,8.14-9.37,1.54-7.52-6.6-9.91-8.75-9.91-8.75l-16.64-7s6.76,6.52,9.58,9.47c1.98,2.08,3.22,4.73,3.22,4.73,0,0,3.38,7.52,2.47,10.02-.92,2.5-6.12,3.3-8.08-.63-1.21-2.42-2.49-5.04-3.3-6.69-.54-1.11-1.4-2-2.5-2.57-2.75-1.44-8.37-4.22-13-5.5-6.39-1.76-25.94-7.56-32.55-13.51-6.61-5.95-9.16-10.89-17.4-14.48-6.35-2.77-26.21-32.74-26.21-32.74l15.19-12.09,16.77,9.39Z"/>
            <path class="cls-2" d="m456.2,451.45c-2.43,0-4.59-1.34-5.7-3.55-1.21-2.42-2.5-5.05-3.3-6.7-.4-.82-1.04-1.48-1.84-1.9-2.84-1.48-8.26-4.16-12.7-5.38-6.02-1.66-26.18-7.57-33.15-13.84-2.08-1.87-3.73-3.61-5.32-5.28-3.49-3.68-6.25-6.58-11.67-8.94-6.57-2.86-24.8-30.18-26.86-33.28-.43-.65-.29-1.52.32-2l15.19-12.09c.48-.38,1.14-.43,1.66-.13l16.77,9.39c.05.03.11.06.16.1,1.54,1.13,6.14,3.74,8.97,2.26.92-.48,1.85-1.01,2.78-1.54,3.83-2.19,7.78-4.48,12.44-4.09l3.08.24c3.87.3,6.93.53,9.65.96,3.19.5,9.54.46,9.62.46h.01c.54,0,1.04.3,1.31.77,1.22,2.19,2.47,6.61-.03,9.74,3.98,2.23,13.52,7.47,17.69,8.84,3.39,1.11,11.26,4.28,18.2,7.07,4.44,1.79,8.43,3.39,10.4,4.11,3.39,1.25,5.73,3.11,6.77,5.38.7,1.55.76,3.21.15,4.82-1.98,5.24-10.97,2.22-18.89-.45-1.04-.35-2.05-.69-3-1-.67-.21-1.35-.43-2.03-.64,6.98,3.52,14.74,7.4,17.84,8.79,5.34,2.4,9.86,4.68,11.12,8.36.58,1.69.38,3.47-.59,5.3-2.49,4.7-12.48.38-27.43-6.74-2.02-.96-3.97-1.89-5.76-2.71-1.21-.55-2.3-1.03-3.28-1.45,3.61,2.39,7.64,5.06,10.22,6.77,5.54,3.68,12,10.78,13.04,14.35.55,1.9.03,4.63-2.04,5.95-1.72,1.09-4.81,1.48-9.76-2.86-6.34-5.57-9.03-7.97-9.73-8.59l-9.11-3.83c1.49,1.47,2.96,2.94,3.95,3.99,2.13,2.23,3.44,5.01,3.49,5.13.86,1.91,3.56,8.32,2.52,11.17-.64,1.74-2.51,2.94-4.76,3.07-.12,0-.25.01-.37.01Zm-97.3-79.39c7.96,11.9,20.58,29.2,24.8,31.05,5.98,2.61,9.07,5.86,12.65,9.62,1.55,1.63,3.16,3.32,5.15,5.12,5.15,4.63,19.88,9.85,31.94,13.18,4.71,1.3,10.35,4.08,13.3,5.61,1.37.72,2.46,1.84,3.15,3.24.8,1.65,2.09,4.26,3.29,6.67.9,1.81,2.56,1.92,3.22,1.89.99-.05,1.9-.53,2.11-1.11.42-1.15-.91-5.52-2.43-8.88,0,0-1.16-2.44-2.94-4.31-2.76-2.9-9.47-9.36-9.53-9.42-.52-.5-.61-1.3-.21-1.9.39-.6,1.17-.84,1.83-.56l16.64,7c.15.06.3.16.42.27,0,0,2.39,2.16,9.89,8.74,2.69,2.36,5,3.34,6.17,2.58.77-.49,1.02-1.73.77-2.58-.69-2.37-6.26-9-11.82-12.69-5.62-3.73-18.12-11.99-18.12-11.99-.4-.26-.64-.69-.67-1.17-.03-.47.17-.93.54-1.24.57-.47,2.07-1.72,14.22,3.85,1.8.83,3.76,1.76,5.8,2.73,6.63,3.16,22.16,10.56,23.5,8.04.57-1.08.71-2.04.4-2.92-.94-2.75-6.1-5.06-9.51-6.6-6.23-2.8-30.12-15.03-31.13-15.55-.68-.35-.99-1.15-.72-1.86.27-.71,1.01-1.12,1.76-.93.09.02,9,2.2,16.44,4.59.97.31,1.99.66,3.04,1.01,5.3,1.79,14.18,4.77,15.13,2.23.32-.85.3-1.7-.07-2.51-.69-1.5-2.49-2.86-5.08-3.81-1.98-.73-6-2.34-10.48-4.15-6.9-2.78-14.72-5.92-18.02-7.01-5.6-1.84-19.46-9.77-20.04-10.11-.46-.26-.74-.74-.75-1.26-.01-.52.25-1.02.69-1.3,2.7-1.73,1.75-5.03,1.12-6.53-1.97,0-6.46-.08-9.14-.5-2.61-.41-5.61-.64-9.42-.93l-3.09-.24c-3.74-.32-7.12,1.65-10.71,3.7-.96.55-1.92,1.1-2.88,1.6-4.83,2.52-11.22-1.85-12.06-2.45l-15.82-8.85-13.32,10.6Z"/>
          </g>
          <g>
            <path class="cls-2" d="m122.65,371.46s6.1,2.92,6.91,7.57c5.1,29.13-9.01,36.03-9.01,36.03l-37.31-1.52,39.41-42.08Z"/>
            <path class="cls-2" d="m120.55,416.55s-.04,0-.06,0l-37.31-1.52c-.59-.02-1.1-.39-1.33-.93s-.11-1.17.29-1.59l39.4-42.08c.45-.48,1.15-.61,1.74-.33.28.13,6.8,3.32,7.74,8.66,5.23,29.89-9.21,37.33-9.82,37.63-.21.1-.43.15-.66.15Zm-33.98-4.38l33.6,1.37c1.88-1.2,12.31-9.08,7.9-34.25-.49-2.82-3.55-5-5.13-5.95l-36.37,38.84Z"/>
          </g>
          <g>
            <path class="cls-3" d="m369.7,403.02s-8.07-11.34,5.6-29.28c4.18-5.47,10.9-9.88,20.74-7.51l-19.63-11.74-5.06-3.86s-19.41-141.65-29.35-152.9c-9.93-11.26-34.2-18.82-34.2-18.82l-57.68,32.31,51.51,85.59s16.06,60.03,20.43,80.06c4.36,20.02,8.76,24.3,24.03,28.97,2.08.63,4.24,1.26,6.43,1.87,1.84,3.99,3,7.18,8.69,14.07l24.4.6s-.64-.51-1.71-1.48c-3.84-3.45-7.21-7.4-10.12-11.66-2.59-3.8-4.07-6.21-4.07-6.21Z"/>
            <path class="cls-2" d="m385.61,423.87h-.04l-24.4-.6c-.43-.01-.84-.21-1.12-.54-5.25-6.35-6.76-9.68-8.36-13.22l-.25-.54c-1.97-.55-3.92-1.12-5.79-1.69-15.36-4.7-20.52-9.21-25.06-30.09-4.18-19.18-19.32-75.91-20.36-79.79l-51.4-85.4c-.21-.35-.27-.77-.16-1.16.1-.39.36-.72.72-.92l57.68-32.3c.36-.2.79-.25,1.18-.12,1.01.31,24.79,7.81,34.88,19.26,9.88,11.2,28.04,141.61,29.62,153.08l4.57,3.48,19.49,11.64c.64.38.9,1.17.62,1.85-.28.68-1.02,1.06-1.74.89-9.69-2.34-15.79,2.5-19.2,6.96-12.77,16.74-5.87,27.07-5.57,27.5.02.02.03.05.05.08.01.02,1.48,2.4,4.04,6.15,2.94,4.31,6.26,8.14,9.88,11.39,1.01.91,1.63,1.4,1.65,1.42.5.4.69,1.08.47,1.68-.22.59-.78.99-1.41.99Zm-23.67-3.58l19.62.48c-3.28-3.13-6.31-6.73-9.02-10.7-2.43-3.57-3.89-5.92-4.09-6.23-.66-.96-8.22-12.8,5.66-31.01,3.08-4.04,8.06-8.33,15.44-8.74l-13.91-8.32-5.2-3.95c-.31-.24-.52-.6-.58-.99-5.38-39.27-21.08-143.16-28.98-152.12-8.68-9.84-29.13-16.93-32.92-18.18l-55.76,31.23,50.71,84.26c.07.12.13.25.16.38.16.6,16.12,60.3,20.44,80.13,4.29,19.68,8.51,23.42,23.01,27.86,2.07.63,4.22,1.25,6.4,1.86.42.12.78.42.96.82l.54,1.19c1.54,3.39,2.87,6.33,7.51,12.02Z"/>
          </g>
          <g>
            <path class="cls-3" d="m137.03,195.75s-28.16,5.29-45.76,27.26C73.67,244.98,2.43,368.98,1.54,382.56c-.89,13.59,12.96,32.93,42.78,30.33,21.11-1.84,28.21-3.09,28.21-3.09,0,0,3.54,9.15,9.6,15.03l14.88-9.99s-11.97-7.82-8.49-24.31c5.23-24.78,24.12-21.52,24.12-21.52l-43.57-7.52s35.49-32.91,54.9-60.69c0,0,17.13,46.08,27.47,85.57,0,0-25.44,49.44-35.8,78.15-9.47,26.26-18.48,61.44-18.48,61.44,0,0,23.88,31.15,79.42,35.78,47.32,3.95,94.79-11.08,94.79-11.08l2.91-49.32,12.57,43.8s21.7-1.51,40.75-28.67c3.83-5.46,6.91-11.42,9.53-17.55l2.61-6.12s-35.57-72.78-35.54-91.79c.04-34.75,16-50.24,20.42-65.08,7.21-24.22-3.73-38.86-15.51-65.29-3.58-8.04-4.36-12.77-3.88-15.54l-168.22-59.36Z"/>
            <path class="cls-2" d="m192.82,563.9c-5.41,0-10.89-.2-16.36-.66-55.56-4.63-80.24-36.04-80.48-36.36-.28-.36-.38-.84-.26-1.28.09-.35,9.14-35.55,18.52-61.57,9.71-26.91,32.88-72.47,35.61-77.82-8.8-33.44-22.54-71.87-26.31-82.21-16.67,23.08-43.47,49.12-51.26,56.54l40.62,7.01c.81.14,1.36.91,1.22,1.73-.14.82-.93,1.35-1.73,1.23h0c-.8-.13-17.56-2.59-22.4,20.35-3.23,15.31,7.73,22.67,7.85,22.75.42.28.67.74.68,1.25,0,.5-.25.97-.66,1.25l-14.88,9.99c-.58.39-1.37.32-1.88-.17-5.02-4.87-8.32-11.76-9.49-14.44-2.77.41-10.69,1.48-27.15,2.92-14.47,1.25-27.03-2.55-35.39-10.72-6.13-6-9.5-13.92-9.02-21.2.96-14.6,74.2-140.6,90.06-160.39,17.74-22.15,45.48-27.58,46.65-27.8.82-.16,1.6.38,1.75,1.2.15.81-.38,1.6-1.2,1.75-.27.05-27.83,5.46-44.86,26.73C74.46,246.39,3.9,369.47,3.03,382.66c-.42,6.42,2.62,13.47,8.13,18.86,7.72,7.56,19.46,11.06,33.03,9.88,20.76-1.81,28.02-3.06,28.09-3.07.7-.14,1.4.27,1.66.93.03.09,3.17,8.06,8.4,13.64l12.16-8.16c-3.35-3.04-10.26-11.15-7.44-24.5,2.86-13.57,9.76-19.15,15.71-21.4l-33.95-5.86c-.56-.1-1.02-.51-1.18-1.05-.16-.55,0-1.14.42-1.52.35-.33,35.6-33.12,54.69-60.45.32-.45.87-.69,1.42-.63.55.07,1.02.44,1.22.96.17.46,17.28,46.61,27.52,85.71.09.36.05.74-.12,1.07-.25.49-25.51,49.68-35.72,77.98-8.59,23.81-16.9,55.37-18.25,60.56,3.53,4.15,27.79,30.47,77.9,34.65,42.78,3.56,86.21-8.63,93.24-10.72l2.85-48.28c.04-.73.6-1.32,1.33-1.4.72-.08,1.41.37,1.61,1.08l12.22,42.55c4.71-.8,22.58-5.26,38.44-27.87,3.44-4.91,6.51-10.56,9.38-17.28l2.35-5.49c-3.69-7.59-35.42-73.41-35.39-91.83.03-24.66,7.9-39.65,14.21-51.69,2.67-5.09,4.98-9.49,6.27-13.82,5.79-19.46-.27-32.16-9.44-51.38-1.91-4.01-3.94-8.26-6-12.87-3.32-7.44-4.62-12.81-3.98-16.41.15-.81.91-1.35,1.74-1.21.81.14,1.36.92,1.21,1.74-.36,2.03,0,6.22,3.77,14.66,2.04,4.58,4.06,8.81,5.96,12.8,9.13,19.14,15.73,32.96,9.61,53.53-1.37,4.61-3.74,9.12-6.49,14.35-6.17,11.75-13.84,26.38-13.87,50.3-.02,18.45,35.04,90.4,35.39,91.13.19.39.2.85.03,1.25l-2.61,6.12c-2.95,6.92-6.12,12.75-9.68,17.83-19.24,27.43-40.96,29.24-41.87,29.3-.76.03-1.35-.4-1.54-1.08l-10.15-35.37-2.39,40.57c-.04.62-.45,1.15-1.04,1.34-.42.13-37.83,11.8-79.02,11.8Z"/>
          </g>
          <g>
            <polygon class="cls-1" points="176.13 177.54 263.24 294.83 291.24 162.31 206.31 124.44 180.15 155.22 176.13 177.54"/>
            <path class="cls-2" d="m263.23,296.32c-.47,0-.92-.22-1.2-.6l-87.11-117.29c-.25-.33-.34-.75-.27-1.16l4.02-22.32c.05-.26.16-.5.33-.7l26.16-30.78c.43-.51,1.14-.67,1.75-.4l84.93,37.87c.64.29,1,.99.85,1.68l-28.01,132.51c-.12.58-.57,1.03-1.15,1.15-.11.02-.22.03-.32.03Zm-85.52-119.16l84.74,114.1,27.07-128.08-82.8-36.92-25.17,29.62-3.83,21.28Z"/>
          </g>
          <g>
            <path class="cls-1" d="m389.18,410c-1.45-.87-2.84-1.86-4.05-3.08-4.04-4.05-7.22-8.68-4.97-18.38,2.3-9.93,8.9-14.54,14.78-16.68v-.02s7.56-3.02,7.56-3.02l-6.45-2.59s-18.27-5.82-26.85,18.01c-5.71,15.86,2.73,25.14,2.73,25.14,7.15,8.31,17.78,6.88,22.23,5.13l-4.98-4.51Z"/>
            <path class="cls-2" d="m386.53,417.34c-5.11,0-11.12-1.61-15.74-6.98-.34-.38-8.94-10.11-3-26.63,8.96-24.9,28.52-18.99,28.71-18.93l6.55,2.62c.57.23.94.78.94,1.39s-.37,1.16-.94,1.39l-7.39,2.96c-.07.04-.14.07-.21.1-7.41,2.7-12.06,7.95-13.84,15.61-2.16,9.29.93,13.33,4.57,16.98,1,1,2.23,1.93,3.76,2.85.08.05.16.11.24.18l4.97,4.51c.38.35.56.87.47,1.38-.09.51-.44.93-.92,1.13-1.94.76-4.87,1.43-8.17,1.43Zm4.55-50.28c-5.55,0-14.99,2.47-20.47,17.69-5.31,14.75,2.11,23.27,2.43,23.63,5.49,6.38,13.28,6.57,18.15,5.46l-2.91-2.64c-1.69-1.03-3.07-2.08-4.22-3.23-3.91-3.92-7.87-9-5.37-19.77,2.49-10.74,9.79-15.54,15.56-17.69.05-.02.09-.04.14-.06l4.08-1.63-2.98-1.19c-.18-.06-1.9-.56-4.41-.56Z"/>
          </g>
          <g>
            <polygon class="cls-2" points="263.24 294.83 267.53 225.22 222.6 237.5 263.24 294.83"/>
            <path class="cls-2" d="m263.23,296.32c-.48,0-.94-.23-1.22-.63l-40.64-57.33c-.28-.4-.35-.91-.19-1.37.16-.46.54-.81,1.02-.94l44.93-12.28c.46-.12.96-.02,1.34.28.37.31.58.77.55,1.25l-4.3,69.61c-.04.63-.47,1.18-1.09,1.35-.13.04-.27.06-.41.06Zm-38.18-57.95l36.94,52.11,3.9-63.27-40.85,11.16Z"/>
          </g>
          <g>
            <path class="cls-2" d="m230.22,250.16s24.52,6.16,47.1-9.09l-3.15-11.27-50.64,8.87,6.68,11.49Z"/>
            <path class="cls-3" d="m242.63,252.92c-7.36,0-12.33-1.2-12.78-1.31-.39-.1-.73-.35-.93-.7l-6.68-11.49c-.25-.42-.27-.94-.06-1.39.2-.45.62-.76,1.1-.84l50.64-8.87c.75-.14,1.5.33,1.7,1.07l3.15,11.27c.17.62-.07,1.28-.61,1.65-12.82,8.66-26.13,10.62-35.53,10.62Zm-11.45-4.09c3.79.77,24.83,4.26,44.4-8.42l-2.49-8.91-47.18,8.27,5.27,9.06Z"/>
          </g>
          <g>
            <path class="cls-3" d="m199.79,211.95s43.67,41.54,77.75-4.92l1.76,21.51s-25.27,29.86-72.67,5.57l-6.83-22.16Z"/>
            <path class="cls-2" d="m241.93,245.06c-10.13,0-22.16-2.53-35.99-9.62-.36-.18-.63-.51-.75-.89l-6.83-22.16c-.2-.65.06-1.35.64-1.71.58-.36,1.33-.28,1.82.19.2.19,19.82,18.56,42.33,16.52,12.5-1.12,23.66-8.26,33.18-21.24.37-.51,1.02-.73,1.62-.56.6.17,1.04.7,1.09,1.32l1.76,21.51c.03.4-.09.79-.35,1.09-.19.22-13.56,15.55-38.51,15.55Zm-34.06-12c42.29,21.37,66.52-1.53,69.88-5.05l-1.39-17c-9.53,11.75-20.6,18.25-32.96,19.35-17.93,1.6-33.6-8.51-40.68-13.99l5.15,16.69Z"/>
          </g>
          <g>
            <path class="cls-3" d="m187.9,184.93s54.57,75.45,75.33,109.9c0,0-50.08-33.94-67.65-47.8l-1.01-19.62s-18.84-1.62-28.62-27.14c-9.78-25.52,7.08-36.26,7.08-36.26l14.87,20.92Z"/>
            <path class="cls-2" d="m263.23,296.32c-.29,0-.59-.09-.84-.26-.5-.34-50.32-34.13-67.74-47.86-.34-.27-.55-.67-.57-1.1l-.94-18.4c-4.59-.87-19.97-5.41-28.59-27.9-10.1-26.36,7.49-37.94,7.67-38.06.67-.43,1.56-.26,2.03.4l14.86,20.91c.68.94,54.86,75.94,75.4,110,.36.6.26,1.38-.25,1.86-.29.27-.66.41-1.03.41Zm-66.19-50.06c14.12,11.05,47.7,34.13,61.23,43.37-22.62-36.07-71.07-103.12-71.59-103.83h0s-13.98-19.67-13.98-19.67c-3.49,2.9-13.16,13.22-5.35,33.6,9.29,24.25,26.62,26.11,27.36,26.18.74.07,1.33.67,1.36,1.42l.97,18.94Z"/>
          </g>
          <g>
            <path class="cls-3" d="m263.24,294.83s3.49-55.18,5.13-83.87c1.64-28.69-.93-64.96-.93-64.96l32.56,11.3,7.77,18.08s-.99,25.26-18.75,39.55l8.18,9.86-33.95,70.04Z"/>
            <path class="cls-2" d="m263.23,296.32c-.13,0-.25-.02-.38-.05-.69-.18-1.16-.83-1.11-1.55.03-.55,3.51-55.5,5.13-83.86,1.61-28.26-.91-64.4-.93-64.77-.03-.5.18-.99.58-1.3.4-.31.93-.39,1.4-.23l32.56,11.29c.4.14.72.44.89.83l7.77,18.07c.09.2.13.43.12.65-.04,1.04-1.17,25.02-18.13,39.69l7.22,8.71c.37.45.45,1.08.2,1.61l-33.95,70.04c-.26.53-.79.84-1.35.84Zm5.84-148.16c.52,8.4,2.18,38.53.79,62.89-1.26,22.03-3.63,60.1-4.65,76.27l30.21-62.32-7.56-9.11c-.26-.31-.38-.71-.34-1.11.04-.4.24-.77.55-1.02,15.95-12.84,17.97-35.16,18.17-38.12l-7.37-17.14-29.8-10.34Z"/>
          </g>
          <g>
            <path class="cls-2" d="m283.67,153.19s3.76,5.38,4.72,15.95c0,0,4.32-1.69,7.73-9.88,0,0,1.26,12.2-1.56,23.64l5.66-3.07s.39,8.41-3.6,14.17l3.8-.05s-6.5,10.95-6.82,16.66l15.82-13.53,7.38-15.58,1.9-38.03-15.15-33.89-27.76-5.13-8.68,19.13,16.56,29.62Z"/>
            <path class="cls-2" d="m293.6,212.1c-.23,0-.45-.05-.67-.16-.54-.27-.86-.83-.83-1.43.25-4.4,3.77-11.42,5.73-15.04l-1.2.02c-.55.08-1.08-.3-1.34-.79-.26-.5-.23-1.1.09-1.56,2.38-3.44,3.08-7.99,3.27-10.76l-3.38,1.83c-.52.28-1.16.23-1.63-.13-.47-.36-.68-.97-.54-1.55,1.59-6.44,1.85-13.18,1.79-17.71-2.95,4.49-5.8,5.65-5.96,5.71-.44.17-.94.13-1.33-.12-.4-.25-.66-.67-.7-1.14-.91-9.98-4.42-15.18-4.46-15.23-.03-.04-.05-.08-.08-.12l-16.56-29.62c-.23-.42-.25-.92-.06-1.35l8.68-19.13c.28-.63.94-.99,1.64-.85l27.76,5.13c.48.09.89.41,1.09.86l15.15,33.89c.1.21.14.45.13.68l-1.9,38.03c0,.2-.06.39-.14.57l-7.38,15.58c-.09.19-.22.36-.38.5l-15.82,13.53c-.28.24-.62.36-.97.36Zm6.82-19.66c.53,0,1.03.28,1.3.75.27.47.27,1.05,0,1.52-.05.08-3.83,6.49-5.66,11.82l12.15-10.39,7.11-15.02,1.86-37.38-14.68-32.84-25.84-4.78-7.89,17.37,16.16,28.91c.44.65,3.42,5.37,4.65,14.1,1.39-1.24,3.39-3.6,5.14-7.82.26-.63.9-1,1.6-.91.68.1,1.2.65,1.27,1.33.05.46,1.04,10.44-.9,20.92l2.79-1.51c.45-.25,1-.24,1.45.01.45.25.74.72.76,1.24.02.32.29,6.96-2.48,12.7l1.17-.02h.02Z"/>
          </g>
          <g>
            <path class="cls-1" d="m187.98,125.76c.54,20.6,10.65,39.73,26.36,53.05,8.31,7.05,18.75,14.85,27.94,18.59,18.93,7.69,36.04-10.65,46.75-71.61,10.71-60.96-40.24-75.52-74.57-51.05-21.32,15.19-26.92,34.31-26.48,51.02Z"/>
            <path class="cls-2" d="m250.2,200.55c-2.75,0-5.58-.59-8.47-1.76-7.8-3.17-17.34-9.51-28.35-18.83-16.55-14.03-26.35-33.77-26.89-54.16h0c-.56-21.47,8.56-39.06,27.11-52.28,18.67-13.3,42.2-15.32,58.55-5,9.57,6.04,24.69,21.54,18.37,57.53-7.09,40.36-17.48,64.59-30.9,72.01-3,1.66-6.15,2.49-9.42,2.49Zm-60.71-74.84c.52,19.54,9.93,38.47,25.83,51.95,10.61,8.99,20.13,15.33,27.54,18.34,5.54,2.25,10.55,2.06,15.31-.57,12.58-6.96,22.47-30.49,29.4-69.91,4.46-25.4-1.59-44.75-17.02-54.48-15.33-9.67-37.52-7.7-55.21,4.91-17.69,12.61-26.39,29.35-25.85,49.76h0Z"/>
          </g>
          <g>
            <path class="cls-2" d="m308.6,101.8c-13.62-22.34-15.5-39.68-24.48-60.18-8.98-20.5-24.23-23.81-24.23-23.81-15.39-12.81-23.98-7.23-23.98-7.23,0,0,9.85,30.61,18.72,56.55l-5.42,19.79,32.09,30.92s3.75-20.52,4.82-16.47c1.23,4.67,2.43,9.36,4.74,13.6,3.28,6.02,7.48,11.79,9.33,6.23,6.4,7.68,14.23,29.81,14.28,48.93.06,22.8-20.86,40.48-20.86,40.48,0,0,15.97-3.49,27.87-25.38,11.9-21.89.75-61.09-12.87-83.43Z"/>
            <path class="cls-2" d="m293.6,212.1c-.56,0-1.09-.32-1.34-.84-.31-.62-.15-1.36.37-1.81.2-.17,20.39-17.51,20.33-39.33-.04-17.98-6.98-37.83-12.6-46.19-.55.59-1.22.92-1.98.99-1.69.13-4.21-.76-8.84-9.26-1.82-3.34-2.98-6.94-3.97-10.52-.87,3.25-1.97,8.37-2.8,12.94-.1.54-.49.99-1.02,1.16-.52.17-1.1.04-1.5-.35l-32.09-30.92c-.39-.38-.55-.95-.41-1.48l5.3-19.34c-8.73-25.57-18.48-55.84-18.58-56.14-.21-.64.04-1.35.61-1.72.39-.25,9.6-5.96,25.49,7.12,2.51.67,16.4,5.16,24.91,24.58,3.4,7.76,5.82,15.15,8.16,22.31,3.84,11.74,7.81,23.89,16.23,37.7,12.97,21.26,25.55,61.67,12.91,84.92-12.09,22.23-28.19,25.98-28.86,26.12-.11.02-.21.04-.32.04Zm6.59-92.4c.44,0,.86.19,1.15.54,6.88,8.26,14.58,30.77,14.62,49.88.04,15.69-9.33,28.83-15.69,35.94,5.52-3.22,13.34-9.54,19.88-21.55,12.07-22.2-.24-61.27-12.84-81.93h0c-8.6-14.11-12.63-26.42-16.52-38.33-2.32-7.08-4.71-14.41-8.05-22.04-8.54-19.48-23.03-22.92-23.18-22.95-.23-.05-.45-.16-.64-.31-11.27-9.38-18.59-8.38-21.18-7.55,1.97,6.1,10.55,32.6,18.29,55.23.1.28.11.59.03.88l-5.18,18.93,29.45,28.38c2.94-15.39,4.17-15.44,5.37-15.48.41-.01,1.46.11,1.86,1.65,1.24,4.71,2.44,9.27,4.61,13.26,4.12,7.57,5.9,7.7,5.94,7.7h0s.31-.18.66-1.23c.17-.52.61-.9,1.14-1,.09-.02.19-.03.28-.03Z"/>
          </g>
          <g>
            <path class="cls-2" d="m174.2,232.13s-2.19-1.75-3.88-5.17c-2.84-5.72-4.28-16.1,8.25-30.73,20.02-23.36,28.23-38.14,28.23-38.14,0,0,34.41-4.92,45.49-26.89,0,0-.09,12.39-14.84,25.36,0,0,31.33-11.04,41.87-33.45,10.54-22.41-4.01-52.61-14.05-70.65-10.03-18.04-19.62-42.88-40.02-45.84-20.4-2.96-34.51,3.68-45.62,17.76-12.04,15.25-19.01,34.76-25.73,60.91-5.27,20.53-21.79,32.35-30.11,57.98-8.32,25.64-2.96,39.68,3.48,53.16,6.44,13.48,25.41,30.58,46.93,35.7Z"/>
            <path class="cls-2" d="m174.2,233.63c-.11,0-.23-.01-.35-.04-22.35-5.32-41.38-22.78-47.94-36.51-6.64-13.9-11.91-28.51-3.55-54.27,4.27-13.15,10.52-22.51,16.56-31.55,5.65-8.45,10.98-16.43,13.52-26.34,6.52-25.37,13.43-45.53,26-61.46,12.15-15.39,27.08-21.21,47.01-18.31,18.06,2.62,27.88,21.43,36.55,38.02,1.54,2.95,3.05,5.84,4.57,8.58,6.43,11.56,25.98,46.73,14.09,72.02-10.68,22.72-41.42,33.77-42.73,34.22-.67.25-1.43-.03-1.79-.66-.36-.62-.23-1.41.3-1.88,6.75-5.94,10.32-11.76,12.21-16.22-12.93,14.96-36.39,19.48-40.93,20.24-1.82,3.1-10.45,17.23-28.03,37.74-11.76,13.72-10.87,23.39-8.05,29.09,1.51,3.04,3.46,4.65,3.48,4.67.54.44.71,1.2.4,1.83-.26.52-.78.84-1.34.84ZM216.12,7.43c-14.41,0-25.79,5.8-35.32,17.88-12.24,15.51-19.03,35.35-25.45,60.35-2.67,10.41-8.14,18.59-13.94,27.26-5.93,8.88-12.06,18.06-16.2,30.81-8.03,24.73-3.21,38.2,3.41,52.05,5.87,12.3,22.51,27.5,41.34,33.6-.33-.53-.67-1.12-.98-1.76-3.22-6.5-4.37-17.4,8.46-32.37,19.67-22.95,27.97-37.75,28.05-37.89.23-.41.63-.69,1.1-.76.34-.05,33.77-5.07,44.36-26.08.31-.62,1.01-.94,1.69-.78.68.16,1.15.77,1.15,1.47,0,.46-.2,9.88-9.81,20.94,9.72-4.62,26.87-14.54,33.99-29.67,11.24-23.89-7.76-58.06-14-69.28-1.53-2.76-3.06-5.67-4.61-8.64-8.33-15.96-17.78-34.04-34.32-36.45-3.1-.45-6.07-.68-8.91-.68Z"/>
          </g>
          <g>
            <path class="cls-2" d="m58.78,359.39s46.35-34.87,65.19-58.58c0,0-38.83,47.43-54.9,60.69l-10.3-2.11Z"/>
            <path class="cls-2" d="m69.07,363c-.1,0-.2,0-.3-.03l-10.3-2.12c-.58-.12-1.03-.56-1.16-1.14-.13-.57.09-1.17.56-1.53.44-.33,42.77-32.27,62.54-55.43,1.48-1.78,2.34-2.83,2.39-2.9.52-.65,1.46-.74,2.1-.22.64.52.75,1.45.23,2.1-.72.9-1.47,1.82-2.27,2.75-8.58,10.37-38.9,46.65-52.85,58.16-.27.22-.61.34-.95.34Zm-6.77-4.42l6.36,1.31c7.18-6.08,18.67-18.6,29.21-30.64-14.66,13.03-29.66,24.78-35.57,29.33Z"/>
          </g>
          <g>
            <path class="cls-2" d="m323.87,384.22s3.29,8.32,10.39,10.66c7.09,2.34,15.81,4.39,15.81,4.39,0,0,.28,3.83,2.45,8.44,0,0-25.15-7.21-28.65-23.49Z"/>
            <path class="cls-2" d="m352.52,409.21c-.14,0-.28-.02-.41-.06-1.06-.3-26.05-7.65-29.7-24.61-.16-.76.28-1.52,1.03-1.75.76-.23,1.54.16,1.83.88.03.08,3.14,7.7,9.46,9.79,6.95,2.29,15.59,4.33,15.68,4.35.63.15,1.1.7,1.15,1.35,0,.04.3,3.64,2.31,7.91.25.53.17,1.16-.22,1.61-.29.34-.71.53-1.14.53Zm-18.85-12.94c5.54,4.58,12.37,7.53,16.23,8.97-.69-2.02-1.03-3.71-1.19-4.75-2.52-.61-9.26-2.31-14.92-4.18-.04-.01-.08-.03-.11-.04Z"/>
          </g>
          <path class="cls-3" d="m244.6,19.6c-.48,0-.96-.23-1.25-.66-10.74-16.01-20.74-15.91-20.84-15.93-.85,0-1.51-.63-1.54-1.45-.03-.82.61-1.51,1.43-1.55.48-.07,11.69-.27,23.45,17.25.46.69.28,1.62-.41,2.08-.26.17-.55.25-.83.25Z"/>
          <path class="cls-3" d="m274.66,121.7c-.21,0-.42-.04-.62-.13-.75-.34-1.09-1.23-.74-1.99,11.67-25.65-.6-50.57-.72-50.81-.37-.74-.07-1.64.66-2.01.74-.37,1.64-.08,2.01.66.54,1.07,13.04,26.47.77,53.41-.25.55-.8.88-1.36.88Z"/>
          <path class="cls-3" d="m260.83,129.23c-.27,0-.54-.07-.78-.22-.7-.43-.92-1.36-.49-2.06,3.19-5.19,4.89-13.35,4.91-13.44.17-.81.95-1.34,1.77-1.16.81.17,1.33.96,1.16,1.77-.07.35-1.83,8.76-5.29,14.4-.28.46-.78.72-1.28.72Z"/>
          <path class="cls-3" d="m253.19,31.66c-.5,0-.98-.24-1.26-.69l-3.65-5.7c-.45-.7-.24-1.63.46-2.07.7-.45,1.62-.24,2.07.46l3.65,5.7c.45.7.24,1.63-.45,2.07-.25.16-.53.24-.81.24Z"/>
          <path class="cls-3" d="m265.66,24.1c-.51,0-1.01-.26-1.29-.74-2.16-3.65-6.34-9.21-6.38-9.27-.5-.66-.36-1.6.3-2.1.67-.5,1.61-.36,2.1.3.18.23,4.32,5.75,6.56,9.55.42.71.19,1.63-.53,2.05-.24.14-.5.21-.76.21Z"/>
          <path class="cls-3" d="m170.47,238.3c-.15,0-.31-.02-.46-.07-.56-.18-13.82-4.58-18.21-15.9-2.6-6.7-1.5-14.33,3.27-22.66.41-.72,1.32-.97,2.05-.56.72.41.97,1.33.56,2.05-4.29,7.51-5.33,14.27-3.08,20.09,3.87,10,16.21,14.09,16.33,14.13.79.26,1.22,1.1.97,1.89-.21.63-.79,1.04-1.43,1.04Z"/>
          <path class="cls-3" d="m160.73,195c-.31,0-.62-.1-.89-.3-.66-.49-.8-1.43-.31-2.1.3-.41,7.46-10.02,11.78-14.2.6-.57,1.54-.56,2.12.04.57.6.56,1.54-.04,2.12-4.15,4-11.39,13.73-11.46,13.83-.29.4-.75.6-1.2.6Z"/>
          <path class="cls-3" d="m178.37,175.15c-.34,0-.68-.11-.96-.35-.64-.53-.72-1.47-.19-2.11l3.2-3.85c.53-.64,1.47-.72,2.11-.19.64.53.72,1.47.19,2.11l-3.2,3.85c-.3.36-.72.54-1.15.54Z"/>
          <path class="cls-3" d="m142.29,223.68c-.46,0-.91-.21-1.21-.61-.42-.56-10.13-13.97-4.09-27.94.33-.76,1.2-1.11,1.97-.78.76.33,1.11,1.21.78,1.97-5.35,12.37,3.66,24.85,3.75,24.97.49.67.35,1.6-.32,2.1-.27.2-.58.29-.89.29Z"/>
          <path class="cls-3" d="m123.22,197.44c-.71,0-1.33-.5-1.47-1.22-.06-.3-1.33-7.44,3.45-14.97.44-.7,1.37-.91,2.07-.46.7.44.91,1.37.46,2.07-4.12,6.5-3.04,12.76-3.03,12.82.15.81-.39,1.59-1.2,1.74-.09.02-.18.03-.27.03Z"/>
          <path class="cls-3" d="m289.33,179.31c-.38,0-.77-.15-1.06-.44-.58-.59-.58-1.53,0-2.12,9.06-9.03,6.3-24.12,6.28-24.27-.16-.81.38-1.6,1.19-1.75.8-.17,1.6.38,1.75,1.19.13.68,3.07,16.81-7.1,26.96-.29.29-.68.44-1.06.44Z"/>
          <path class="cls-3" d="m287.65,213.27c-.44,0-.87-.19-1.17-.56-.52-.65-.41-1.59.23-2.11l7.57-6.06c9.6-7.69,15.99-18.07,17.98-29.25.53-2.99.74-5.9.62-8.64-.65-14.46-5.83-32.67-11.73-41.6-.8.33-1.89.57-3.18.3-2.53-.51-4.76-2.74-6.63-6.63-.36-.75-.05-1.64.7-2,.75-.36,1.64-.04,2,.7,1.8,3.73,3.45,4.77,4.53,4.99,1.18.24,2.04-.46,2.04-.47.32-.28.74-.42,1.15-.36.42.04.8.26,1.05.6,6.61,9.02,12.36,28.49,13.07,44.33.13,2.96-.09,6.09-.66,9.3-2.11,11.89-8.88,22.92-19.05,31.06l-7.57,6.06c-.28.22-.61.33-.94.33Z"/>
          <path class="cls-3" d="m294.48,145.66c-.71,0-1.35-.51-1.48-1.24-.62-3.57-2.69-6.57-2.71-6.59-.47-.68-.31-1.61.37-2.09.68-.47,1.61-.31,2.09.37.1.14,2.47,3.55,3.2,7.8.14.82-.4,1.59-1.22,1.74-.09.01-.17.02-.26.02Z"/>
          <path class="cls-2" d="m263.13,176.48c-1.85,0-4.08-.47-6.68-1.41-.78-.28-1.18-1.14-.9-1.92.28-.77,1.14-1.17,1.92-.9,3.88,1.42,6.83,1.62,8.08.57.99-.83.92-2.63.68-4-.77-4.52-2.39-18.4-2.46-18.99-.1-.82.49-1.57,1.32-1.66.84-.07,1.57.49,1.66,1.32.02.14,1.67,14.39,2.43,18.83.53,3.12-.04,5.41-1.72,6.81-1.08.91-2.54,1.36-4.35,1.36Z"/>
          <path class="cls-2" d="m260.34,242.07c-.75,0-1.39-.55-1.49-1.31-.4-3.21-1.13-4.36-1.14-4.37-.44-.68-.28-1.61.39-2.07.67-.46,1.57-.33,2.05.32.19.26,1.18,1.77,1.68,5.75.1.82-.48,1.57-1.3,1.67-.06,0-.12.01-.19.01Z"/>
          <path class="cls-2" d="m248.47,245.04c-.72,0-1.35-.52-1.48-1.25-1.14-6.74-2.3-9.66-2.31-9.68-.31-.77.06-1.64.82-1.95.76-.32,1.64.05,1.95.81.05.13,1.3,3.19,2.5,10.32.14.82-.41,1.59-1.23,1.73-.09.02-.17.02-.25.02Z"/>
          <path class="cls-2" d="m125.21,301.64l-2.49-1.67s6.28-9.4,8.93-13.5c.45-.69,1.37-.9,2.07-.44.69.45.89,1.38.45,2.07-2.66,4.12-8.96,13.54-8.96,13.54Z"/>
          <path class="cls-2" d="m44.13,363.36c-.69,0-1.31-.48-1.46-1.18-.18-.81.34-1.61,1.15-1.78.52-.12,12.94-2.78,21.98-1.1.81.15,1.35.93,1.2,1.75-.15.82-.95,1.37-1.75,1.2-8.46-1.57-20.67,1.05-20.8,1.08-.11.02-.22.03-.32.03Z"/>
          <path class="cls-2" d="m358.19,355.04c-.56,0-1.1-.31-1.35-.85-.36-.75-.04-1.64.7-2,.42-.21,10.54-4.97,18.11-.15.7.44.91,1.37.46,2.07-.45.7-1.37.9-2.07.46-6.17-3.91-15.12.28-15.21.33-.21.1-.43.15-.64.15Z"/>
          <path class="cls-2" d="m351.68,407.2c-.57,0-1.12-.33-1.37-.89-.19-.43-4.57-10.6.55-23.19.31-.77,1.18-1.14,1.95-.82.77.31,1.14,1.18.82,1.95-4.64,11.43-.62,20.76-.58,20.85.34.76,0,1.64-.76,1.98-.2.09-.4.13-.61.13Z"/>
          <path class="cls-2" d="m73.37,413.22c-.52,0-1.02-.27-1.3-.75-.21-.36-5-8.92-2.12-22.6.17-.81.97-1.32,1.78-1.16.81.17,1.33.97,1.16,1.78-2.65,12.57,1.74,20.41,1.79,20.49.41.72.16,1.64-.55,2.05-.24.13-.49.2-.75.2Z"/>
          <g>
            <path class="cls-2" d="m40.48,408.07c-10.54,2.08-21.44.51-22.51.34,6.63,3.4,15.2,5.29,25.83,4.36,21.11-1.84,30.32,1.02,30.32,1.02h0c-2.34-3.17-3.67-6.97-3.82-10.91h0s-18.73,2.99-29.83,5.18Z"/>
            <path class="cls-2" d="m74.12,415.3c-.15,0-.29-.02-.44-.07-.09-.03-9.28-2.76-29.75-.96-10.11.88-19.07-.64-26.65-4.52-.65-.33-.97-1.09-.74-1.79.23-.7.93-1.12,1.65-1.02,1.18.18,11.75,1.69,21.99-.33,11-2.17,29.7-5.16,29.88-5.19.43-.07.86.05,1.19.32.33.27.53.67.55,1.1.14,3.65,1.36,7.14,3.53,10.08.38.52.39,1.23.02,1.76-.29.4-.75.63-1.22.63Zm-16.94-4.64c6.49,0,11.03.5,13.85.96-1.1-2.18-1.8-4.54-2.09-6.99-4.77.77-19.11,3.12-28.17,4.91h0c-4.04.8-8.13,1.07-11.72,1.1,4.52.88,9.4,1.1,14.62.65,5.2-.46,9.69-.63,13.51-.63Z"/>
          </g>
          <path class="cls-2" d="m234.77,246.78c-.63,0-1.22-.4-1.42-1.03l-2.77-8.47c-.26-.79.17-1.63.96-1.89.78-.26,1.64.17,1.89.96l2.77,8.47c.26.79-.17,1.63-.96,1.89-.15.05-.31.07-.47.07Z"/>
          <path class="cls-2" d="m164.07,548.22c-.11,0-.22-.01-.33-.04-48.32-10.91-63.12-35.78-63.73-36.83-.41-.72-.17-1.63.55-2.04.71-.42,1.63-.17,2.05.55.14.25,14.86,24.81,61.79,35.4.81.18,1.32.98,1.13,1.79-.16.7-.78,1.17-1.46,1.17Z"/>
          <path class="cls-2" d="m290.01,377.38c-.58,0-1.13-.34-1.38-.91-.33-.76.03-1.64.79-1.97,20.42-8.74,26.29-22.79,26.34-22.93.31-.77,1.18-1.14,1.95-.83.77.31,1.14,1.18.83,1.94-.25.62-6.31,15.31-27.95,24.58-.19.08-.39.12-.59.12Z"/>
          <path class="cls-2" d="m278.39,381.29c-.64,0-1.24-.41-1.43-1.06-.24-.79.2-1.63.99-1.87l5.53-1.69c.8-.25,1.63.2,1.87.99.24.79-.2,1.63-.99,1.87l-5.53,1.69c-.15.05-.29.07-.44.07Z"/>
          <path class="cls-2" d="m274.29,502.84c-.76,0-1.41-.57-1.49-1.34l-8.23-77.25c-.09-.82.51-1.56,1.33-1.65.83-.09,1.56.51,1.65,1.33l8.23,77.25c.09.82-.51,1.56-1.33,1.65-.05,0-.11,0-.16,0Z"/>
          <path class="cls-2" d="m264.9,412.42c-.8,0-1.47-.63-1.5-1.44-.02-.45-.39-10.99.71-18.66.29-2.02.92-4.63,1.71-7.94,2.22-9.23,5.57-23.17,4.72-38.56-1.12-20.57-5.9-38.52-5.95-38.7-.21-.8.26-1.62,1.06-1.84.8-.21,1.62.26,1.84,1.06.05.18,4.9,18.42,6.05,39.31.86,15.83-2.55,30.02-4.8,39.42-.75,3.1-1.39,5.78-1.66,7.67-1.07,7.41-.69,18.02-.68,18.13.03.83-.61,1.52-1.44,1.55-.02,0-.04,0-.06,0Z"/>
          <path class="cls-2" d="m135.62,282.23c-.26,0-.52-.07-.77-.21-.71-.42-.94-1.33-.53-2.04.03-.06.99-1.8,1.73-6.04.15-.82.94-1.34,1.73-1.22.82.14,1.36.92,1.22,1.73-.85,4.85-1.97,6.84-2.1,7.05-.28.47-.78.73-1.29.73Z"/>
          <path class="cls-3" d="m193.8,155.17c-.38,0-.76-.14-1.05-.43-.59-.58-.6-1.53-.02-2.12.11-.11,11.37-11.64,13.13-21.04.15-.81.93-1.36,1.75-1.2.81.15,1.35.93,1.2,1.75-1.92,10.31-13.45,22.1-13.94,22.59-.29.3-.68.45-1.07.45Z"/>
          <path class="cls-3" d="m198.64,133.48c-.19,0-.38-.03-.56-.11-.77-.31-1.14-1.18-.83-1.95,2.44-6.06-.13-11.75-.16-11.81-.35-.75-.02-1.64.73-1.99.74-.35,1.64-.02,1.99.73.13.28,3.13,6.94.22,14.19-.23.58-.8.94-1.39.94Z"/>
          <path class="cls-3" d="m329.22,153.22c-.72,0-1.36-.52-1.48-1.26-2.99-18.71-11.17-25.92-11.25-25.99-.63-.54-.7-1.48-.17-2.11.53-.63,1.47-.71,2.11-.17.37.31,9.09,7.89,12.27,27.8.13.82-.43,1.59-1.24,1.72-.08.01-.16.02-.24.02Z"/>
          <g>
            <g>
              <path class="cls-1" d="m184.31,397.67s5.98-6.75,7.19-7.89c1.21-1.15,3.93-1.38,6.87-.58,2.94.8,10.15,2.09,13.67-1.7,3.1-3.33.7-5.78-1.94-6.62-3.22-1.03-6.07-.79-6.07-.79,0,0-3.42-2.02-8.48-3.07,0,0-4.85-3.7-9.4-3.45-4.55.25-11.55,3.02-20.11,5.17-2.44.62-5.17,1.07-8.13,1.37h0s26.41,17.56,26.41,17.56Z"/>
              <path class="cls-2" d="m184.31,399.17c-.35,0-.71-.12-1-.38-.62-.55-.67-1.5-.13-2.12.25-.28,6.04-6.81,7.28-7.98,1.61-1.53,4.78-1.89,8.29-.94,1.47.39,8.94,2.2,12.18-1.27.58-.62,1.22-1.53,1.02-2.33-.19-.73-1.1-1.46-2.32-1.84-2.87-.91-5.47-.73-5.5-.73-.31.02-.62-.05-.88-.2-.03-.02-3.29-1.91-8.02-2.89-.22-.05-.42-.14-.6-.28-.05-.03-4.48-3.4-8.41-3.14-2.65.15-6.43,1.28-10.8,2.58-2.76.82-5.78,1.73-9.03,2.55-2.47.62-5.24,1.09-8.23,1.39-.23.05-.49.03-.74-.05-.78-.26-1.21-1.11-.95-1.89.19-.56.69-.97,1.28-1.03,2.89-.29,5.56-.74,7.91-1.33,3.2-.81,6.18-1.7,8.9-2.51,4.55-1.36,8.48-2.54,11.49-2.71,4.43-.27,8.93,2.71,10.1,3.54,4.13.9,7.15,2.38,8.21,2.95.99-.05,3.46.02,6.17.88,2.24.71,3.85,2.19,4.31,3.94.31,1.17.26,3.01-1.72,5.13-4.3,4.62-12.69,2.79-15.16,2.12-2.63-.71-4.76-.42-5.44.22-.95.9-5.45,5.94-7.1,7.8-.3.33-.71.5-1.12.5Z"/>
            </g>
            <g>
              <path class="cls-1" d="m158.01,380.09h0c-7.4.72-16.38.33-27.02-1.94-14.88-3.18-31.29-6.36-31.29-6.36l-4.12,36.5,13.88,2.18s16.89,1.2,25.08,2.22c8.19,1.01,11.34,1.27,11.34,1.27,0,0,8.51,10.38,11.15,16.94.03.07-.04-.06,0,0,3.27,5.53,6.39,9.59,11.57,12.13l8.66,2.58s10.3,2.6,14.19.41l1.84-1.76s5.79.56,13.26-.6c7.47-1.15,7.73-1.92,7.25-5.81-.28-2.29-5.68-3.83-5.68-3.83,0,0-3.34-5.59-7.65-7.18l-4.31-1.59s4.66.01,4.84-4.05c.18-4.06-6.07-8.42-10.93-13.49-3.46-3.61-5.76-10.04-5.76-10.04l-26.3-17.58Z"/>
              <path class="cls-2" d="m186.36,448.32c-4.28,0-8.74-1.08-9.46-1.26l-8.72-2.6c-5.69-2.77-9.04-7.07-12.38-12.72-.04-.06-.07-.12-.11-.18-.03-.07-.06-.13-.09-.2-2.26-5.51-8.82-13.88-10.49-15.97-1.29-.12-4.62-.46-10.76-1.22-8.06-1-24.83-2.2-25-2.21l-14-2.19c-.79-.12-1.35-.85-1.26-1.65l4.12-36.5c.05-.42.27-.79.6-1.04.34-.25.77-.34,1.17-.26.16.03,16.59,3.22,31.32,6.37,9.62,2.06,18.56,2.7,26.56,1.9.5-.05,1,.16,1.32.56.32.4.41.93.25,1.41-.21.62-.79,1.02-1.41,1.03-8.28.81-17.47.14-27.35-1.97-12.02-2.57-25.19-5.17-29.67-6.05l-3.78,33.46,12.46,1.96h0c.07,0,16.9,1.21,25.03,2.21,8.12,1,11.26,1.26,11.29,1.27.4.03.78.23,1.04.54.35.43,8.6,10.52,11.34,17.22,3.15,5.32,6.08,9.1,10.88,11.45l8.43,2.49c3.7.93,10.58,1.91,13.02.54l1.54-1.53c.32-.3.77-.45,1.18-.41.05,0,5.71.52,12.89-.58,6.38-.98,6.37-1.1,6-4.15-.07-.59-2.21-1.89-4.6-2.57-.36-.11-.68-.35-.87-.67-.03-.05-3.13-5.16-6.88-6.55l-4.31-1.6c-.68-.25-1.09-.96-.96-1.67.13-.71.75-1.23,1.47-1.23.69,0,3.23-.14,3.34-2.61.1-2.31-3.26-5.46-6.52-8.51-1.34-1.25-2.72-2.54-4-3.88-3.64-3.8-5.99-10.3-6.09-10.57-.28-.78.13-1.64.91-1.92.78-.29,1.64.12,1.92.91.02.06,2.24,6.18,5.43,9.51,1.25,1.3,2.59,2.56,3.89,3.77,4.09,3.83,7.63,7.14,7.46,10.83-.08,1.88-.89,3.16-1.94,4.01l.44.16c3.99,1.48,7.12,5.82,8.1,7.32,1.89.6,5.86,2.19,6.2,4.92.65,5.33-1.12,6.33-8.51,7.47-6.15.95-11.14.78-12.93.66l-1.35,1.3c-1.6.92-3.84,1.23-6.13,1.23Z"/>
            </g>
            <path class="cls-2" d="m145.89,415.46c-.58,0-1.14-.34-1.38-.92-4.4-10.42-2.04-17.22-1.93-17.5.28-.78,1.15-1.18,1.92-.9.78.28,1.18,1.13.9,1.91h0c-.02.06-2.04,6.07,1.87,15.32.32.76-.04,1.64-.8,1.97-.19.08-.39.12-.58.12Z"/>
            <path class="cls-2" d="m203.84,391.55c-.08,0-.15,0-.23-.02-5.26-.82-6.94-5.07-7.1-7.21-.06-.83.56-1.54,1.39-1.6.8-.04,1.54.56,1.6,1.38.04.4.47,3.82,4.57,4.47.82.13,1.38.89,1.25,1.71-.11.74-.75,1.27-1.48,1.27Z"/>
            <path class="cls-2" d="m196.16,426.75c-.21,0-.42-.04-.62-.13l-.35-.16c-2.92-1.33-5.57-3.14-7.87-5.37l-14.29-13.92c-.59-.58-.6-1.53-.03-2.12.58-.59,1.53-.61,2.12-.03l14.29,13.92c2.05,1.99,4.41,3.61,7.02,4.79l.35.16c.75.34,1.09,1.23.74,1.98-.25.55-.8.88-1.36.88Z"/>
            <path class="cls-2" d="m202.54,439.94c-.63,0-1.25-.06-1.81-.16-3.6-.68-14.22-6.08-16.31-7.15-3.01-1.55-12.63-10.59-13.72-11.62-.6-.57-.63-1.52-.06-2.12.57-.61,1.52-.63,2.12-.06,4.15,3.91,11.04,10.11,13.03,11.13,5.85,3,13.19,6.44,15.5,6.87,1.58.3,3.8,0,4.59-1.01.45-.58.41-1.47-.13-2.66-.34-.75,0-1.64.74-1.98.75-.34,1.64-.01,1.98.74,1.3,2.85.59,4.7-.24,5.75-1.28,1.63-3.58,2.27-5.7,2.27Z"/>
            <path class="cls-2" d="m193.29,445.76c-.14,0-.28-.02-.42-.06l-2.51-.72c-3.73-1.07-7.26-2.08-10.12-3.29-3.44-1.45-7.6-3.57-7.77-3.66-.74-.37-1.03-1.28-.65-2.02.37-.74,1.27-1.03,2.02-.65.04.02,4.24,2.16,7.58,3.56,2.7,1.14,6.14,2.12,9.78,3.17l2.53.73c.8.23,1.25,1.06,1.02,1.86-.19.66-.79,1.08-1.44,1.08Z"/>
          </g>
          <g>
            <path class="cls-1" d="m120.55,415.05c-4.67.07-9.24-1.42-12.96-4.24-4.55-3.45-8.34-7.61-7.44-17.52,1.79-19.78,22.5-21.83,22.5-21.83l-9.82-2.44s-18.9-3.26-24.12,21.52c-3.48,16.49,8.49,24.31,8.49,24.31,11.91,10.51,23.35.21,23.35.21Z"/>
            <path class="cls-2" d="m108.62,421.05c-3.79,0-8.08-1.26-12.41-5.08h0s-12.61-8.49-8.97-25.74c5.46-25.9,25.63-22.72,25.84-22.69l9.92,2.47c.71.18,1.18.83,1.13,1.56-.05.73-.62,1.31-1.35,1.38-.8.08-19.5,2.2-21.15,20.48-.86,9.5,2.75,13.08,6.86,16.19,3.43,2.6,7.67,3.98,12.03,3.94.62-.1,1.19.37,1.42.95.23.58.07,1.24-.39,1.66-.08.07-5.55,4.88-12.94,4.88Zm1.91-50.71c-4.68,0-16.43,1.91-20.36,20.5-3.23,15.31,7.74,22.67,7.85,22.75,7.29,6.41,14.21,4.62,18.16,2.59-3.43-.63-6.7-2.06-9.49-4.18-4.41-3.34-9.03-7.83-8.03-18.85,1.24-13.69,11.11-19.4,17.75-21.71l-3.94-.98c-.12-.02-.83-.12-1.94-.12Z"/>
          </g>
          <g>
            <g>
              <path class="cls-3" d="m249.82,430.16c.3,4.2-1.57,7.76-4.17,7.94-2.6.19-4.96-3.07-5.26-7.27-.3-4.2,1.57-7.76,4.17-7.94,2.6-.19,4.96,3.07,5.26,7.27Z"/>
              <path class="cls-2" d="m245.44,439.61c-1.66,0-3.29-.94-4.5-2.62-1.15-1.6-1.88-3.75-2.04-6.05-.17-2.3.25-4.54,1.17-6.28,1.02-1.95,2.62-3.14,4.39-3.26,1.79-.13,3.53.82,4.82,2.61,1.15,1.6,1.88,3.75,2.04,6.05h0c.17,2.31-.25,4.54-1.16,6.28-1.03,1.95-2.63,3.14-4.4,3.26-.1,0-.21.01-.31.01Zm-.67-15.23s-.07,0-.1,0c-.71.05-1.42.66-1.96,1.67-.65,1.24-.95,2.94-.83,4.67.12,1.73.66,3.37,1.48,4.51.67.93,1.5,1.42,2.17,1.37.71-.05,1.42-.66,1.96-1.67.65-1.24.95-2.94.83-4.67h0c-.12-1.73-.66-3.38-1.48-4.51-.64-.88-1.39-1.38-2.07-1.38Z"/>
            </g>
            <g>
              <path class="cls-3" d="m251.09,428.32c.3,4.2-1.57,7.76-4.17,7.94-2.6.19-4.96-3.07-5.26-7.27-.3-4.2,1.57-7.76,4.17-7.94,2.6-.19,4.96,3.07,5.26,7.27Z"/>
              <path class="cls-2" d="m246.7,437.77c-3.34,0-6.19-3.72-6.54-8.67-.36-5.11,2.08-9.3,5.56-9.55,1.77-.12,3.53.82,4.82,2.61,1.15,1.6,1.88,3.75,2.04,6.05h0c.36,5.1-2.08,9.3-5.56,9.54-.11,0-.22.01-.32.01Zm-.67-15.23s-.07,0-.1,0c-1.52.11-3.04,2.74-2.79,6.34.26,3.6,2.12,5.93,3.66,5.88,1.52-.11,3.04-2.74,2.79-6.34h0c-.12-1.73-.66-3.37-1.48-4.51-.64-.88-1.39-1.38-2.07-1.38Z"/>
            </g>
          </g>
          <g>
            <g>
              <path class="cls-3" d="m253.61,469.77c.52,4.18-1.17,7.83-3.76,8.15-2.59.32-5.11-2.81-5.62-6.99-.51-4.18,1.17-7.83,3.76-8.15,2.59-.32,5.11,2.81,5.62,6.99Z"/>
              <path class="cls-2" d="m249.48,479.44c-3.25,0-6.15-3.52-6.74-8.33-.28-2.29.02-4.54.84-6.33.92-2,2.46-3.27,4.22-3.48,1.76-.22,3.56.64,4.94,2.36,1.24,1.53,2.07,3.64,2.35,5.94h0c.62,5.08-1.6,9.39-5.07,9.82-.18.02-.37.03-.55.03Zm-1.14-15.18c-.06,0-.12,0-.17,0-.71.09-1.39.73-1.87,1.77-.59,1.27-.8,2.99-.59,4.71.44,3.58,2.47,5.83,3.95,5.69,1.51-.19,2.9-2.89,2.46-6.48h0c-.21-1.72-.84-3.34-1.71-4.43-.66-.82-1.4-1.27-2.07-1.27Z"/>
            </g>
            <g>
              <path class="cls-3" d="m254.88,467.92c.51,4.18-1.17,7.83-3.76,8.15-2.59.32-5.11-2.81-5.62-6.99-.51-4.18,1.17-7.83,3.76-8.15,2.59-.32,5.11,2.81,5.62,6.99Z"/>
              <path class="cls-2" d="m250.75,477.59c-3.25,0-6.15-3.52-6.74-8.33-.28-2.3.02-4.54.84-6.33.92-2,2.46-3.27,4.22-3.48,1.76-.23,3.56.64,4.94,2.36,1.24,1.53,2.07,3.64,2.35,5.94h0c.63,5.08-1.6,9.39-5.06,9.82-.18.02-.37.04-.55.04Zm-1.14-15.18c-.06,0-.12,0-.17.01-.71.09-1.39.73-1.87,1.77-.59,1.27-.8,2.99-.59,4.71.44,3.59,2.43,5.83,3.95,5.69,1.51-.19,2.9-2.89,2.46-6.48h0c-.21-1.72-.84-3.34-1.71-4.43-.66-.82-1.4-1.27-2.06-1.27Z"/>
            </g>
          </g>
          <g>
            <g>
              <path class="cls-3" d="m182.2,332.78s36.58-4.27,54.63-8.27l1.88,13.58-55.17,8.28-1.33-13.59Z"/>
              <path class="cls-2" d="m183.53,347.87c-.33,0-.66-.11-.92-.32-.32-.25-.53-.63-.57-1.04l-1.33-13.59c-.08-.81.51-1.54,1.32-1.64.36-.04,36.71-4.31,54.48-8.24.41-.09.84,0,1.18.23.35.24.57.61.63,1.03l1.88,13.58c.11.81-.45,1.56-1.26,1.69l-55.17,8.28c-.07.01-.15.02-.22.02Zm.31-13.77l1.03,10.56,52.15-7.82-1.45-10.51c-16.23,3.42-44.95,6.96-51.73,7.78Z"/>
            </g>
            <path class="cls-2" d="m190.45,341.31c-.82,0-1.49-.66-1.5-1.48l-.11-8.02c-.01-.83.65-1.51,1.48-1.52.94.03,1.51.65,1.52,1.48l.12,8.02c.01.83-.65,1.51-1.48,1.52h-.02Z"/>
          </g>
          <path class="cls-2" d="m317.67,490.2c-3.88,0-7.48-2.22-9.22-5.7l-14.35-29.14c-.31-.62-.15-1.37.39-1.81,11.92-9.92,16.74-22.6,16.79-22.73.29-.78,1.15-1.16,1.93-.88.78.29,1.17,1.15.88,1.93-.2.53-4.89,12.92-16.78,23.22l13.83,28.08c1.24,2.49,3.9,3.99,6.64,4.03,2.94-.04,5.54-1.78,6.62-4.44,1.3-3.18,2.72-8.21,2.06-14.06-.09-.82.5-1.56,1.32-1.66.82-.07,1.56.5,1.66,1.32.73,6.48-.83,12.02-2.26,15.53-1.54,3.77-5.21,6.24-9.35,6.3h-.15Z"/>
          <path class="cls-3" d="m183.87,811.07h0c-.83,0-1.5-.67-1.5-1.5,0-17.32,2.37-28.45,4.36-34.74,1.71-5.42,1.34-11.34-1.03-16.67l-28.13-63.22c-.34-.76,0-1.64.76-1.98.75-.33,1.64,0,1.98.76l28.12,63.22c2.67,6,3.07,12.67,1.15,18.79-1.92,6.09-4.21,16.9-4.22,33.84,0,.83-.67,1.5-1.5,1.5Z"/>
          <path class="cls-3" d="m257.53,692.74c-.71,0-1.34-.5-1.47-1.22-14.85-78.68-20.9-104.89-20.95-105.15-.19-.81.31-1.61,1.12-1.8.79-.19,1.61.31,1.8,1.12.06.26,6.11,26.51,20.98,105.27.15.81-.38,1.6-1.19,1.75-.1.02-.19.03-.28.03Z"/>
          <path class="cls-3" d="m236.3,789.51c-.78,0-1.43-.6-1.49-1.39-.06-.83.56-1.54,1.38-1.61.2-.02,20.23-1.66,22.67-14.16.16-.81.97-1.32,1.76-1.18.81.16,1.34.95,1.18,1.76-2.88,14.75-24.47,16.51-25.39,16.57-.04,0-.07,0-.11,0Z"/>
          <path class="cls-3" d="m248.51,794.94c-.73,0-1.37-.54-1.48-1.28-.12-.82.45-1.58,1.26-1.7.31-.05,7.65-1.26,10.76-10.39.27-.78,1.12-1.21,1.9-.93.78.27,1.2,1.12.93,1.9-3.73,10.93-12.79,12.34-13.17,12.39-.07.01-.14.02-.21.02Z"/>
          <path class="cls-3" d="m197.24,778.4c-.33,0-.66-.11-.94-.33-4.89-3.91-8.32-11.29-8.47-11.6-.35-.75-.02-1.64.74-1.99.76-.34,1.65-.01,1.99.73.03.07,3.29,7.05,7.62,10.51.65.52.75,1.46.23,2.11-.3.37-.73.56-1.17.56Z"/>
          <path class="cls-3" d="m220.74,789.73c-.82,0-1.49-.66-1.5-1.48-.01-.83.65-1.51,1.48-1.52l7.24-.11c.86.04,1.51.65,1.52,1.48.01.83-.65,1.51-1.48,1.52l-7.24.11h-.02Z"/>
          <path class="cls-3" d="m183.33,801.67c-.09,0-.19,0-.28-.03-14.6-2.81-28.92-34.93-29.52-36.29-.33-.76.01-1.64.77-1.98.76-.33,1.64,0,1.98.77.14.32,14.27,32.04,27.34,34.56.81.16,1.35.94,1.19,1.75-.14.72-.77,1.22-1.47,1.22Z"/>
          <path class="cls-3" d="m224.21,910.65c-9.04,0-15.22-2.16-15.35-2.2-.78-.28-1.18-1.14-.9-1.92.28-.78,1.13-1.19,1.92-.9.26.09,26.17,9.06,49.09-11.4.61-.56,1.56-.5,2.11.12.55.62.5,1.56-.12,2.12-12.85,11.47-26.6,14.19-36.76,14.19Z"/>
          <path class="cls-2" d="m179.19,550.62c-4.56,0-7.39-1.03-7.51-1.08-.78-.29-1.17-1.15-.88-1.92.29-.78,1.15-1.17,1.92-.89.03.01,2.67.97,6.86.89.93.03,1.51.65,1.52,1.48.01.83-.65,1.51-1.48,1.52-.15,0-.29,0-.44,0Z"/>
          <path class="cls-3" d="m183.77,15.78c-.51,0-1.01-.26-1.29-.73-.42-.71-.19-1.63.52-2.05.71-.42,17.45-10.21,27.86-.16.6.57.61,1.52.04,2.12-.57.6-1.52.61-2.12.04-8.76-8.45-24.09.49-24.24.59-.24.14-.5.21-.76.21Z"/>
          <path class="cls-2" d="m303.14,1055.84c-.6,0-1.17-.36-1.4-.96-.3-.77.08-1.64.86-1.94.08-.03,8.07-3.19,10.27-8.53.78-1.9.72-3.82-.19-5.87-.34-.76,0-1.64.76-1.98.75-.32,1.64,0,1.98.76,1.24,2.8,1.32,5.57.21,8.24-2.69,6.53-11.58,10.03-11.96,10.17-.18.07-.36.1-.54.1Z"/>
          <g>
            <path class="cls-3" d="m88.24,406.43c1,2.52.21,5.2-1.77,5.99-1.98.78-4.39-.62-5.39-3.15-1-2.52-.21-5.2,1.77-5.99,1.98-.79,4.39.62,5.39,3.14Z"/>
            <path class="cls-2" d="m85.34,414.13c-2.29,0-4.62-1.67-5.66-4.31-1.3-3.29-.13-6.84,2.61-7.93,2.74-1.09,6.04.7,7.34,3.99h0c1.3,3.29.13,6.84-2.61,7.93-.55.21-1.11.32-1.68.32Zm-1.34-9.56c-.21,0-.41.04-.6.11-1.19.47-1.61,2.32-.93,4.04.68,1.72,2.27,2.78,3.45,2.31,1.19-.47,1.61-2.32.93-4.04-.57-1.44-1.77-2.42-2.85-2.42Z"/>
          </g>
          <g>
            <path class="cls-3" d="m369.41,408.02c1.6,2.19,1.49,4.99-.23,6.24-1.72,1.25-4.41.49-6.01-1.7-1.6-2.19-1.5-4.99.23-6.24,1.72-1.25,4.41-.49,6.01,1.7Z"/>
            <path class="cls-2" d="m367.25,416.36c-.5,0-1.01-.07-1.52-.22-1.46-.41-2.79-1.37-3.76-2.7-.97-1.33-1.47-2.9-1.42-4.41.06-1.62.78-3.05,1.97-3.93,2.39-1.74,6.02-.83,8.1,2.03h0c2.08,2.86,1.83,6.6-.56,8.33-.8.59-1.78.89-2.82.89Zm-1.92-9.15c-.39,0-.75.1-1.04.32-.61.45-.73,1.2-.74,1.61-.03.83.28,1.76.85,2.54.57.78,1.35,1.36,2.15,1.58.4.12,1.15.23,1.76-.21,1.03-.75.98-2.65-.1-4.15h0c-.77-1.07-1.91-1.69-2.87-1.69Z"/>
          </g>
          <g>
            <path class="cls-3" d="m210.67,927.96s10.2-1.38,9.82-6.97l-9.82,6.97Z"/>
            <path class="cls-2" d="m210.66,929.46c-.74,0-1.38-.55-1.48-1.3-.11-.82.46-1.58,1.28-1.69.09-.02,8.8-1.32,8.52-5.39-.06-.83.57-1.54,1.39-1.6.81-.06,1.54.57,1.6,1.39.48,6.92-10.64,8.5-11.11,8.57-.07,0-.14.01-.2.01Z"/>
          </g>
          <g>
            <path class="cls-1" d="m389.57,375.88s6.95-2.32,12.92-7.06l-12.92,7.06Z"/>
            <path class="cls-2" d="m389.58,377.38c-.63,0-1.21-.4-1.42-1.02-.26-.79.16-1.64.94-1.9.07-.02,6.78-2.31,12.47-6.81.65-.52,1.59-.4,2.11.24.51.65.4,1.59-.24,2.11-6.11,4.84-13.08,7.21-13.38,7.3-.16.05-.32.08-.47.08Z"/>
          </g>
        </g>
        <g>
          <g>
            <g>
              <path class="cls-2" d="m464.21,485.89s23.32-9.87,27.52-25.86c6.58-25.09-48.34,4.14-48.34,4.14l20.83,21.72Z"/>
              <path class="cls-2" d="m464.21,487.38c-.4,0-.79-.16-1.08-.46l-20.83-21.73c-.33-.34-.47-.81-.4-1.27.07-.46.36-.87.78-1.09,3.94-2.1,38.75-20.25,48.49-12.55,2.56,2.03,3.24,5.43,2.01,10.12-4.33,16.51-27.4,26.45-28.38,26.86-.19.08-.39.12-.58.12Zm-18.36-22.82l18.71,19.52c4.31-2.02,22.23-11.13,25.72-24.44.9-3.43.58-5.79-.97-7.01-6.58-5.21-32.1,6.1-43.46,11.93Z"/>
            </g>
            <g>
              <path class="cls-1" d="m453.12,486.75h0l1.74.42c4.42.79,15.92.95,18.27-18.01,0,0,14.55,4.86,19.34-11.25l27.8-108.88-95.46-16.36-7.79,33.53,9.4.94,9.86.48s3.24,4.92-1.26,9.29c0,0-3.39,3.26-10.74,1.33-7.36-1.93-10.71.83-10.71.83l-29.82,91.01,69.37,16.66h0Z"/>
              <path class="cls-2" d="m457.75,488.92c-1.23,0-2.31-.13-3.15-.28l-1.83-.44h0l-69.37-16.66c-.41-.1-.76-.36-.96-.73-.2-.36-.25-.8-.12-1.2l29.82-91.01c.09-.27.25-.51.47-.69.16-.13,4.03-3.23,12.04-1.12,6.34,1.66,9.22-.87,9.34-.98,2.74-2.65,1.93-5.5,1.37-6.74l-9.01-.44-9.48-.94c-.43-.04-.82-.27-1.07-.62-.25-.35-.34-.79-.24-1.21l7.79-33.53c.18-.77.93-1.26,1.71-1.14l95.46,16.36c.41.07.78.31,1,.66.23.35.3.78.2,1.19l-27.8,108.88c-1.63,5.46-4.46,9.26-8.44,11.33-4.27,2.22-8.73,1.85-11.1,1.4-1.14,7.08-3.73,12.16-7.71,15.09-3.03,2.23-6.32,2.82-8.93,2.82Zm-4.28-3.63l1.75.42c2.03.36,6.12.6,9.68-2.02,3.6-2.66,5.88-7.61,6.76-14.71.05-.45.31-.84.69-1.08.38-.24.85-.3,1.27-.16.06.02,5.59,1.79,10.53-.8,3.22-1.68,5.54-4.86,6.91-9.45l27.38-107.25-92.46-15.85-7.08,30.49,7.7.77,9.78.47c.48.02.92.27,1.18.67,1.36,2.06,2.79,7.06-1.47,11.19-.17.16-4.09,3.83-12.17,1.71-5.27-1.38-8.15-.18-9.07.34l-29.15,88.97,67.79,16.28Z"/>
            </g>
          </g>
          <path class="cls-2" d="m505.4,409.15c-.08,0-.17,0-.26-.02l-95.46-16.36c-.82-.14-1.36-.91-1.22-1.73.14-.82.91-1.35,1.73-1.22l95.46,16.36c.82.14,1.36.91,1.22,1.73-.12.73-.76,1.24-1.48,1.24Z"/>
          <path class="cls-2" d="m491.73,461.52c-.09,0-.18,0-.27-.02l-98.73-17.73c-.81-.15-1.36-.93-1.21-1.74.15-.81.93-1.34,1.74-1.21l98.73,17.73c.81.15,1.36.93,1.21,1.74-.13.72-.76,1.23-1.47,1.23Z"/>
          <g>
            <polygon class="cls-1" points="486.18 358.83 501.81 361.86 497.76 377.72 482.46 374.83 486.18 358.83"/>
            <path class="cls-2" d="m497.76,379.22c-.09,0-.19,0-.28-.02l-15.3-2.89c-.4-.08-.75-.31-.98-.65-.22-.34-.3-.76-.21-1.16l3.72-16.01c.18-.78.97-1.29,1.74-1.13l15.63,3.04c.41.08.76.32.98.67.22.35.29.77.19,1.17l-4.05,15.86c-.17.67-.78,1.13-1.45,1.13Zm-13.49-5.57l12.38,2.34,3.31-12.96-12.65-2.46-3.04,13.08Z"/>
          </g>
          <g>
            <polygon class="cls-1" points="471.9 414.32 487.53 417.36 483.48 433.22 468.18 430.33 471.9 414.32"/>
            <path class="cls-2" d="m483.48,434.72c-.09,0-.19,0-.28-.02l-15.3-2.89c-.4-.08-.75-.31-.98-.66-.22-.34-.3-.76-.21-1.16l3.72-16.01c.18-.78.97-1.29,1.74-1.13l15.63,3.04c.41.08.76.32.98.67s.29.77.19,1.17l-4.05,15.86c-.17.67-.78,1.13-1.45,1.13Zm-13.49-5.57l12.38,2.34,3.31-12.96-12.65-2.46-3.04,13.08Z"/>
          </g>
        </g>
      </g>
    </g>
  </g>
</svg>